<svg xmlns="http://www.w3.org/2000/svg" xmlns:xlink="http://www.w3.org/1999/xlink" viewBox="0 0 170.75 136.12">
    <defs>
        <style>
            .cls-1{fill:url(#Безымянный_градиент_14);}.cls-2{fill:url(#Безымянный_градиент_14-2);}.cls-3{fill:url(#Безымянный_градиент_14-3);}.cls-4{fill:url(#Безымянный_градиент_14-4);}.cls-5{fill:url(#Безымянный_градиент_14-5);}.cls-6{fill:url(#Безымянный_градиент_14-6);}.cls-7{fill:url(#Безымянный_градиент_14-7);}.cls-8{fill:url(#Безымянный_градиент_14-8);}.cls-9{fill:url(#Безымянный_градиент_14-9);}
        </style>
        <linearGradient id="Безымянный_градиент_14" y1="50.21" x2="170.75" y2="50.21" gradientUnits="userSpaceOnUse">
            <stop offset="0" stop-color="#fd6022"/>
            <stop offset="1" stop-color="#f71800"/>
        </linearGradient>
        <linearGradient id="Безымянный_градиент_14-2" x1="153.29" y1="56.71" x2="169.29" y2="56.71"
                        xlink:href="#Безымянный_градиент_14"/>
        <linearGradient id="Безымянный_градиент_14-3" x1="123.45" y1="70.92" x2="133.51" y2="70.92"
                        xlink:href="#Безымянный_градиент_14"/>
        <linearGradient id="Безымянный_градиент_14-4" x1="104.3" y1="32.72" x2="124.64" y2="32.72"
                        xlink:href="#Безымянный_градиент_14"/>
        <linearGradient id="Безымянный_градиент_14-5" x1="90.65" y1="120.06" x2="122.76" y2="120.06"
                        xlink:href="#Безымянный_градиент_14"/>
        <linearGradient id="Безымянный_градиент_14-6" x1="58.47" y1="8.72" x2="82.86" y2="8.72"
                        xlink:href="#Безымянный_градиент_14"/>
        <linearGradient id="Безымянный_градиент_14-7" x1="45.93" y1="56.67" x2="72.28" y2="56.67"
                        xlink:href="#Безымянный_градиент_14"/>
        <linearGradient id="Безымянный_градиент_14-8" x1="46.13" y1="120.06" x2="70.49" y2="120.06"
                        xlink:href="#Безымянный_градиент_14"/>
        <linearGradient id="Безымянный_градиент_14-9" x1="10.42" y1="34.6" x2="28.87" y2="34.6"
                        xlink:href="#Безымянный_градиент_14"/>
    </defs>
    <g id="Слой_2" data-name="Слой 2">
        <g id="Слой_1-2" data-name="Слой 1">
            <path class="cls-1"
                  d="M170.31,76.59a22.43,22.43,0,0,1-11.95-1.75,19.22,19.22,0,0,1-10.07-10A21.92,21.92,0,0,1,148,47.35a21.27,21.27,0,0,1,8.24-9.66A85.39,85.39,0,0,0,90,0L89.6,0h-.47a19.21,19.21,0,0,1-7.87,21.26,19.59,19.59,0,0,1-18.72,1.5,17.58,17.58,0,0,1-9.26-9.13,20.86,20.86,0,0,1-1.74-6.72A85.45,85.45,0,0,0,31.46,19.14,20.86,20.86,0,0,1,34,40.73a18.68,18.68,0,0,1-9.63,9.71,21.1,21.1,0,0,1-17.06.31A84.9,84.9,0,0,0,0,85.28v.33A15,15,0,0,0,1,91a14.69,14.69,0,0,0,6.53,7.47,14.92,14.92,0,0,0,15.15-.19c.84-.51,1.71-1,2.58-1.48.22-.11.42-.24.63-.35.94-.52,1.9-1,2.87-1.49l.48-.25c1-.49,2-1,3-1.41l.48-.22c1-.46,2-.89,3.08-1.31.17-.07.33-.15.5-.21,1-.39,2-.76,2.94-1.13l.74-.28c.93-.34,1.88-.66,2.83-1l.94-.32c1-.31,1.91-.59,2.88-.88l1-.3c.88-.25,1.78-.48,2.68-.72l1.27-.34L54,86c.51-.12,1-.25,1.54-.36l2.15-.43c.65-.13,1.29-.27,1.94-.39l1.73-.29c.81-.13,1.61-.28,2.43-.4.51-.08,1-.14,1.55-.21.89-.13,1.77-.26,2.67-.37l1.51-.16,2.75-.29L73.84,83c.93-.07,1.85-.15,2.79-.21.66,0,1.33-.06,2-.09s1.57-.08,2.35-.1c1.46,0,2.93-.07,4.39-.07s2.93,0,4.39.07l2,.08c.8,0,1.6.06,2.39.11,1,.06,2.09.15,3.13.23.39,0,.79.06,1.17.09,1.22.11,2.42.24,3.62.38l.64.07c1.31.16,2.61.34,3.9.53l.31,0c1.35.21,2.7.43,4,.68l.12,0c1.33.24,2.64.5,4,.78l.13,0c1.24.27,2.45.56,3.66.85l.36.09c1.16.29,2.3.6,3.44.92l.5.13c1,.3,2.05.62,3.07.94.26.08.53.15.79.24.93.3,1.85.62,2.77.94l1,.35c.8.28,1.58.59,2.37.9l1.31.5c.7.28,1.38.58,2.06.87.51.22,1,.42,1.52.65s1.18.55,1.77.83,1.15.52,1.7.8,1,.51,1.49.77,1.26.63,1.87,1c.43.23.84.48,1.26.71.65.37,1.3.73,1.93,1.1a15.06,15.06,0,0,0,13.43,1.11,16.52,16.52,0,0,0,1.8-.87,14.62,14.62,0,0,0,7.54-12.8v-.36C170.75,82.39,170.6,79.48,170.31,76.59ZM77.47,65.3A18.66,18.66,0,0,1,67.73,75a22,22,0,0,1-8.65,1.82A20.17,20.17,0,0,1,38.93,56.68,20.18,20.18,0,0,1,76,45.57a19.92,19.92,0,0,1,3.34,11.08A22.13,22.13,0,0,1,77.47,65.3Zm37-15.4A17.18,17.18,0,1,1,129,23.48a17.56,17.56,0,0,1,.91,17.11,15.45,15.45,0,0,1-7.52,7.52A18.84,18.84,0,0,1,114.45,49.9Zm24.31,27.48a9.9,9.9,0,0,1-3.83,3.82,13.22,13.22,0,0,1-6.47,1.73,11.85,11.85,0,0,1-6.07-1.64,12,12,0,1,1,18.1-10.39A13.37,13.37,0,0,1,138.76,77.38Z"/>
            <path class="cls-2"
                  d="M154.7,62a12.42,12.42,0,0,0,6.43,6.37,15.56,15.56,0,0,0,8.16,1.24,85.18,85.18,0,0,0-9.41-26,14.21,14.21,0,0,0-5.46,6.43A14.74,14.74,0,0,0,154.7,62Z"/>
            <path class="cls-3"
                  d="M128.47,65.89a5,5,0,0,0-2.54,9.37,5.42,5.42,0,0,0,5.59-.17A2.92,2.92,0,0,0,132.65,74a5.37,5.37,0,0,0,.16-5.58A5.06,5.06,0,0,0,128.47,65.89Z"/>
            <path class="cls-4"
                  d="M123.05,27.25a10.17,10.17,0,1,0-14,14,10.67,10.67,0,0,0,10.4.45,8.39,8.39,0,0,0,4.1-4.1A10.68,10.68,0,0,0,123.05,27.25Z"/>
            <path class="cls-5"
                  d="M106.71,104a16.07,16.07,0,0,0-9.22,29.22A16.45,16.45,0,0,0,112.76,135a15,15,0,0,0,8.92-8.91,16.5,16.5,0,0,0-1.81-15.27A16.09,16.09,0,0,0,106.71,104Z"/>
            <path class="cls-6"
                  d="M65.27,16.31a12.67,12.67,0,0,0,12.12-.89A12.13,12.13,0,0,0,81.65,0,84.82,84.82,0,0,0,58.51,4.26a13.42,13.42,0,0,0,1.18,6.54A10.72,10.72,0,0,0,65.27,16.31Z"/>
            <path class="cls-7"
                  d="M59.11,43.5a13.18,13.18,0,0,0-7.26,24.18A13.7,13.7,0,0,0,65,68.61a11.63,11.63,0,0,0,6-6.06,13.65,13.65,0,0,0-.92-13.12A13.15,13.15,0,0,0,59.11,43.5Z"/>
            <path class="cls-8"
                  d="M58.31,107.87a12.19,12.19,0,0,0-7,22.17,12.51,12.51,0,0,0,11.6,1.38,11.35,11.35,0,0,0,6.75-6.75,12.51,12.51,0,0,0-1.38-11.6A12.21,12.21,0,0,0,58.31,107.87Z"/>
            <path class="cls-9"
                  d="M21.56,44a11.81,11.81,0,0,0,6-6.07,14,14,0,0,0-1.37-14.14A85.7,85.7,0,0,0,10.42,44.44,14.29,14.29,0,0,0,21.56,44Z"/>
        </g>
    </g>
</svg>
