<?xml version="1.0" encoding="UTF-8"?>
<!DOCTYPE svg PUBLIC "-//W3C//DTD SVG 1.0//EN" "http://www.w3.org/TR/2001/REC-SVG-20010904/DTD/svg10.dtd">
<!-- Creator: CorelDRAW 2020 (64-Bit) -->
<svg xmlns="http://www.w3.org/2000/svg" xml:space="preserve" width="1832px" height="1850px" version="1.0" style="shape-rendering:geometricPrecision; text-rendering:geometricPrecision; image-rendering:optimizeQuality; fill-rule:evenodd; clip-rule:evenodd"
viewBox="0 0 75.28 76.02"
 xmlns:xlink="http://www.w3.org/1999/xlink"
 xmlns:xodm="http://www.corel.com/coreldraw/odm/2003">
 <defs>
  <style type="text/css">
   <![CDATA[
    .fil0 {fill:#4D4D4D}
    .fil4 {fill:#668D4E}
    .fil5 {fill:#668D52}
    .fil6 {fill:#6B8D55}
    .fil1 {fill:#BA8E59}
    .fil8 {fill:#BC9462}
    .fil7 {fill:#FEF2D9}
    .fil2 {fill:#FEF2DC}
    .fil3 {fill:#FEF2DE}
   ]]>
  </style>
 </defs>
 <g id="Слой_x0020_1">
  <metadata id="CorelCorpID_0Corel-Layer"/>
  <path class="fil0" d="M30.23 24.76c-0.04,2.1 -0.42,3.42 0.18,5.59 0.95,3.5 2.55,4.96 4.02,7.95 3.85,7.87 2.98,16.8 0.27,24.63 -0.16,0.27 0.26,0.22 -0.29,0.21 -2.33,-4.35 -6.98,-5.22 -9.35,-6.91 -1.4,-1 -2.4,-2.67 -3.02,-2.11 -0.54,0.9 0.58,2.41 0.96,3.19 -1.04,-0.19 -1.58,-0.75 -2.41,-0.36 -0.9,1.08 0.73,1.88 1.53,2.23 2.12,0.93 6.41,0.32 8.97,4.28 -1.48,-0.15 -1.63,-0.18 -3.06,-0.01 -3.22,0.39 -5.43,-0.15 -7.66,-2.69 -2.34,-2.66 -3.32,-6.38 -3.32,-10.96 -0.34,-0.65 -0.97,-1.32 -1.93,-0.9 -0.74,0.62 -0.48,2.05 -0.41,3.17 0.06,1.1 0.2,2.12 0.31,3.21 0.77,4.89 3.67,8.72 7.54,10.31 6.43,2.63 9.8,-3.8 10.47,6.92 -4.03,-0.28 -9.79,-2.52 -12.71,-4.34 -7.15,-4.45 -12.31,-10.48 -15.15,-18.42 -4.64,-12.98 -1.14,-28.03 9.08,-37.16 3.36,-3.01 5.54,-4.76 10.09,-6.7 23.72,-10.11 47.31,8.66 47.76,30.76 0.11,5.65 -0.63,9.72 -2.51,14.48 -1.28,3.23 -4.24,8.08 -6.46,10.34 -3.37,3.41 -5.06,5.06 -9.31,7.47 -2.71,1.52 -10.29,4.11 -12.87,3.78 0.03,-2.08 0.91,-5.41 1.98,-6.65 0.7,-1.58 1.64,-2.76 3.21,-3.44 1.76,-0.77 4.04,-0.42 6.02,-0.86 1.81,-0.66 2.38,-0.58 3.99,-1.64 2.35,-1.54 4,-3.49 5.19,-6.11l1.5 -4.16c-0.02,-0.96 0.29,-2.08 0.32,-3.1 0.03,-1.08 0.29,-6.02 -0.52,-6.53 -1.07,-0.68 -1.95,0.43 -2.2,1.04 0.7,4.56 -0.51,10.67 -2.79,13.69 -1.18,1.55 -2.46,2.84 -4.74,3.63 -1.5,0.52 -2.24,0.26 -3.36,0.44 -1.26,0.2 -2.37,0.31 -3.68,0.58 0.18,-0.65 1.73,-2.47 2.19,-2.94 2.29,-2.35 4.74,-2.42 7.15,-3.47 0.98,-0.42 2.79,-1.53 1.65,-2.75 -0.74,-0.18 -1.72,0.52 -2.63,0.78 0.34,-1.06 1.97,-3.82 0.14,-4.11 -0.46,0.39 -0.85,1.27 -1.33,1.86 -2.05,2.49 -3.11,2.77 -5.67,4.6 -1.84,1.31 -3.51,3.56 -4.62,5.49 -0.45,0.78 -0.58,1.71 -1.04,2.4 -0.06,0.62 -0.89,1.72 -1.26,2.49 -0.23,0.47 -1.04,2.27 -1.29,2.59 -0.2,0.97 -0.61,1.94 -0.83,3.01 -0.18,0.84 -0.25,2.65 -0.51,3.22l-1.82 0.09c-0.28,-1.03 0.49,-4.62 0.95,-5.91l0.18 -0.41c0.24,-2.07 2.49,-7.37 3.11,-14.49 0.18,-2.04 -0.18,-3.68 0.27,-5.67 0.66,-2.98 2.53,-6.13 4.16,-7.67 2.05,-1.96 4.48,-3.12 7.12,-4.76 0.03,-0.04 0.07,-0.09 0.09,-0.12l0.29 -0.3c0.82,-0.7 0.75,-0.5 1.89,-1.69 2.24,-2.32 1.09,-4.42 -0.62,-2.68 -1.57,1.6 -3.34,2.76 -5.73,3.45 0.24,-0.91 1.96,-3.7 1.17,-4.46 -0.31,-0.32 -0.16,-0.39 -0.79,-0.08 -0.48,0.23 -1.23,1.35 -1.71,1.91 -0.75,0.87 -5.65,7.73 -6.05,7.98l-1.33 2.85c-0.37,-0.38 -0.48,-0.96 -0.66,-1.47 -1.89,-5.24 -2.08,-5.89 -0.71,-10.85 0.17,-1.08 0.86,-2.07 1.33,-3.37 0.33,-0.92 0.13,-0.81 0.12,-0.92l-0.09 -0.24c-1.13,-0.68 -1.92,1.71 -2.97,2.38 0.01,-1.47 -0.03,-2.61 0.29,-4.04 0.15,-0.65 0.87,-2.48 0.59,-2.89 -0.46,-0.52 -0.94,-0.05 -1.31,0.46 -2.25,3.1 -2.54,6.75 -2.16,10.63 0.07,0.76 0.2,0.98 0.34,1.63 -0.38,-0.59 -0.71,-0.95 -1.1,-1.65 -0.87,-1.55 -1.51,-3.11 -1.93,-4.71 -0.21,-0.8 -0.18,-0.72 -0.51,-1.02zm-15.4 43.52c0.2,0.24 1.62,1.2 2.1,1.57 0.7,0.53 1.49,0.99 2.32,1.44 1.68,0.91 3.43,1.73 5.31,2.4 11.26,3.97 23.9,2.95 33.75,-3.69 0.7,-0.47 1.62,-1.4 2.26,-1.62 0.24,-0.32 0.14,-0.23 0.55,-0.54 0.37,-0.27 0.24,-0.11 0.59,-0.44 4.93,-4.71 9.09,-10.15 11.38,-16.87 2.94,-8.63 2.95,-16.94 -0.18,-25.53 -1.11,-3.04 -3.41,-7.34 -5.31,-9.76 -7.32,-9.35 -16.68,-15.23 -29.97,-15.24 -9.41,0 -16.52,3.36 -22.58,7.73l-6.61 6.58c-0.28,0.36 -0.46,0.73 -0.76,1.13 -7.81,10.57 -9.73,22.22 -5.46,35.2 1.26,3.83 3.26,7.14 5.22,9.86 0.57,0.8 1.05,1.39 1.62,2.14l2.74 2.92c0.41,0.38 0.5,0.57 0.88,1 0.57,0.63 1.2,0.86 1.94,1.52 0.02,0.02 0.08,0.13 0.1,0.1 0.02,-0.03 0.07,0.07 0.11,0.1z"/>
  <path class="fil1" d="M15.02 55.28c-0.82,-0.55 -2.63,-4.18 -3.22,-5.48 -1.93,-4.27 -2.76,-10.02 -2.1,-14.72 0.17,-1.22 0.42,-2.34 0.74,-3.52 0.18,-0.65 0.6,-2.7 1.17,-3.11 -0.27,-0.39 -0.49,-0.71 -0.85,-1.07 -0.39,-0.4 -0.68,-0.49 -0.75,-1.25 0.96,-0.31 1.63,-0.23 2.67,-0.12 0.09,-0.93 2.68,-4.53 3.54,-5.47 0.42,-0.46 0.57,-0.79 1.02,-1.19 1.63,-1.46 1.45,-1.57 3.54,-3.15 7.67,-5.81 18.77,-7.79 27.89,-3.61 2.41,1.11 9.47,5.44 10.2,7.63l2.82 -0.27c1.06,-0.07 2.73,-0.46 3.59,0.35 0.06,0.98 -0.97,1.28 -1.54,1.87 -0.44,0.45 -1.36,1.53 -1.65,2.21 0.76,0.63 2.09,4.07 2.44,5.4 0.7,2.63 0.93,4.13 1.07,7.04 0.11,2.59 -0.07,5.24 -0.59,7.54 -0.33,1.48 -0.77,3.19 -1.46,4.51 -0.47,0.89 -0.47,1.12 -0.71,0.99l-1.5 4.16c-1.19,2.62 -2.84,4.57 -5.19,6.11 -1.61,1.06 -2.18,0.98 -3.99,1.64 -0.71,1.34 -6.82,4.19 -9.23,4.3 -1.07,1.24 -1.95,4.57 -1.98,6.65 2.58,0.33 10.16,-2.26 12.87,-3.78 4.25,-2.41 5.94,-4.06 9.31,-7.47 2.22,-2.26 5.18,-7.11 6.46,-10.34 1.88,-4.76 2.62,-8.83 2.51,-14.48 -0.45,-22.1 -24.04,-40.87 -47.76,-30.76 -4.55,1.94 -6.73,3.69 -10.09,6.7 -10.22,9.13 -13.72,24.18 -9.08,37.16 2.84,7.94 8,13.97 15.15,18.42 2.92,1.82 8.68,4.06 12.71,4.34 -0.67,-10.72 -4.04,-4.29 -10.47,-6.92 -3.87,-1.59 -6.77,-5.42 -7.54,-10.31z"/>
  <path class="fil2" d="M12.68 26.01l0.97 0.14c5.84,0.54 10.58,3.1 14.13,5.79 1.41,1.06 3.38,3.71 4.36,5.57 1.22,2.31 1.78,4.89 2.1,7.84 0.36,2.06 1.65,5.5 0.14,8.75l-1.77 -4.56c-2.6,-5.97 -8.11,-7.32 -10.23,-9.22 -0.16,0.35 2,1.86 2.6,2.3 1.16,0.86 1.95,1.56 2.98,2.49 1.77,1.6 3.26,3.75 4.03,6.84 0.26,0.64 0.44,1.12 0.36,1.82 -0.91,-0.15 -3.07,-1.14 -4.15,-1.53 -4.48,-1.61 -7.95,-2.6 -10.49,-6.81 -4.09,-6.78 -1.97,-12.64 -6.1,-16.98 -0.57,0.41 -0.99,2.46 -1.17,3.11 -0.32,1.18 -0.57,2.3 -0.74,3.52 -0.66,4.7 0.17,10.45 2.1,14.72 0.59,1.3 2.4,4.93 3.22,5.48 -0.11,-1.09 -0.25,-2.11 -0.31,-3.21 -0.07,-1.12 -0.33,-2.55 0.41,-3.17 0.96,-0.42 1.59,0.25 1.93,0.9 1.57,0.88 1.8,1.76 5.31,2.48 5.18,1.06 9.31,2.15 11.51,7.65 0.29,0.73 0.62,2.74 0.83,3 2.71,-7.83 3.58,-16.76 -0.27,-24.63 -1.47,-2.99 -3.07,-4.45 -4.02,-7.95 -0.6,-2.17 -0.22,-3.49 -0.18,-5.59 0.67,-3.97 3.45,-8.6 6.38,-10.88l2.64 -1.65c0.11,-0.06 0.4,-0.2 0.47,-0.22l0.52 -0.03c0.36,1.65 -0.4,1.93 0.75,5.91 0.46,1.57 1.4,3.58 1.61,5.27 0.44,2.79 0.2,4.5 -0.92,6.76 -0.54,1.08 -1.02,1.7 -1.6,2.51l-1.77 2.35c-0.57,-0.89 -0.55,-2.3 -0.6,-3.51 -0.05,-0.82 0.29,-2.16 -0.08,-2.77 -1.37,4.96 -1.18,5.61 0.71,10.85 0.18,0.51 0.29,1.09 0.66,1.47l1.33 -2.85c0.8,-4.75 2.35,-8.9 6.07,-12.07 1.89,-1.61 2.97,-2.49 5.5,-3.58 1.82,-0.79 4.83,-1.88 6.97,-2.1 -0.73,-2.19 -7.79,-6.52 -10.2,-7.63 -9.12,-4.18 -20.22,-2.2 -27.89,3.61 -2.09,1.58 -1.91,1.69 -3.54,3.15 -0.45,0.4 -0.6,0.73 -1.02,1.19 -0.86,0.94 -3.45,4.54 -3.54,5.47z"/>
  <path class="fil3" d="M42.22 46.78c0.03,-1.59 0.69,-3.28 1.3,-4.58 0.68,-1.43 1.37,-2.4 2.32,-3.33 1.78,-1.75 3.62,-2.78 5.56,-4.4 0.41,-0.34 0.88,-0.33 0.39,-0.51 -2.64,1.64 -5.07,2.8 -7.12,4.76 -1.63,1.54 -3.5,4.69 -4.16,7.67 -0.45,1.99 -0.09,3.63 -0.27,5.67 -0.62,7.12 -2.87,12.42 -3.11,14.49 0.35,0.29 1.42,0.06 2.03,0 0.25,-0.32 1.06,-2.12 1.29,-2.59 0.37,-0.77 1.2,-1.87 1.26,-2.49 -0.18,-3.21 0.37,-5.6 1.53,-8.24 2.42,-5.51 6.27,-6.57 11.28,-8.25 4.15,-1.38 4.14,-2.4 5.92,-3.71 0.25,-0.61 1.13,-1.72 2.2,-1.04 0.81,0.51 0.55,5.45 0.52,6.53 -0.03,1.02 -0.34,2.14 -0.32,3.1 0.24,0.13 0.24,-0.1 0.71,-0.99 0.69,-1.32 1.13,-3.03 1.46,-4.51 0.52,-2.3 0.7,-4.95 0.59,-7.54 -0.14,-2.91 -0.37,-4.41 -1.07,-7.04 -0.35,-1.33 -1.68,-4.77 -2.44,-5.4 -0.56,0.55 -1.63,2.6 -1.88,3.68 -1.12,4.72 -1.81,8.31 -4.76,11.86 -0.45,0.55 -0.72,1.07 -1.29,1.61 -0.42,0.4 -0.95,1.04 -1.37,1.37 -2.3,1.8 -8.18,5.24 -10.8,5.85l0.23 -1.97z"/>
  <path class="fil4" d="M58.87 20.22c-2.14,0.22 -5.15,1.31 -6.97,2.1 -2.53,1.09 -3.61,1.97 -5.5,3.58 -3.72,3.17 -5.27,7.32 -6.07,12.07 0.4,-0.25 5.3,-7.11 6.05,-7.98 0.48,-0.56 1.23,-1.68 1.71,-1.91 0.63,-0.31 0.48,-0.24 0.79,0.08 0.79,0.76 -0.93,3.55 -1.17,4.46 2.39,-0.69 4.16,-1.85 5.73,-3.45 1.71,-1.74 2.86,0.36 0.62,2.68 -1.14,1.19 -1.07,0.99 -1.89,1.69l-0.29 0.3c-0.02,0.03 -0.06,0.08 -0.09,0.12 0.49,0.18 0.02,0.17 -0.39,0.51 -1.94,1.62 -3.78,2.65 -5.56,4.4 -0.95,0.93 -1.64,1.9 -2.32,3.33 -0.61,1.3 -1.27,2.99 -1.3,4.58 0.51,-0.75 0.62,-0.84 1.35,-1.44 0.57,-0.46 1.16,-0.79 1.76,-1.18 1.2,-0.77 2.57,-1.24 3.77,-2.04 7.09,-4.77 6.61,-9.09 8.36,-14.76 1.34,-4.34 3.48,-6.04 4.23,-7.41l-2.82 0.27z"/>
  <path class="fil5" d="M31.99 51.95c-0.77,-3.09 -2.26,-5.24 -4.03,-6.84 -1.03,-0.93 -1.82,-1.63 -2.98,-2.49 -0.6,-0.44 -2.76,-1.95 -2.6,-2.3 -0.58,-0.78 -1.31,-0.97 -2.45,-2.76 -1.17,-1.84 -0.25,-3.27 1.01,-2.22 0.32,0.26 0.83,1 1.21,1.37 1.37,1.29 3.49,2.16 5.22,2.88 -0.21,-0.95 -2.28,-4.82 -0.73,-4.63 0.76,0.09 1.54,1.45 2.04,2.07l3.8 5.45c0.34,0.51 0.55,0.82 0.89,1.34 0.33,0.49 0.45,1.11 0.87,1.53 -0.32,-2.95 -0.88,-5.53 -2.1,-7.84 -0.98,-1.86 -2.95,-4.51 -4.36,-5.57 -3.55,-2.69 -8.29,-5.25 -14.13,-5.79 0.2,0.76 0.65,1.02 1.1,1.69 4.84,7.18 1.24,16.13 9.97,20.14 1.94,0.89 4.39,1.48 5.84,2.41 0.88,0.56 0.73,0.56 1.18,1.23 0.03,0.03 0.06,0.08 0.08,0.11l0.17 0.22z"/>
  <path class="fil4" d="M41.71 61.47c0.46,-0.69 0.59,-1.62 1.04,-2.4 1.11,-1.93 2.78,-4.18 4.62,-5.49 2.56,-1.83 3.62,-2.11 5.67,-4.6 0.48,-0.59 0.87,-1.47 1.33,-1.86 1.83,0.29 0.2,3.05 -0.14,4.11 0.91,-0.26 1.89,-0.96 2.63,-0.78 1.14,1.22 -0.67,2.33 -1.65,2.75 -2.41,1.05 -4.86,1.12 -7.15,3.47 -0.46,0.47 -2.01,2.29 -2.19,2.94 1.31,-0.27 2.42,-0.38 3.68,-0.58 1.12,-0.18 1.86,0.08 3.36,-0.44 2.28,-0.79 3.56,-2.08 4.74,-3.63 2.28,-3.02 3.49,-9.13 2.79,-13.69 -1.78,1.31 -1.77,2.33 -5.92,3.71 -5.01,1.68 -8.86,2.74 -11.28,8.25 -1.16,2.64 -1.71,5.03 -1.53,8.24z"/>
  <path class="fil4" d="M30.23 24.76c0.33,0.3 0.3,0.22 0.51,1.02 0.42,1.6 1.06,3.16 1.93,4.71 0.39,0.7 0.72,1.06 1.1,1.65 -0.14,-0.65 -0.27,-0.87 -0.34,-1.63 -0.38,-3.88 -0.09,-7.53 2.16,-10.63 0.37,-0.51 0.85,-0.98 1.31,-0.46 0.28,0.41 -0.44,2.24 -0.59,2.89 -0.32,1.43 -0.28,2.57 -0.29,4.04 1.05,-0.67 1.84,-3.06 2.97,-2.38l0.09 0.24c0.01,0.11 0.21,0 -0.12,0.92 -0.47,1.3 -1.16,2.29 -1.33,3.37 0.37,0.61 0.03,1.95 0.08,2.77 0.79,-0.19 0.39,-0.24 1.67,-1.95 0.44,-0.58 0.95,-1.7 1.26,-2.33 0.21,-0.42 0.36,-0.72 0.58,-1.13l0.76 -1.45c0.51,-0.82 -0.07,-0.42 0.24,-1.29 0.31,-0.15 -0.02,-0.21 0.38,0.04 -0.21,-1.69 -1.15,-3.7 -1.61,-5.27 -1.15,-3.98 -0.39,-4.26 -0.75,-5.91l-0.52 0.03c-0.07,0.02 -0.36,0.16 -0.47,0.22l-2.64 1.65c-2.93,2.28 -5.71,6.91 -6.38,10.88z"/>
  <path class="fil0" d="M61.69 19.95c-0.75,1.37 -2.89,3.07 -4.23,7.41 -1.75,5.67 -1.27,9.99 -8.36,14.76 -1.2,0.8 -2.57,1.27 -3.77,2.04 -0.6,0.39 -1.19,0.72 -1.76,1.18 -0.73,0.6 -0.84,0.69 -1.35,1.44l-0.23 1.97c2.62,-0.61 8.5,-4.05 10.8,-5.85 0.42,-0.33 0.95,-0.97 1.37,-1.37 0.57,-0.54 0.84,-1.06 1.29,-1.61 2.95,-3.55 3.64,-7.14 4.76,-11.86 0.25,-1.08 1.32,-3.13 1.88,-3.68 0.29,-0.68 1.21,-1.76 1.65,-2.21 0.57,-0.59 1.6,-0.89 1.54,-1.87 -0.86,-0.81 -2.53,-0.42 -3.59,-0.35z"/>
  <path class="fil6" d="M34.7 62.93c-0.21,-0.26 -0.54,-2.27 -0.83,-3 -2.2,-5.5 -6.33,-6.59 -11.51,-7.65 -3.51,-0.72 -3.74,-1.6 -5.31,-2.48 0,4.58 0.98,8.3 3.32,10.96 2.23,2.54 4.44,3.08 7.66,2.69 1.43,-0.17 1.58,-0.14 3.06,0.01 -2.56,-3.96 -6.85,-3.35 -8.97,-4.28 -0.8,-0.35 -2.43,-1.15 -1.53,-2.23 0.83,-0.39 1.37,0.17 2.41,0.36 -0.38,-0.78 -1.5,-2.29 -0.96,-3.19 0.62,-0.56 1.62,1.11 3.02,2.11 2.37,1.69 7.02,2.56 9.35,6.91 0.55,0.01 0.13,0.06 0.29,-0.21z"/>
  <path class="fil0" d="M11.61 28.45c4.13,4.34 2.01,10.2 6.1,16.98 2.54,4.21 6.01,5.2 10.49,6.81 1.08,0.39 3.24,1.38 4.15,1.53 0.08,-0.7 -0.1,-1.18 -0.36,-1.82l-0.17 -0.22c-0.02,-0.03 -0.05,-0.08 -0.08,-0.11 -0.45,-0.67 -0.3,-0.67 -1.18,-1.23 -1.45,-0.93 -3.9,-1.52 -5.84,-2.41 -8.73,-4.01 -5.13,-12.96 -9.97,-20.14 -0.45,-0.67 -0.9,-0.93 -1.1,-1.69l-0.97 -0.14c-1.04,-0.11 -1.71,-0.19 -2.67,0.12 0.07,0.76 0.36,0.85 0.75,1.25 0.36,0.36 0.58,0.68 0.85,1.07z"/>
  <path class="fil0" d="M22.38 40.32c2.12,1.9 7.63,3.25 10.23,9.22l1.77 4.56c1.51,-3.25 0.22,-6.69 -0.14,-8.75 -0.42,-0.42 -0.54,-1.04 -0.87,-1.53 -0.34,-0.52 -0.55,-0.83 -0.89,-1.34l-3.8 -5.45c-0.5,-0.62 -1.28,-1.98 -2.04,-2.07 -1.55,-0.19 0.52,3.68 0.73,4.63 -1.73,-0.72 -3.85,-1.59 -5.22,-2.88 -0.38,-0.37 -0.89,-1.11 -1.21,-1.37 -1.26,-1.05 -2.18,0.38 -1.01,2.22 1.14,1.79 1.87,1.98 2.45,2.76z"/>
  <path class="fil0" d="M37.71 31.27c0.05,1.21 0.03,2.62 0.6,3.51l1.77 -2.35c0.58,-0.81 1.06,-1.43 1.6,-2.51 1.12,-2.26 1.36,-3.97 0.92,-6.76 -0.4,-0.25 -0.07,-0.19 -0.38,-0.04 -0.31,0.87 0.27,0.47 -0.24,1.29l-0.76 1.45c-0.22,0.41 -0.37,0.71 -0.58,1.13 -0.31,0.63 -0.82,1.75 -1.26,2.33 -1.28,1.71 -0.88,1.76 -1.67,1.95z"/>
  <path class="fil7" d="M42.93 66.07c2.41,-0.11 8.52,-2.96 9.23,-4.3 -1.98,0.44 -4.26,0.09 -6.02,0.86 -1.57,0.68 -2.51,1.86 -3.21,3.44z"/>
  <path class="fil8" d="M39.16 66.55c-0.61,0.06 -1.68,0.29 -2.03,0l-0.18 0.41c-0.46,1.29 -1.23,4.88 -0.95,5.91l1.82 -0.09c0.26,-0.57 0.33,-2.38 0.51,-3.22 0.22,-1.07 0.63,-2.04 0.83,-3.01z"/>
 </g>
</svg>
