<?xml version="1.0" encoding="UTF-8"?>
<!DOCTYPE svg PUBLIC "-//W3C//DTD SVG 1.0//EN" "http://www.w3.org/TR/2001/REC-SVG-20010904/DTD/svg10.dtd">
<!-- Creator: CorelDRAW 2020 (64-Bit) -->
<svg xmlns="http://www.w3.org/2000/svg" xml:space="preserve" width="2639px" height="2613px" version="1.0" style="shape-rendering:geometricPrecision; text-rendering:geometricPrecision; image-rendering:optimizeQuality; fill-rule:evenodd; clip-rule:evenodd"
viewBox="0 0 150.55 149.08"
 xmlns:xlink="http://www.w3.org/1999/xlink"
 xmlns:xodm="http://www.corel.com/coreldraw/odm/2003">
 <defs>
  <style type="text/css">
   <![CDATA[
    .fil23 {fill:#051B05}
    .fil8 {fill:#061E02}
    .fil17 {fill:#062003}
    .fil1 {fill:#081E03}
    .fil3 {fill:#081E04}
    .fil20 {fill:#091A01}
    .fil13 {fill:#091D05}
    .fil19 {fill:#092005}
    .fil22 {fill:#0B1F05}
    .fil18 {fill:#0C1C05}
    .fil24 {fill:#0D1A01}
    .fil10 {fill:#668D4E}
    .fil11 {fill:#668D52}
    .fil12 {fill:#6B8D55}
    .fil2 {fill:#BA8E59}
    .fil5 {fill:#BC9462}
    .fil7 {fill:#E4D4B4}
    .fil6 {fill:#E9D6B6}
    .fil0 {fill:#FAECD3}
    .fil14 {fill:#FDEEDA}
    .fil16 {fill:#FDF5E1}
    .fil21 {fill:#FEF2D9}
    .fil4 {fill:#FEF2DC}
    .fil9 {fill:#FEF2DE}
    .fil15 {fill:#FEF5DD}
   ]]>
  </style>
 </defs>
 <g id="Слой_x0020_1">
  <metadata id="CorelCorpID_0Corel-Layer"/>
  <path class="fil0" d="M53.11 135.71c-2.92,0.01 -2.25,-2.3 -2.24,-4.98 0,-2.09 -0.45,-12.73 0.57,-13.79 0.77,-0.8 4.05,-1.48 4.05,1.67l-0.03 11.43c0.11,3.07 3.97,-0.08 5.67,1.95 0.77,0.93 0.63,2.36 -0.1,3.1 -1.08,1.08 -6,0.62 -7.92,0.62zm-12.41 -19.36c3.02,-0.86 3.06,1.69 3.07,4.16 0.05,14.61 -0.74,10.05 4.35,10.87 2.39,0.38 2.18,3.67 0.13,4.22 -0.6,0.16 -6.74,0.16 -7.43,0.03 -2.24,-0.44 -1.64,-3.54 -1.65,-5.85 -0.01,-2.55 0.02,-5.07 0.03,-7.61 0.01,-2.33 -0.56,-5.23 1.5,-5.82zm63.31 14.36c3.39,-1.74 5.73,3.77 2.39,5.05 -3.52,1.34 -5.67,-3.37 -2.39,-5.05zm-36 -14.33c5.15,-1.25 8.59,3.53 8.77,8.18 0.2,5.55 -0.95,10.41 -5.86,11.39 -5.28,1.06 -8.68,-3.17 -8.81,-8.07 -0.14,-5.52 1.03,-10.31 5.9,-11.5zm-38.99 -0.13c2.72,-0.6 5.01,0.63 6.35,2.03 1.35,1.4 2.36,3.69 2.52,6.28 0.33,5.67 -1.14,10.62 -6.18,11.42 -9.41,1.48 -11.06,-10.76 -7.99,-16.11 1.37,-2.38 2.77,-3.06 5.3,-3.62zm80.99 0.93c0.01,-3.03 -0.77,-6.85 5,-5.98 1.38,0.21 1.53,0.51 2.09,1.65 1.26,2.59 3.15,8.79 4.46,10.55l2.69 -6.15c0.71,-1.77 1.7,-4.84 2.92,-5.63 1.97,-1.27 5.51,-0.43 6.07,1.7 0.29,1.1 0.12,13.94 0.1,16.22 -0.01,2.47 0.52,5.47 -1.5,6.24 -1.1,0.42 -2.47,0.15 -3.14,-0.55 -1.02,-1.05 -0.62,-8.53 -0.67,-11.06 -0.66,0.61 -1.16,2.3 -1.57,3.37 -1.35,3.49 -2.48,8.48 -5.11,8.33 -3.22,-0.19 -4.02,-9.55 -6.15,-11.81l-0.01 4.29c0.01,3.8 0.78,7.26 -1.97,7.58 -3.04,0.35 -3.21,-1.4 -3.21,-4.01l0 -14.74zm-23.18 7.08c0.25,-2.49 0.19,-3.96 1.64,-5.7 4.99,-5.99 14.85,0.52 11.55,3.68 -0.59,0.57 -2.33,0.79 -3.18,0.18 -0.82,-0.59 -0.34,-1.35 -1.94,-1.68 -2.72,-0.56 -3.31,1.53 -3.3,3.8 0,2.01 -0.5,5.45 0.95,6.45 0.77,0.53 1.9,0.58 2.77,0.13 0.99,-0.52 1.14,-1.2 1.15,-2.66 -1.31,0.02 -2.19,0.23 -2.94,-0.59 -0.55,-0.59 -0.83,-1.53 -0.49,-2.38 0.65,-1.64 3.96,-1.1 5.72,-1.09 2.83,0.02 2.29,2.14 2.25,4.67 -0.13,6.72 -7.25,8.71 -12.38,5.36 -2.71,-1.76 -5.09,-6.89 -6.21,-7.49 0.12,1.64 0.02,3.33 0.03,4.98 0.01,2.68 0.16,2.04 -0.98,3.83 -4.64,0.38 -3.57,-2.45 -3.57,-6.45 0,-3.33 -0.01,-6.67 0,-9.99 0,-1.65 0.26,-2.9 2.07,-2.9 2.86,0.01 3.6,4.59 6.86,7.85zm24.12 -21.41c-0.74,-0.67 -1.93,-0.63 -3.18,-0.57 -0.89,0.3 -2.16,1.59 -3.14,2.25 -13.67,9.22 -31.21,10.62 -46.84,5.11 -2.61,-0.92 -5.03,-2.06 -7.37,-3.32 -1.15,-0.63 -2.24,-1.27 -3.22,-2.01 -0.67,-0.5 -2.64,-1.84 -2.91,-2.17 -0.46,0.11 -1.29,0.27 -1.69,0.45 -0.49,0.23 -0.24,0.05 -0.58,0.41 -0.37,0.4 0.06,-0.15 -0.29,0.47 1,0.65 3.35,2.37 3.01,4.14 -0.2,1.04 -1.06,1.64 -2.32,1.56 -1.1,-0.07 -1.61,-0.67 -2.39,-1.25 -3.25,-2.42 -6.12,-4.99 -8.77,-7.87 -3.59,-3.89 -8.87,-12.52 -10.44,-17.15 -0.59,0.52 -0.55,-0.81 -0.47,0.93l0.37 0.14c-0.6,-0.73 -0.19,-0.46 -1.54,-0.49l-0.01 1.85c-1.02,0.22 -0.47,0.08 -0.95,0.48 -0.03,1.48 0.07,1.37 -0.77,2.11 -0.77,0.68 -1.1,0.71 -1.15,1.97 -0.76,0.03 -0.76,0.11 -1.4,0.24 0.12,1.09 -0.47,1.23 0.47,0.88l-3.97 0.26 7.72 0.46c0.55,0.6 1.23,1.17 0.72,2.14 -0.42,0.79 -1.2,1.05 -2.37,1.03 -1.89,-0.04 -4.75,0.29 -6.33,-0.32 -0.14,0.16 -1.02,0.36 0.6,1.19l-0.33 0.16c-0.04,0.02 -0.11,0.05 -0.16,0.08 -1.33,0.73 -1.07,3.8 -0.85,4.73 0.3,1.24 -0.05,-0.25 0.38,0.76 0.26,0.62 -0.05,1.2 0.31,1.71 0.65,-1.56 1.43,-1.31 3.28,-1.31 1.5,0 3.01,0 4.51,-0.01 3.24,-0.01 7.37,-0.68 7.57,1.54 0.24,2.72 -4.82,1.79 -7.09,1.79 -1.98,0 -7.08,0.66 -7.95,-0.59 -0.2,0.89 -0.2,0.65 0.28,1.1 -0.96,0.02 -2.11,-0.09 -2.5,0.09 -0.47,0.94 -0.47,4.24 -0.26,5.12 0.36,0.04 0.96,0.01 1.17,0.05 0.72,0.12 0.19,0.02 0.7,0.2 0.08,0.02 0.19,0.19 0.24,0.12 0.05,-0.07 0.16,0.08 0.24,0.13 3.81,0.71 5.29,1.64 7.21,4 1.61,1.97 2.55,5.31 2.68,8.39 0.31,7.14 -2.89,12.05 -8.89,13.25 0.9,0.77 0.65,-0.27 1.94,0.18 1.02,0.36 -0.16,0.54 2.36,0.54 0.03,1.64 0.22,0.67 2.01,1.53 1.56,0.75 1.17,-0.51 4.42,0.8l1.9 0.73c1,0.4 1.14,0.32 2.36,0.47 0.62,0.08 1,0.03 1.6,0.06 1.6,0.08 1.08,0.6 3.33,0.5 1.29,-0.06 0.85,-0.18 1.52,-0.36 1.08,-0.27 4.72,0.15 4.88,0.13 0.77,-0.12 0.64,-0.4 0.96,-0.89 1.92,0 1.27,-0.05 1.64,0.43l0.5 0.71c36.37,0 37.92,3.21 63.71,2.87 1.35,-0.02 1.65,-0.25 3.07,-0.25 1.11,0 2.22,0 3.34,0l4.95 -0.05c0.87,-0.26 0.13,-0.35 1.04,-0.61 0.12,-0.04 6.12,-0.31 6.6,-0.31 1.5,-0.29 -1.46,0.6 0.67,-0.52 0.7,-0.36 2.56,-0.43 3.62,-0.43 0.01,-0.94 -0.05,-0.49 0.23,-0.92l5.46 -0.05 0.03 -1.62c1.61,0 2.18,-0.23 3.79,-0.26l0.02 -1.87 2.03 -0.32c0.05,-0.02 0.11,-0.06 0.16,-0.08 1.37,-0.58 0.8,-0.11 2.04,-0.34 0.08,-0.01 0.14,-0.03 0.21,-0.05 0.07,-0.01 0.13,-0.04 0.19,-0.06l0.36 -0.18c-1.4,-0.02 -3.04,-0.18 -4.37,-0.29 -1.7,-0.15 -2.65,-0.4 -3.1,-1.73 -0.38,-1.12 -0.22,-16.36 -0.23,-18.85 -0.03,-4.07 1.75,-3.99 5.66,-3.98l-1.15 -0.61c-0.45,-0.18 -0.42,-0.14 -0.75,-0.32l0.02 -5.31c1.02,-0.2 2.1,0.28 0.91,-0.47 -1.69,-0.39 -5.94,-0.1 -7.95,-0.1 -3.06,0 -6.45,0.6 -6.96,-1.09 -1.21,-4.02 8.91,-1.32 12.01,-2.46l0.13 -0.39c0.21,-0.79 0.48,0.06 0.93,-0.96 -0.48,-1.05 0.41,-0.32 -0.95,-0.71 -0.02,-4.53 0.12,-3.55 -2.84,-4.04l4.75 -0.3c0.05,-0.09 0.15,-0.06 0.21,-0.1l-5.64 0.05c-0.7,-0.14 -0.25,0.16 -0.69,-0.3 -1.42,-0.86 -1.78,-1.85 -0.48,-3.18 0.44,-0.38 0.05,-0.15 0.7,-0.36 0.71,-0.23 6.59,-0.09 7.41,-0.09 -0.69,-0.33 -0.32,-0.52 -0.41,-1.24 -0.09,-0.79 -0.35,-0.58 -0.37,-2.07 -0.02,-0.8 0.08,-1.85 -0.01,-2.62 -0.2,-1.66 -0.49,-0.18 -0.26,-1.62 -2.7,0.15 -2.43,-1.15 -2.21,-2.94 -0.25,-1.21 -0.34,-1.34 -0.34,-2.81 -2.4,-0.06 0.52,-0.9 -1.89,-0.96l0 -1.66c-0.05,-0.04 -0.14,-0.05 -0.18,-0.07 -0.04,-0.01 -0.13,-0.04 -0.18,-0.06 -0.04,-0.02 -0.12,-0.05 -0.17,-0.07 -0.41,-0.19 -0.18,-0.05 -0.45,-0.24 -0.35,-0.25 0.02,0.05 -0.3,-0.3l-0.16 -0.21c-0.75,1.64 -1.35,4.75 -2.09,6.67 -3.86,10.03 -10.63,19.92 -19,26.18 -0.92,0.69 -1.6,1.34 -2.8,1.73 -1.44,0.47 -2.67,-0.15 -2.86,-1.38 -0.39,-2.56 3.09,-3.12 3.79,-4.75z"/>
  <path class="fil1" d="M65.66 41.73c-0.06,2.93 -0.58,4.75 0.25,7.77 1.33,4.85 3.54,6.88 5.57,11.04 5.35,10.91 4.15,23.3 0.39,34.17 -0.23,0.37 0.35,0.3 -0.41,0.3 -3.23,-6.04 -9.68,-7.25 -12.97,-9.59 -1.95,-1.39 -3.34,-3.71 -4.19,-2.94 -0.75,1.26 0.81,3.35 1.32,4.44 -1.43,-0.26 -2.19,-1.05 -3.34,-0.51 -1.24,1.51 1.01,2.61 2.12,3.09 2.95,1.3 8.9,0.46 12.45,5.95 -2.05,-0.22 -2.27,-0.25 -4.24,-0.02 -4.47,0.54 -7.54,-0.2 -10.64,-3.73 -3.24,-3.69 -4.6,-8.86 -4.6,-15.21 -0.48,-0.9 -1.35,-1.83 -2.67,-1.24 -1.04,0.85 -0.68,2.84 -0.58,4.38 0.09,1.54 0.28,2.95 0.43,4.47 1.07,6.79 5.1,12.1 10.47,14.3 8.92,3.65 13.6,-5.26 14.52,9.61 -5.59,-0.39 -13.58,-3.51 -17.63,-6.03 -9.93,-6.17 -17.09,-14.53 -21.03,-25.55 -6.44,-18.02 -1.59,-38.91 12.6,-51.59 4.67,-4.17 7.69,-6.6 14,-9.29 32.92,-14.04 65.66,12.01 66.29,42.69 0.16,7.84 -0.88,13.49 -3.49,20.1 -1.77,4.48 -5.87,11.21 -8.96,14.34 -4.67,4.73 -7.02,7.03 -12.92,10.37 -3.75,2.12 -14.27,5.7 -17.87,5.24 0.05,-2.88 1.27,-7.49 2.75,-9.22 0.98,-2.19 2.28,-3.83 4.47,-4.78 2.44,-1.06 5.59,-0.58 8.35,-1.19 2.52,-0.91 3.3,-0.81 5.53,-2.27 3.26,-2.14 5.56,-4.85 7.21,-8.48l2.08 -5.78c-0.03,-1.33 0.4,-2.89 0.44,-4.3 0.04,-1.5 0.41,-8.36 -0.72,-9.07 -1.49,-0.94 -2.71,0.61 -3.05,1.46 0.97,6.33 -0.71,14.8 -3.88,18.99 -1.63,2.15 -3.42,3.94 -6.57,5.04 -2.08,0.72 -3.11,0.36 -4.66,0.61 -1.75,0.28 -3.3,0.42 -5.12,0.8 0.26,-0.9 2.4,-3.42 3.04,-4.08 3.18,-3.26 6.58,-3.35 9.93,-4.81 1.36,-0.59 3.87,-2.13 2.29,-3.82 -1.03,-0.25 -2.39,0.72 -3.66,1.09 0.49,-1.48 2.75,-5.3 0.2,-5.7 -0.63,0.54 -1.17,1.75 -1.84,2.57 -2.85,3.46 -4.32,3.84 -7.87,6.38 -2.55,1.83 -4.87,4.95 -6.41,7.63 -0.63,1.08 -0.8,2.37 -1.44,3.33 -0.09,0.86 -1.24,2.39 -1.76,3.45 -0.32,0.66 -1.43,3.16 -1.79,3.6 -0.27,1.34 -0.84,2.69 -1.15,4.17 -0.24,1.17 -0.34,3.69 -0.71,4.48l-2.52 0.12c-0.4,-1.43 0.67,-6.42 1.32,-8.21l0.25 -0.56c0.33,-2.88 3.45,-10.24 4.31,-20.11 0.25,-2.83 -0.24,-5.12 0.37,-7.87 0.92,-4.14 3.52,-8.51 5.78,-10.65 2.85,-2.71 6.21,-4.32 9.88,-6.61 0.04,-0.05 0.1,-0.12 0.13,-0.16l0.4 -0.41c1.14,-0.98 1.04,-0.7 2.63,-2.35 3.1,-3.23 1.51,-6.13 -0.86,-3.72 -2.19,2.22 -4.65,3.83 -7.95,4.79 0.32,-1.27 2.71,-5.14 1.61,-6.19 -0.43,-0.45 -0.22,-0.55 -1.09,-0.12 -0.66,0.32 -1.71,1.88 -2.37,2.65 -1.04,1.22 -7.84,10.73 -8.41,11.08l-1.84 3.96c-0.51,-0.54 -0.66,-1.34 -0.91,-2.04 -2.62,-7.28 -2.89,-8.18 -0.99,-15.06 0.23,-1.5 1.2,-2.87 1.85,-4.68 0.45,-1.27 0.18,-1.12 0.16,-1.27l-0.12 -0.34c-1.57,-0.95 -2.66,2.37 -4.12,3.3 0.01,-2.04 -0.05,-3.62 0.4,-5.6 0.2,-0.9 1.2,-3.45 0.82,-4.01 -0.64,-0.73 -1.3,-0.07 -1.82,0.64 -3.12,4.3 -3.53,9.36 -3.01,14.75 0.11,1.06 0.28,1.36 0.49,2.26 -0.53,-0.82 -1,-1.31 -1.54,-2.29 -1.19,-2.16 -2.09,-4.32 -2.68,-6.54 -0.29,-1.11 -0.24,-1 -0.7,-1.42zm-21.37 60.41c0.27,0.33 2.24,1.67 2.91,2.17 0.98,0.74 2.07,1.38 3.22,2.01 2.34,1.26 4.76,2.4 7.37,3.32 15.63,5.51 33.17,4.11 46.84,-5.11 0.98,-0.66 2.25,-1.95 3.14,-2.25 0.33,-0.44 0.19,-0.33 0.77,-0.75 0.51,-0.38 0.33,-0.15 0.8,-0.61 6.86,-6.54 12.62,-14.09 15.81,-23.42 4.08,-11.98 4.09,-23.51 -0.26,-35.43 -1.54,-4.22 -4.73,-10.19 -7.37,-13.55 -10.15,-12.97 -23.14,-21.14 -41.59,-21.15 -13.06,0 -22.93,4.67 -31.34,10.73l-9.18 9.13c-0.38,0.5 -0.62,1.01 -1.04,1.58 -10.84,14.66 -13.51,30.83 -7.58,48.84 1.75,5.32 4.52,9.91 7.23,13.69 0.8,1.12 1.46,1.93 2.26,2.98l3.8 4.04c0.57,0.54 0.7,0.8 1.22,1.39 0.79,0.87 1.67,1.19 2.69,2.11 0.04,0.03 0.12,0.19 0.15,0.14 0.02,-0.04 0.1,0.1 0.15,0.14z"/>
  <path class="fil2" d="M44.55 84.1c-1.14,-0.76 -3.65,-5.8 -4.46,-7.61 -2.68,-5.93 -3.83,-13.9 -2.93,-20.44 0.24,-1.68 0.6,-3.24 1.04,-4.87 0.25,-0.91 0.82,-3.75 1.62,-4.33 -0.38,-0.54 -0.69,-0.97 -1.18,-1.48 -0.54,-0.55 -0.95,-0.68 -1.04,-1.73 1.33,-0.44 2.26,-0.32 3.7,-0.16 0.12,-1.3 3.72,-6.29 4.91,-7.59 0.59,-0.65 0.8,-1.1 1.42,-1.66 2.26,-2.03 2.02,-2.18 4.91,-4.37 10.64,-8.07 26.05,-10.82 38.71,-5.01 3.34,1.54 13.15,7.54 14.16,10.59l3.91 -0.37c1.47,-0.1 3.79,-0.64 4.98,0.47 0.09,1.37 -1.34,1.79 -2.14,2.6 -0.6,0.62 -1.88,2.12 -2.28,3.07 1.05,0.88 2.89,5.65 3.38,7.49 0.98,3.66 1.3,5.74 1.48,9.77 0.17,3.6 -0.09,7.28 -0.81,10.47 -0.46,2.06 -1.06,4.43 -2.03,6.26 -0.65,1.24 -0.65,1.55 -0.98,1.37l-2.08 5.78c-1.65,3.63 -3.95,6.34 -7.21,8.48 -2.23,1.46 -3.01,1.36 -5.53,2.27 -0.99,1.86 -9.47,5.81 -12.82,5.97 -1.48,1.73 -2.7,6.34 -2.75,9.22 3.6,0.46 14.12,-3.12 17.87,-5.24 5.9,-3.34 8.25,-5.64 12.92,-10.37 3.09,-3.13 7.19,-9.86 8.96,-14.34 2.61,-6.61 3.65,-12.26 3.49,-20.1 -0.63,-30.68 -33.37,-56.73 -66.29,-42.69 -6.31,2.69 -9.33,5.12 -14,9.29 -14.19,12.68 -19.04,33.57 -12.6,51.59 3.94,11.02 11.1,19.38 21.03,25.55 4.05,2.52 12.04,5.64 17.63,6.03 -0.92,-14.87 -5.6,-5.96 -14.52,-9.61 -5.37,-2.2 -9.4,-7.51 -10.47,-14.3z"/>
  <path class="fil3" d="M17.36 48.17c0.24,2.82 -1.56,7.2 -1.01,13.75 0.13,1.6 0.06,3.48 0.27,4.98 0.65,4.7 2.29,11.83 4.2,16 1.57,4.63 6.85,13.26 10.44,17.15 2.65,2.88 5.52,5.45 8.77,7.87 0.78,0.58 1.29,1.18 2.39,1.25 1.26,0.08 2.12,-0.52 2.32,-1.56 0.34,-1.77 -2.01,-3.49 -3.01,-4.14 -1.11,-0.52 -6.11,-5.7 -7.16,-6.73 -4.15,-4.07 -8.99,-13.46 -10.83,-19.13 -4.29,-13.21 -3.81,-24.23 0.69,-36.89 3.82,-10.76 11.62,-19.75 18.45,-25.04l6.62 -4.32c2.34,-1.21 4.91,-2.38 7.53,-3.4 22.84,-8.9 48.51,-0.45 62.26,18.09 6.53,8.81 11.45,20.25 11.73,31.7 0.31,13.4 -2.84,23.17 -9.66,33.79 -2.1,3.27 -7.5,9.81 -10.41,11.31 -0.7,1.63 -4.18,2.19 -3.79,4.75 0.19,1.23 1.42,1.85 2.86,1.38 1.2,-0.39 1.88,-1.04 2.8,-1.73 8.37,-6.26 15.14,-16.15 19,-26.18 0.74,-1.92 1.34,-5.03 2.09,-6.67 0.74,-5.91 1.66,-6.81 1.69,-14.26 0.02,-6.28 -1.64,-12.98 -1.55,-14.18 -0.34,-0.32 -2.99,-8.33 -3.5,-9.55 -2.56,-6.14 -7.11,-12.99 -11.57,-17.9 -0.68,-0.75 -1.03,-0.76 -1.71,-1.62l-3.48 -3.17c-11.06,-9.39 -23.84,-13.75 -39.05,-13.72 -15.16,0.03 -29.86,7.33 -37.91,14.86 -0.55,0.52 -1.09,0.92 -1.67,1.43 -0.86,0.73 -0.98,1.1 -1.62,1.7 -2.83,2.64 -6.81,8.08 -8.64,11.33 -2.39,4.26 -4.67,8.76 -6.04,13.69 -0.31,1.14 -0.94,4.48 -1.5,5.16z"/>
  <path class="fil4" d="M55.55 42.79c-0.98,-4.89 6.2,-6.32 7.18,-1.54 1.03,4.98 -6.27,6.07 -7.18,1.54zm28.77 -10.22c-0.26,-4.68 6.06,-4.94 6.77,-0.91 0.34,1.94 -1.21,3.63 -2.8,3.87 -2.05,0.3 -3.87,-1.18 -3.97,-2.96zm-43.02 10.91l1.34 0.18c8.12,0.76 14.69,4.31 19.62,8.04 1.95,1.48 4.7,5.16 6.06,7.74 1.68,3.2 2.46,6.77 2.9,10.88 0.5,2.85 2.3,7.62 0.2,12.14l-2.46 -6.33c-3.6,-8.29 -11.26,-10.16 -14.19,-12.8 -0.23,0.49 2.78,2.59 3.6,3.2 1.61,1.19 2.7,2.16 4.14,3.45 2.46,2.22 4.52,5.2 5.59,9.49 0.36,0.89 0.61,1.56 0.5,2.54 -1.26,-0.22 -4.26,-1.6 -5.76,-2.14 -6.21,-2.23 -11.04,-3.6 -14.56,-9.44 -5.67,-9.41 -2.72,-17.54 -8.46,-23.58 -0.8,0.58 -1.37,3.42 -1.62,4.33 -0.44,1.63 -0.8,3.19 -1.04,4.87 -0.9,6.54 0.25,14.51 2.93,20.44 0.81,1.81 3.32,6.85 4.46,7.61 -0.15,-1.52 -0.34,-2.93 -0.43,-4.47 -0.1,-1.54 -0.46,-3.53 0.58,-4.38 1.32,-0.59 2.19,0.34 2.67,1.24 2.18,1.21 2.5,2.44 7.37,3.44 7.18,1.48 12.92,2.98 15.97,10.62 0.4,1.01 0.87,3.8 1.16,4.16 3.76,-10.87 4.96,-23.26 -0.39,-34.17 -2.03,-4.16 -4.24,-6.19 -5.57,-11.04 -0.83,-3.02 -0.31,-4.84 -0.25,-7.77 0.93,-5.51 4.8,-11.93 8.86,-15.09l3.66 -2.29c0.15,-0.08 0.55,-0.28 0.65,-0.31l0.73 -0.04c0.49,2.29 -0.57,2.68 1.04,8.2 0.63,2.18 1.93,4.97 2.22,7.32 0.61,3.87 0.29,6.24 -1.26,9.37 -0.75,1.51 -1.43,2.36 -2.22,3.49l-2.46 3.26c-0.79,-1.23 -0.77,-3.19 -0.84,-4.87 -0.07,-1.13 0.4,-3 -0.11,-3.84 -1.9,6.88 -1.63,7.78 0.99,15.06 0.25,0.7 0.4,1.5 0.91,2.04l1.84 -3.96c1.12,-6.6 3.27,-12.35 8.43,-16.75 2.62,-2.24 4.12,-3.46 7.63,-4.97 2.53,-1.09 6.71,-2.61 9.68,-2.91 -1.01,-3.05 -10.82,-9.05 -14.16,-10.59 -12.66,-5.81 -28.07,-3.06 -38.71,5.01 -2.89,2.19 -2.65,2.34 -4.91,4.37 -0.62,0.56 -0.83,1.01 -1.42,1.66 -1.19,1.3 -4.79,6.29 -4.91,7.59z"/>
  <path class="fil5" d="M41.73 103.47c0.35,-0.62 -0.08,-0.07 0.29,-0.47 0.34,-0.36 0.09,-0.18 0.58,-0.41 0.4,-0.18 1.23,-0.34 1.69,-0.45 -0.05,-0.04 -0.13,-0.18 -0.15,-0.14 -0.03,0.05 -0.11,-0.11 -0.15,-0.14 -1.02,-0.92 -1.9,-1.24 -2.69,-2.11 -0.52,-0.59 -0.65,-0.85 -1.22,-1.39l-3.8 -4.04c-0.8,-1.05 -1.46,-1.86 -2.26,-2.98 -2.71,-3.78 -5.48,-8.37 -7.23,-13.69 -5.93,-18.01 -3.26,-34.18 7.58,-48.84 0.42,-0.57 0.66,-1.08 1.04,-1.58l9.18 -9.13c8.41,-6.06 18.28,-10.73 31.34,-10.73 18.45,0.01 31.44,8.18 41.59,21.15 2.64,3.36 5.83,9.33 7.37,13.55 4.35,11.92 4.34,23.45 0.26,35.43 -3.19,9.33 -8.95,16.88 -15.81,23.42 -0.47,0.46 -0.29,0.23 -0.8,0.61 -0.58,0.42 -0.44,0.31 -0.77,0.75 1.25,-0.06 2.44,-0.1 3.18,0.57 2.91,-1.5 8.31,-8.04 10.41,-11.31 6.82,-10.62 9.97,-20.39 9.66,-33.79 -0.28,-11.45 -5.2,-22.89 -11.73,-31.7 -13.75,-18.54 -39.42,-26.99 -62.26,-18.09 -2.62,1.02 -5.19,2.19 -7.53,3.4l-6.62 4.32c-6.83,5.29 -14.63,14.28 -18.45,25.04 -4.5,12.66 -4.98,23.68 -0.69,36.89 1.84,5.67 6.68,15.06 10.83,19.13 1.05,1.03 6.05,6.21 7.16,6.73z"/>
  <path class="fil6" d="M11.9 80.47c2.19,-1.09 3.44,2.29 1.62,3.1 -2.31,1.03 -3.44,-2.19 -1.62,-3.1zm-6.81 32.32c0.55,-0.13 0.48,-0.17 1.1,-0.45 0.4,-0.18 0.91,-0.38 1.4,-0.52 1.14,-0.31 2.31,-0.43 3.69,-0.38 -0.08,-0.05 -0.19,-0.2 -0.24,-0.13 -0.05,0.07 -0.16,-0.1 -0.24,-0.12 -0.51,-0.18 0.02,-0.08 -0.7,-0.2 -0.21,-0.04 -0.81,-0.01 -1.17,-0.05 -0.21,-0.88 -0.21,-4.18 0.26,-5.12 0.39,-0.18 1.54,-0.07 2.5,-0.09 -0.48,-0.45 -0.48,-0.21 -0.28,-1.1l-0.32 -1.42c-0.36,-0.51 -0.05,-1.09 -0.31,-1.71 -0.43,-1.01 -0.08,0.48 -0.38,-0.76 -0.22,-0.93 -0.48,-4 0.85,-4.73 0.05,-0.03 0.12,-0.06 0.16,-0.08l0.33 -0.16c-1.62,-0.83 -0.74,-1.03 -0.6,-1.19 -0.59,-1.03 -1.05,-1.89 0.13,-2.63 0.95,-0.6 6.37,-0.35 7.85,-0.22l-7.72 -0.46 3.97 -0.26c-0.94,0.35 -0.35,0.21 -0.47,-0.88 0.64,-0.13 0.64,-0.21 1.4,-0.24 0.05,-1.26 0.38,-1.29 1.15,-1.97 0.84,-0.74 0.74,-0.63 0.77,-2.11 0.48,-0.4 -0.07,-0.26 0.95,-0.48l0.01 -1.85c1.35,0.03 0.94,-0.24 1.54,0.49l-0.37 -0.14c-0.08,-1.74 -0.12,-0.41 0.47,-0.93 -1.91,-4.17 -3.55,-11.3 -4.2,-16 -0.21,-1.5 -0.14,-3.38 -0.27,-4.98 -0.55,-6.55 1.25,-10.93 1.01,-13.75l-0.57 1.34c-0.43,-0.46 0.14,-0.06 -1.95,-0.07l-0.47 0.95 -3.33 0.06c-0.62,0.9 -0.83,1.38 -2.1,2.08l-0.05 3.33 -0.97 0.36 -0.45 1.77c-0.04,0.02 -0.12,0.06 -0.16,0.08l-0.31 0.17c0,0.54 0.05,1.38 0,1.89 -0.16,1.69 -0.51,0.05 -0.47,3.58l-0.06 1.37c-0.1,0.49 -0.01,0.25 -0.18,0.53l-0.3 -1.61c-0.02,-0.06 -0.04,-0.14 -0.05,-0.19l-0.13 -0.35c0.01,3.19 -0.27,3.99 -0.21,6.9l-0.05 1.86c-0.12,0.51 -0.03,0.28 -0.22,0.56 -0.71,-1.06 0.3,-1.39 -0.72,-1.41 -0.68,-0.01 -0.43,1.05 -0.42,1.83 0.03,1.51 -0.03,3.03 0,4.54 0.01,0.32 0.03,0.6 0.04,0.9 0.01,0.09 0.03,0.31 0.03,0.38 0,0.36 0.01,0.2 -0.04,0.49 -0.19,1.12 -0.2,0.54 -0.1,1.8 0.24,3.11 -0.28,5.46 -0.34,8.36 -0.02,1.06 0.85,1.06 0.13,3.74 -0.38,1.43 0,6.44 0,8.8 0.37,0.82 -0.05,0.07 0.53,0.64 0.23,0.22 0.11,0.51 0.18,0.07 1.37,-0.51 2.7,-0.08 2.03,1.44 -0.25,0.57 -0.16,0.41 -1.46,0.71 -0.05,0.01 -0.15,0.02 -0.22,0.05 0.47,0.47 0.09,-0.4 0.07,0.47l-0.5 7.17 0.55 0.03z"/>
  <path class="fil7" d="M134.05 45.96c-0.09,1.2 1.57,7.9 1.55,14.18 -0.03,7.45 -0.95,8.35 -1.69,14.26l0.16 0.21c0.32,0.35 -0.05,0.05 0.3,0.3 0.27,0.19 0.04,0.05 0.45,0.24 0.05,0.02 0.13,0.05 0.17,0.07 0.05,0.02 0.14,0.05 0.18,0.06 0.04,0.02 0.13,0.03 0.18,0.07l0 1.66c2.41,0.06 -0.51,0.9 1.89,0.96 0,1.47 0.09,1.6 0.34,2.81 3.39,-1.37 4.43,1.47 2.21,2.94 -0.23,1.44 0.06,-0.04 0.26,1.62 0.09,0.77 -0.01,1.82 0.01,2.62 0.02,1.49 0.28,1.28 0.37,2.07 0.09,0.72 -0.28,0.91 0.41,1.24 -0.82,0 -6.7,-0.14 -7.41,0.09 -0.65,0.21 -0.26,-0.02 -0.7,0.36 1.72,-0.19 3.5,-0.08 5.23,-0.09 1.58,-0.01 3.52,-0.35 3.74,1.37 0.24,1.85 -1.54,1.9 -3.02,1.88 -1.82,-0.03 -3.69,0.07 -5.47,0.02 0.44,0.46 -0.01,0.16 0.69,0.3l5.64 -0.05c-0.06,0.04 -0.16,0.01 -0.21,0.1l-4.75 0.3c2.96,0.49 2.82,-0.49 2.84,4.04 1.36,0.39 0.47,-0.34 0.95,0.71 -0.45,1.02 -0.72,0.17 -0.93,0.96l-0.13 0.39c0.67,0.43 4.96,-0.4 4.1,2.32 -0.21,0.64 -0.64,0.85 -1.2,1.33 1.19,0.75 0.11,0.27 -0.91,0.47l-0.02 5.31c0.33,0.18 0.3,0.14 0.75,0.32l1.15 0.61 5.84 -0.25c0.05,-0.05 0.13,-0.17 0.16,-0.12l1.07 -0.56c0.02,-0.01 0.09,-0.04 0.13,-0.06 -0.56,-1.09 0.05,-4.32 -0.4,-5.79l-0.51 -1.2c-0.07,0.24 0.15,0.94 -1.4,0.77 -0.71,-0.08 -0.61,-0.16 -0.74,-0.22 -0.08,-0.2 -0.16,0.23 -0.17,-0.72 -0.01,-0.98 -0.03,-0.4 0.17,-0.94 0.78,-0.29 0.64,-0.22 1.66,-0.24 0.15,0.27 0.15,0.3 0.35,0.63l0.45 0.66c-0.01,-0.69 0.05,-0.48 0.11,-0.88 0.07,-0.47 0.07,-0.34 0.06,-0.57 -0.01,-0.47 -0.04,0.05 -0.06,-0.5l-0.19 -4.81c-0.2,-2.36 -0.04,-5.86 -0.01,-8.31l-0.12 -5.83c-0.02,-0.05 -0.06,-0.11 -0.08,-0.15 -0.03,-0.05 -0.08,-0.1 -0.1,-0.14 -0.42,-0.69 -0.39,-0.24 -0.43,-1.23 -0.12,-2.73 -0.24,-5.17 -0.24,-8.1l0.92 -0.48 -0.04 -5.23c-0.26,-0.14 -0.25,-0.09 -0.41,-0.17 -0.6,-0.31 -0.17,-0.05 -0.52,-0.3l0 -1.43 -0.91 -0.19 -0.03 -7.6 -1.84 -0.06 0 -2.61 -0.95 -0.24 -0.04 -2.61 -0.7 -0.42c-0.04,-0.04 -0.08,-0.1 -0.12,-0.13l-1.27 -1.36c-0.29,-0.29 -0.2,-0.17 -0.49,-0.46l-1.42 -1.68 -2.37 0.01c-0.83,-1.36 0.37,-0.9 -1.19,-0.95l-0.06 -1.86c-1.36,0.03 -0.79,0.55 -1.13,-0.42l-0.11 0.7z"/>
  <path class="fil8" d="M110.01 117.18l0 14.74c0,2.61 0.17,4.36 3.21,4.01 2.75,-0.32 1.98,-3.78 1.97,-7.58l0.01 -4.29c2.13,2.26 2.93,11.62 6.15,11.81 2.63,0.15 3.76,-4.84 5.11,-8.33 0.41,-1.07 0.91,-2.76 1.57,-3.37 0.05,2.53 -0.35,10.01 0.67,11.06 0.67,0.7 2.04,0.97 3.14,0.55 2.02,-0.77 1.49,-3.77 1.5,-6.24 0.02,-2.28 0.19,-15.12 -0.1,-16.22 -0.56,-2.13 -4.1,-2.97 -6.07,-1.7 -1.22,0.79 -2.21,3.86 -2.92,5.63l-2.69 6.15c-1.31,-1.76 -3.2,-7.96 -4.46,-10.55 -0.56,-1.14 -0.71,-1.44 -2.09,-1.65 -5.77,-0.87 -4.99,2.95 -5,5.98z"/>
  <path class="fil9" d="M82.3 72.3c0.04,-2.21 0.96,-4.55 1.8,-6.35 0.95,-2 1.91,-3.34 3.22,-4.63 2.47,-2.43 5.03,-3.86 7.73,-6.11 0.57,-0.47 1.22,-0.45 0.53,-0.71 -3.67,2.29 -7.03,3.9 -9.88,6.61 -2.26,2.14 -4.86,6.51 -5.78,10.65 -0.61,2.75 -0.12,5.04 -0.37,7.87 -0.86,9.87 -3.98,17.23 -4.31,20.11 0.49,0.4 1.97,0.08 2.81,0 0.36,-0.44 1.47,-2.94 1.79,-3.6 0.52,-1.06 1.67,-2.59 1.76,-3.45 -0.26,-4.46 0.51,-7.78 2.12,-11.44 3.36,-7.65 8.71,-9.12 15.66,-11.45 5.76,-1.92 5.73,-3.33 8.21,-5.14 0.34,-0.85 1.56,-2.4 3.05,-1.46 1.13,0.71 0.76,7.57 0.72,9.07 -0.04,1.41 -0.47,2.97 -0.44,4.3 0.33,0.18 0.33,-0.13 0.98,-1.37 0.97,-1.83 1.57,-4.2 2.03,-6.26 0.72,-3.19 0.98,-6.87 0.81,-10.47 -0.18,-4.03 -0.5,-6.11 -1.48,-9.77 -0.49,-1.84 -2.33,-6.61 -3.38,-7.49 -0.78,0.77 -2.26,3.61 -2.62,5.11 -1.55,6.54 -2.51,11.53 -6.59,16.45 -0.64,0.76 -1.01,1.5 -1.8,2.24 -0.58,0.55 -1.32,1.45 -1.9,1.9 -3.19,2.51 -11.35,7.27 -14.99,8.13l0.32 -2.74z"/>
  <path class="fil10" d="M105.41 35.44c-2.97,0.3 -7.15,1.82 -9.68,2.91 -3.51,1.51 -5.01,2.73 -7.63,4.97 -5.16,4.4 -7.31,10.15 -8.43,16.75 0.57,-0.35 7.37,-9.86 8.41,-11.08 0.66,-0.77 1.71,-2.33 2.37,-2.65 0.87,-0.43 0.66,-0.33 1.09,0.12 1.1,1.05 -1.29,4.92 -1.61,6.19 3.3,-0.96 5.76,-2.57 7.95,-4.79 2.37,-2.41 3.96,0.49 0.86,3.72 -1.59,1.65 -1.49,1.37 -2.63,2.35l-0.4 0.41c-0.03,0.04 -0.09,0.11 -0.13,0.16 0.69,0.26 0.04,0.24 -0.53,0.71 -2.7,2.25 -5.26,3.68 -7.73,6.11 -1.31,1.29 -2.27,2.63 -3.22,4.63 -0.84,1.8 -1.76,4.14 -1.8,6.35 0.71,-1.04 0.86,-1.16 1.88,-2 0.78,-0.64 1.61,-1.09 2.44,-1.63 1.66,-1.08 3.57,-1.73 5.23,-2.85 9.84,-6.61 9.18,-12.6 11.6,-20.47 1.86,-6.03 4.83,-8.39 5.87,-10.28l-3.91 0.37z"/>
  <path class="fil11" d="M68.1 79.47c-1.07,-4.29 -3.13,-7.27 -5.59,-9.49 -1.44,-1.29 -2.53,-2.26 -4.14,-3.45 -0.82,-0.61 -3.83,-2.71 -3.6,-3.2 -0.81,-1.08 -1.82,-1.34 -3.4,-3.82 -1.63,-2.56 -0.36,-4.54 1.4,-3.09 0.43,0.36 1.15,1.39 1.68,1.9 1.89,1.79 4.84,3 7.24,3.99 -0.29,-1.31 -3.16,-6.68 -1.01,-6.42 1.06,0.13 2.13,2.02 2.83,2.88l5.28 7.56c0.46,0.71 0.76,1.14 1.23,1.86 0.45,0.68 0.62,1.54 1.2,2.13 -0.44,-4.11 -1.22,-7.68 -2.9,-10.88 -1.36,-2.58 -4.11,-6.26 -6.06,-7.74 -4.93,-3.73 -11.5,-7.28 -19.62,-8.04 0.28,1.05 0.91,1.43 1.54,2.36 6.72,9.96 1.72,22.38 13.84,27.94 2.69,1.24 6.09,2.06 8.09,3.34 1.22,0.78 1.02,0.79 1.65,1.72 0.03,0.04 0.08,0.11 0.11,0.15l0.23 0.3z"/>
  <path class="fil1" d="M9.66 117.87c5.99,-1.9 7.17,11.45 2.13,13.12 -3.47,1.15 -5.08,-2.37 -5.41,-5.32 -0.39,-3.45 0.37,-6.88 3.28,-7.8zm-4.57 -5.08c-0.04,0.05 -0.11,0.05 -0.13,0.14l-2.27 2.07c-2.23,2.84 -2.97,8.04 -2.6,11.7 0.55,5.32 2.7,8.51 7.45,10.12 0.52,0.18 -0.21,-0.12 0.36,0.14 0.56,0.25 0.14,-0.04 0.5,0.3l3.88 -0.18c6,-1.2 9.2,-6.11 8.89,-13.25 -0.13,-3.08 -1.07,-6.42 -2.68,-8.39 -1.92,-2.36 -3.4,-3.29 -7.21,-4 -1.38,-0.05 -2.55,0.07 -3.69,0.38 -0.49,0.14 -1,0.34 -1.4,0.52 -0.62,0.28 -0.55,0.32 -1.1,0.45z"/>
  <path class="fil3" d="M86.83 124.26c-3.26,-3.26 -4,-7.84 -6.86,-7.85 -1.81,0 -2.07,1.25 -2.07,2.9 -0.01,3.32 0,6.66 0,9.99 0,4 -1.07,6.83 3.57,6.45 1.14,-1.79 0.99,-1.15 0.98,-3.83 -0.01,-1.65 0.09,-3.34 -0.03,-4.98 1.12,0.6 3.5,5.73 6.21,7.49 5.13,3.35 12.25,1.36 12.38,-5.36 0.04,-2.53 0.58,-4.65 -2.25,-4.67 -1.76,-0.01 -5.07,-0.55 -5.72,1.09 -0.34,0.85 -0.06,1.79 0.49,2.38 0.75,0.82 1.63,0.61 2.94,0.59 -0.01,1.46 -0.16,2.14 -1.15,2.66 -0.87,0.45 -2,0.4 -2.77,-0.13 -1.45,-1 -0.95,-4.44 -0.95,-6.45 -0.01,-2.27 0.58,-4.36 3.3,-3.8 1.6,0.33 1.12,1.09 1.94,1.68 0.85,0.61 2.59,0.39 3.18,-0.18 3.3,-3.16 -6.56,-9.67 -11.55,-3.68 -1.45,1.74 -1.39,3.21 -1.64,5.7z"/>
  <path class="fil10" d="M81.6 92.69c0.64,-0.96 0.81,-2.25 1.44,-3.33 1.54,-2.68 3.86,-5.8 6.41,-7.63 3.55,-2.54 5.02,-2.92 7.87,-6.38 0.67,-0.82 1.21,-2.03 1.84,-2.57 2.55,0.4 0.29,4.22 -0.2,5.7 1.27,-0.37 2.63,-1.34 3.66,-1.09 1.58,1.69 -0.93,3.23 -2.29,3.82 -3.35,1.46 -6.75,1.55 -9.93,4.81 -0.64,0.66 -2.78,3.18 -3.04,4.08 1.82,-0.38 3.37,-0.52 5.12,-0.8 1.55,-0.25 2.58,0.11 4.66,-0.61 3.15,-1.1 4.94,-2.89 6.57,-5.04 3.17,-4.19 4.85,-12.66 3.88,-18.99 -2.48,1.81 -2.45,3.22 -8.21,5.14 -6.95,2.33 -12.3,3.8 -15.66,11.45 -1.61,3.66 -2.38,6.98 -2.12,11.44z"/>
  <path class="fil6" d="M18.13 143.32l0.97 0.99c0.36,-0.32 0.33,-0.11 0.5,-0.66 1.51,0.02 1.84,0.36 2.64,0.25l1.16 -0.16c3.23,-1.11 3.88,2.8 0.71,2.86 0.45,0.35 0.57,0.23 1.32,0.38 0.15,1.75 -0.29,-0.13 -0.13,0.58 2,-0.09 -1.07,-0.36 1.21,-0.71 0.33,0.97 -0.01,-0.02 0.32,0.66l0.37 0.77 4.38 0.4c0.05,0.02 0.11,0.05 0.16,0.07 0.95,0.3 1.02,0.22 2.11,0.21 2.39,-0.03 4.95,-0.19 7.29,0.12l86.89 -0.1c0.82,-0.1 5.76,-1.57 6.1,-6.3 0.34,-4.74 -5.59,-0.96 -5.62,-1 -4.36,0.36 -82.3,0.23 -86.81,0.23l-0.5 -0.71c-0.37,-0.48 0.28,-0.43 -1.64,-0.43 -0.32,0.49 -0.19,0.77 -0.96,0.89 -0.16,0.02 -3.8,-0.4 -4.88,-0.13 -0.67,0.18 -0.23,0.3 -1.52,0.36 -2.25,0.1 -1.73,-0.42 -3.33,-0.5 -0.6,-0.03 -0.98,0.02 -1.6,-0.06 -1.22,-0.15 -1.36,-0.07 -2.36,-0.47l-1.9 -0.73c-3.25,-1.31 -2.86,-0.05 -4.42,-0.8 -1.79,-0.86 -1.98,0.11 -2.01,-1.53 -2.52,0 -1.34,-0.18 -2.36,-0.54 -1.29,-0.45 -1.04,0.59 -1.94,-0.18l-3.88 0.18 -0.73 0.02c0.53,1.31 -0.5,-0.55 0.23,0.39 0.73,0.92 0.54,0.91 0.56,2.8 0.98,0.49 -0.27,-0.19 0.69,0.07 1.04,0.28 0.32,-0.16 0.9,1.18l0.23 0.46c0.28,0.45 0.12,0.16 0.28,0.37l-1.63 0.29c1.48,-0.01 3,0 4.49,0.01 0.8,0 1.57,0.04 2.37,0.03 1.22,-0.01 1.6,-0.08 2.34,0.44z"/>
  <path class="fil1" d="M141.18 112.01c-3.91,-0.01 -5.69,-0.09 -5.66,3.98 0.01,2.49 -0.15,17.73 0.23,18.85 0.45,1.33 1.4,1.58 3.1,1.73 1.33,0.11 2.97,0.27 4.37,0.29 1.51,0.02 3.82,0.56 5.34,0.17 1.39,-0.37 2.44,-1.96 1.8,-3.73 -1.05,-2.88 -5.85,-1.62 -9.08,-2.75l-0.02 -3.36c2.73,-0.42 6.94,0.57 6.8,-2.87 -0.15,-3.45 -4.05,-2.14 -6.72,-2.89l-0.07 -3.49c2.16,-0.33 6.98,-0.03 8.2,-1.14 1.93,-1.74 0.76,-5.07 -2.45,-5.04l-5.84 0.25z"/>
  <path class="fil10" d="M65.66 41.73c0.46,0.42 0.41,0.31 0.7,1.42 0.59,2.22 1.49,4.38 2.68,6.54 0.54,0.98 1.01,1.47 1.54,2.29 -0.21,-0.9 -0.38,-1.2 -0.49,-2.26 -0.52,-5.39 -0.11,-10.45 3.01,-14.75 0.52,-0.71 1.18,-1.37 1.82,-0.64 0.38,0.56 -0.62,3.11 -0.82,4.01 -0.45,1.98 -0.39,3.56 -0.4,5.6 1.46,-0.93 2.55,-4.25 4.12,-3.3l0.12 0.34c0.02,0.15 0.29,0 -0.16,1.27 -0.65,1.81 -1.62,3.18 -1.85,4.68 0.51,0.84 0.04,2.71 0.11,3.84 1.1,-0.26 0.54,-0.33 2.32,-2.71 0.61,-0.8 1.31,-2.36 1.75,-3.23 0.29,-0.58 0.5,-1 0.8,-1.56l1.05 -2.01c0.72,-1.14 -0.08,-0.59 0.34,-1.8 0.43,-0.21 -0.03,-0.29 0.52,0.06 -0.29,-2.35 -1.59,-5.14 -2.22,-7.32 -1.61,-5.52 -0.55,-5.91 -1.04,-8.2l-0.73 0.04c-0.1,0.03 -0.5,0.23 -0.65,0.31l-3.66 2.29c-4.06,3.16 -7.93,9.58 -8.86,15.09z"/>
  <path class="fil3" d="M33 128.59c-0.96,4.17 -3.73,2.98 -4.58,2.1 -1.32,-1.37 -1.27,-5.04 -0.9,-7.28 0.39,-2.37 2.96,-3.62 4.59,-1.87 1.04,1.12 1.34,5.13 0.89,7.05zm-3.98 -12.34c-2.53,0.56 -3.93,1.24 -5.3,3.62 -3.07,5.35 -1.42,17.59 7.99,16.11 5.04,-0.8 6.51,-5.75 6.18,-11.42 -0.16,-2.59 -1.17,-4.88 -2.52,-6.28 -1.34,-1.4 -3.63,-2.63 -6.35,-2.03z"/>
  <path class="fil3" d="M109.32 35.07c-1.04,1.89 -4.01,4.25 -5.87,10.28 -2.42,7.87 -1.76,13.86 -11.6,20.47 -1.66,1.12 -3.57,1.77 -5.23,2.85 -0.83,0.54 -1.66,0.99 -2.44,1.63 -1.02,0.84 -1.17,0.96 -1.88,2l-0.32 2.74c3.64,-0.86 11.8,-5.62 14.99,-8.13 0.58,-0.45 1.32,-1.35 1.9,-1.9 0.79,-0.74 1.16,-1.48 1.8,-2.24 4.08,-4.92 5.04,-9.91 6.59,-16.45 0.36,-1.5 1.84,-4.34 2.62,-5.11 0.4,-0.95 1.68,-2.45 2.28,-3.07 0.8,-0.81 2.23,-1.23 2.14,-2.6 -1.19,-1.11 -3.51,-0.57 -4.98,-0.47z"/>
  <path class="fil12" d="M71.87 94.71c-0.29,-0.36 -0.76,-3.15 -1.16,-4.16 -3.05,-7.64 -8.79,-9.14 -15.97,-10.62 -4.87,-1 -5.19,-2.23 -7.37,-3.44 0,6.35 1.36,11.52 4.6,15.21 3.1,3.53 6.17,4.27 10.64,3.73 1.97,-0.23 2.19,-0.2 4.24,0.02 -3.55,-5.49 -9.5,-4.65 -12.45,-5.95 -1.11,-0.48 -3.36,-1.58 -2.12,-3.09 1.15,-0.54 1.91,0.25 3.34,0.51 -0.51,-1.09 -2.07,-3.18 -1.32,-4.44 0.85,-0.77 2.24,1.55 4.19,2.94 3.29,2.34 9.74,3.55 12.97,9.59 0.76,0 0.18,0.07 0.41,-0.3z"/>
  <path class="fil3" d="M39.82 46.85c5.74,6.04 2.79,14.17 8.46,23.58 3.52,5.84 8.35,7.21 14.56,9.44 1.5,0.54 4.5,1.92 5.76,2.14 0.11,-0.98 -0.14,-1.65 -0.5,-2.54l-0.23 -0.3c-0.03,-0.04 -0.08,-0.11 -0.11,-0.15 -0.63,-0.93 -0.43,-0.94 -1.65,-1.72 -2,-1.28 -5.4,-2.1 -8.09,-3.34 -12.12,-5.56 -7.12,-17.98 -13.84,-27.94 -0.63,-0.93 -1.26,-1.31 -1.54,-2.36l-1.34 -0.18c-1.44,-0.16 -2.37,-0.28 -3.7,0.16 0.09,1.05 0.5,1.18 1.04,1.73 0.49,0.51 0.8,0.94 1.18,1.48z"/>
  <path class="fil3" d="M71.97 128.83c-1.04,4.68 -6.67,3.46 -4.97,-5.4 0.64,-3.37 3.4,-2.88 4.42,-1.51 0.85,1.14 0.9,5.32 0.55,6.91zm-3.96 -12.45c-4.87,1.19 -6.04,5.98 -5.9,11.5 0.13,4.9 3.53,9.13 8.81,8.07 4.91,-0.98 6.06,-5.84 5.86,-11.39 -0.18,-4.65 -3.62,-9.43 -8.77,-8.18z"/>
  <path class="fil1" d="M54.77 63.33c2.93,2.64 10.59,4.51 14.19,12.8l2.46 6.33c2.1,-4.52 0.3,-9.29 -0.2,-12.14 -0.58,-0.59 -0.75,-1.45 -1.2,-2.13 -0.47,-0.72 -0.77,-1.15 -1.23,-1.86l-5.28 -7.56c-0.7,-0.86 -1.77,-2.75 -2.83,-2.88 -2.15,-0.26 0.72,5.11 1.01,6.42 -2.4,-0.99 -5.35,-2.2 -7.24,-3.99 -0.53,-0.51 -1.25,-1.54 -1.68,-1.9 -1.76,-1.45 -3.03,0.53 -1.4,3.09 1.58,2.48 2.59,2.74 3.4,3.82z"/>
  <path class="fil3" d="M53.11 135.71c1.92,0 6.84,0.46 7.92,-0.62 0.73,-0.74 0.87,-2.17 0.1,-3.1 -1.7,-2.03 -5.56,1.12 -5.67,-1.95l0.03 -11.43c0,-3.15 -3.28,-2.47 -4.05,-1.67 -1.02,1.06 -0.57,11.7 -0.57,13.79 -0.01,2.68 -0.68,4.99 2.24,4.98z"/>
  <path class="fil13" d="M40.7 116.35c-2.06,0.59 -1.49,3.49 -1.5,5.82 -0.01,2.54 -0.04,5.06 -0.03,7.61 0.01,2.31 -0.59,5.41 1.65,5.85 0.69,0.13 6.83,0.13 7.43,-0.03 2.05,-0.55 2.26,-3.84 -0.13,-4.22 -5.09,-0.82 -4.3,3.74 -4.35,-10.87 -0.01,-2.47 -0.05,-5.02 -3.07,-4.16z"/>
  <path class="fil14" d="M9.66 117.87c-2.91,0.92 -3.67,4.35 -3.28,7.8 0.33,2.95 1.94,6.47 5.41,5.32 5.04,-1.67 3.86,-15.02 -2.13,-13.12z"/>
  <path class="fil15" d="M33 128.59c0.45,-1.92 0.15,-5.93 -0.89,-7.05 -1.63,-1.75 -4.2,-0.5 -4.59,1.87 -0.37,2.24 -0.42,5.91 0.9,7.28 0.85,0.88 3.62,2.07 4.58,-2.1z"/>
  <path class="fil13" d="M140.21 105.3c0.56,-0.48 0.99,-0.69 1.2,-1.33 0.86,-2.72 -3.43,-1.89 -4.1,-2.32 -3.1,1.14 -13.22,-1.56 -12.01,2.46 0.51,1.69 3.9,1.09 6.96,1.09 2.01,0 6.26,-0.29 7.95,0.1z"/>
  <path class="fil3" d="M11.09 103.21l0.32 1.42c0.87,1.25 5.97,0.59 7.95,0.59 2.27,0 7.33,0.93 7.09,-1.79 -0.2,-2.22 -4.33,-1.55 -7.57,-1.54 -1.5,0.01 -3.01,0.01 -4.51,0.01 -1.85,0 -2.63,-0.25 -3.28,1.31z"/>
  <path class="fil16" d="M71.97 128.83c0.35,-1.59 0.3,-5.77 -0.55,-6.91 -1.02,-1.37 -3.78,-1.86 -4.42,1.51 -1.7,8.86 3.93,10.08 4.97,5.4z"/>
  <path class="fil17" d="M55.55 42.79c0.91,4.53 8.21,3.44 7.18,-1.54 -0.98,-4.78 -8.16,-3.35 -7.18,1.54z"/>
  <path class="fil1" d="M76.04 50.77c0.07,1.68 0.05,3.64 0.84,4.87l2.46 -3.26c0.79,-1.13 1.47,-1.98 2.22,-3.49 1.55,-3.13 1.87,-5.5 1.26,-9.37 -0.55,-0.35 -0.09,-0.27 -0.52,-0.06 -0.42,1.21 0.38,0.66 -0.34,1.8l-1.05 2.01c-0.3,0.56 -0.51,0.98 -0.8,1.56 -0.44,0.87 -1.14,2.43 -1.75,3.23 -1.78,2.38 -1.22,2.45 -2.32,2.71z"/>
  <path class="fil18" d="M19.1 144.31l-0.97 -0.99c-2.26,-0.1 -4.59,-0.04 -6.85,-0.07 -1.03,-0.01 -2.28,-0.11 -2.98,0.44 -0.63,0.5 -0.78,1.78 -0.14,2.51 0.83,0.96 4.85,0.56 6.44,0.56 2.32,0 4.81,0.33 4.5,-2.45z"/>
  <path class="fil19" d="M84.32 32.57c0.1,1.78 1.92,3.26 3.97,2.96 1.59,-0.24 3.14,-1.93 2.8,-3.87 -0.71,-4.03 -7.03,-3.77 -6.77,0.91z"/>
  <path class="fil20" d="M134.84 143.48c-1.25,0.64 -2.05,3.37 1.93,3.29 2,-0.04 8.98,1.17 7.44,-2.56 -0.74,-1.8 -9.37,-0.73 -9.37,-0.73z"/>
  <path class="fil21" d="M83.28 99.07c3.35,-0.16 11.83,-4.11 12.82,-5.97 -2.76,0.61 -5.91,0.13 -8.35,1.19 -2.19,0.95 -3.49,2.59 -4.47,4.78z"/>
  <path class="fil1" d="M133.21 94.9c1.78,0.05 3.65,-0.05 5.47,-0.02 1.48,0.02 3.26,-0.03 3.02,-1.88 -0.22,-1.72 -2.16,-1.38 -3.74,-1.37 -1.73,0.01 -3.51,-0.1 -5.23,0.09 -1.3,1.33 -0.94,2.32 0.48,3.18z"/>
  <path class="fil13" d="M11.14 94.58c1.58,0.61 4.44,0.28 6.33,0.32 1.17,0.02 1.95,-0.24 2.37,-1.03 0.51,-0.97 -0.17,-1.54 -0.72,-2.14 -1.48,-0.13 -6.9,-0.38 -7.85,0.22 -1.18,0.74 -0.72,1.6 -0.13,2.63z"/>
  <path class="fil22" d="M104.01 130.71c-3.28,1.68 -1.13,6.39 2.39,5.05 3.34,-1.28 1,-6.79 -2.39,-5.05z"/>
  <path class="fil5" d="M78.05 99.74c-0.84,0.08 -2.32,0.4 -2.81,0l-0.25 0.56c-0.65,1.79 -1.72,6.78 -1.32,8.21l2.52 -0.12c0.37,-0.79 0.47,-3.31 0.71,-4.48 0.31,-1.48 0.88,-2.83 1.15,-4.17z"/>
  <path class="fil23" d="M137.58 80.78c-0.22,1.79 -0.49,3.09 2.21,2.94 2.22,-1.47 1.18,-4.31 -2.21,-2.94z"/>
  <path class="fil24" d="M11.9 80.47c-1.82,0.91 -0.69,4.13 1.62,3.1 1.82,-0.81 0.57,-4.19 -1.62,-3.1z"/>
  <path class="fil20" d="M23.4 143.74c-0.74,1.76 -0.69,1.89 0.71,2.86 3.17,-0.06 2.52,-3.97 -0.71,-2.86z"/>
  <path class="fil24" d="M127.06 145.74c1.2,1.11 1.43,1.02 2.85,0.3 0.25,-0.99 0.14,-1.49 -0.18,-2.28 -1.88,-0.48 -2.9,-0.25 -2.67,1.98z"/>
 </g>
</svg>
