<?xml version="1.0" encoding="UTF-8"?>
<!DOCTYPE svg PUBLIC "-//W3C//DTD SVG 1.0//EN" "http://www.w3.org/TR/2001/REC-SVG-20010904/DTD/svg10.dtd">
<!-- Creator: CorelDRAW 2020 (64-Bit) -->
<svg xmlns="http://www.w3.org/2000/svg" xml:space="preserve" width="120px" height="70px" version="1.0" style="shape-rendering:geometricPrecision; text-rendering:geometricPrecision; image-rendering:optimizeQuality; fill-rule:evenodd; clip-rule:evenodd"
viewBox="0 0 109.72 64.27"
 xmlns:xlink="http://www.w3.org/1999/xlink"
 xmlns:xodm="http://www.corel.com/coreldraw/odm/2003">
 <defs>
  <style type="text/css">
   <![CDATA[
    .fil1 {fill:#333333}
    .fil2 {fill:#666666}
    .fil0 {fill:#FA370F}
   ]]>
  </style>
 </defs>
 <g id="Слой_x0020_1">
  <metadata id="CorelCorpID_0Corel-Layer"/>
  <g id="_1879697905680">
   <path class="fil0" d="M69.56 21.19c-0.24,0.44 -0.61,0.8 -1.05,1.05 -0.54,0.31 -1.15,0.47 -1.77,0.47 -0.59,0 -1.16,-0.15 -1.66,-0.45 -1.57,-0.92 -2.09,-2.94 -1.16,-4.5 0.92,-1.56 2.94,-2.08 4.5,-1.16 1,0.59 1.61,1.66 1.61,2.82 0,0.62 -0.17,1.23 -0.47,1.77l0 0zm-34.01 6.32l0 -0.01 -0.16 0c-0.09,0 -0.19,-0.01 -0.28,-0.03l0 0 0 0c-0.05,0 -0.09,-0.01 -0.14,-0.02l0 0 -0.04 0c-0.04,-0.01 -0.08,-0.02 -0.12,-0.03l0 0 -0.02 0c-0.04,-0.01 -0.08,-0.02 -0.12,-0.03l0 0 0 0c-0.07,-0.01 -0.13,-0.03 -0.19,-0.05l0 0 -0.01 0c-0.03,-0.01 -0.05,-0.02 -0.07,-0.03l0 0 -0.02 0c-0.02,-0.01 -0.04,-0.02 -0.07,-0.02l0 -0.01 -0.01 0 -0.07 -0.02 0 -0.01 -0.01 0c-0.09,-0.03 -0.18,-0.06 -0.26,-0.1l0 -0.01 -0.01 0 -0.05 -0.02 0 0 0 0 -0.05 -0.03 0 0 -0.01 0 -0.05 -0.02 0 -0.01 -0.01 0 -0.04 -0.02 0 0 -0.01 0 -0.05 -0.03 0 0 0 0c-0.02,-0.02 -0.05,-0.03 -0.07,-0.04 -0.02,-0.01 -0.04,-0.03 -0.06,-0.04l0 0 -0.02 0 -0.04 -0.03 0 0 0 0 -0.03 -0.02 0 -0.01 -0.02 0 -0.03 -0.02 0 -0.01 -0.01 0 -0.02 -0.01 0 -0.01 -0.02 0 -0.03 -0.02 0 -0.01 -0.01 0 -0.02 -0.01 0 -0.02 -0.02 0 -0.03 -0.02 0 -0.01 -0.01 0 -0.02 -0.01 0 -0.01 -0.02 0 -0.04 -0.03 0 0 0 0 -0.02 -0.02 0 -0.01 -0.01 0c-0.1,-0.08 -0.2,-0.16 -0.3,-0.24l0 0 0 0 -0.02 -0.03 0 0 -0.01 0 -0.02 -0.03 0 0 0 0 -0.03 -0.02 0 -0.01 0 0 -0.03 -0.02 0 0 0 0 -0.02 -0.03 0 0 -0.01 0 -0.02 -0.02 0 -0.01 0 0 -0.03 -0.02 0 -0.01 0 0 -0.02 -0.02 0 0 -0.01 0c-0.04,-0.05 -0.09,-0.11 -0.13,-0.16l0 -0.01 -0.01 0 -0.02 -0.02 0 -0.01 0 0c-0.02,-0.02 -0.04,-0.04 -0.05,-0.06l0 -0.02 -0.02 0 -0.01 -0.02 0 -0.01 -0.01 0 -0.02 -0.02 0 0 0 0 -0.03 -0.04 0 -0.02 -0.01 0 -0.01 -0.02 0 0 -0.01 0c-0.02,-0.03 -0.03,-0.05 -0.05,-0.08l0 -0.01 -0.01 0c-0.01,-0.02 -0.03,-0.04 -0.04,-0.07l0 -0.01 -0.01 0c-0.04,-0.07 -0.09,-0.14 -0.13,-0.22l0 -0.03 -0.01 0 -0.02 -0.02 0 -0.03 -0.01 0 -0.01 -0.02 0 -0.04 -0.02 0 -0.01 -0.02 0 -0.03 -0.02 0 -0.01 -0.02 0 -0.03 -0.01 0 -0.02 -0.03 0 -0.03 -0.01 0 -0.01 -0.04 0 -0.01 -0.01 0 -0.02 -0.05 0 -0.01 -0.01 0 -0.02 -0.06c-0.01,-0.02 -0.02,-0.05 -0.03,-0.07l0 -0.01 0 0c-0.01,-0.02 -0.02,-0.04 -0.02,-0.07l0 -0.04 -0.02 0 -0.01 -0.04 0 -0.04 -0.01 0 -0.02 -0.05 0 -0.06 -0.01 0 -0.02 -0.04 0 -0.04 -0.01 0c0,-0.02 -0.01,-0.05 -0.01,-0.07l0 -0.04 -0.01 0c-0.02,-0.08 -0.04,-0.16 -0.05,-0.23l0 -0.07 -0.01 0c0,-0.04 -0.01,-0.09 -0.02,-0.13l0 -0.17 -0.01 0c-0.01,-0.1 -0.01,-0.2 -0.01,-0.3l0 -0.09c0,-0.37 0.01,-0.73 0.02,-1.09l0 0 0 -0.06c0.01,-0.13 0.02,-0.25 0.03,-0.38l0 0 0 -0.09c0.01,-0.09 0.01,-0.18 0.02,-0.27l0.01 0 0 -0.09c0.01,-0.08 0.01,-0.17 0.02,-0.26l0.01 0 0 -0.04c0.01,-0.15 0.03,-0.3 0.05,-0.45l0 0 0 -0.05 0.02 -0.17 0.01 0 0 -0.05 0.02 -0.17 0.01 0 0 -0.04 0.02 -0.15 0 0 0 -0.04c0.02,-0.12 0.04,-0.23 0.06,-0.35l0 0 0 0 0.02 -0.16 0.01 0 0 -0.01 0.02 -0.13 0 0 0 -0.03 0.02 -0.11 0.01 0 0 -0.04 0.02 -0.12 0.01 0 0 -0.02 0.02 -0.12 0.01 0 0 -0.03 0.02 -0.13 0 0 0 0c0.03,-0.13 0.06,-0.26 0.08,-0.39l0 0 0 0 0.03 -0.1 0 0 0 -0.02 0.02 -0.09 0.01 0 0 -0.03 0.03 -0.11 0 0 0 -0.01 0.02 -0.1 0 0 0 -0.01 0.03 -0.1 0 0 0 -0.01 0.03 -0.1 0 0 0 -0.01 0.02 -0.1 0.01 0 0 -0.01 0.02 -0.1 0 0 0 -0.01c0.03,-0.09 0.06,-0.19 0.08,-0.29l0.01 0 0 -0.01c0.01,-0.06 0.03,-0.12 0.05,-0.18l0 0 0 -0.01 0.02 -0.07 0.01 0 0 -0.03 0.02 -0.08 0.01 0 0 -0.01 0.02 -0.08 0 0 0 -0.01 0.02 -0.07 0.01 0 0 -0.02 0.03 -0.09 0 0 0 0 0.02 -0.08 0.01 0 0 -0.01c0.05,-0.19 0.12,-0.38 0.18,-0.57l0.01 0 0 -0.01 0.02 -0.07 0 0 0 -0.01 0.03 -0.07 0 0 0 -0.01 0.03 -0.07 0 0 0 -0.01 0.03 -0.07 0 0 0 0 0.05 -0.14 0 0 0 -0.02 0.03 -0.06 0 0 0 -0.01c0.06,-0.16 0.12,-0.32 0.19,-0.49l0 0 0 -0.01 0.05 -0.12 0.01 0 0 -0.02 0.05 -0.12 0 0 0 -0.01 0.05 -0.13 0 0 0 0 0.03 -0.05 0 0 0 -0.02 0.05 -0.12 0.01 0 0 -0.01c0.02,-0.06 0.05,-0.12 0.08,-0.18l0 0 0 0 0.03 -0.07c1.5,0.63 3.2,0.6 4.67,-0.09 1.19,-0.52 2.13,-1.47 2.64,-2.66 0.9,-1.94 0.63,-4.23 -0.7,-5.91 0.05,-0.04 0.1,-0.08 0.15,-0.12l0 0 0 0 0.1 -0.08 0.01 0 0 -0.01 0.03 -0.02 0 0 0 0 0.07 -0.05 0.01 0 0 -0.01 0.02 -0.02 0.01 0 0 -0.01 0.03 -0.02 0 0 0 0 0.03 -0.02 0.02 0 0 -0.02 0.02 -0.01 0.01 0 0 -0.01 0.02 -0.02 0.01 0 0 0 0.06 -0.05 0.02 0 0 -0.02 0.02 -0.01 0.01 0 0 -0.01 0.06 -0.05 0.02 0 0 -0.01 0.02 -0.01 0 0 0 -0.01 0.07 -0.05 0.02 0 0 -0.01 0.02 -0.02 0 0 0 0 0.07 -0.05 0.02 0 0 -0.01 0.02 -0.02 0 0 0 0 0.07 -0.05 0.02 0 0 -0.01 0.02 -0.02 0 0 0 0c0.16,-0.11 0.31,-0.22 0.47,-0.33l0 0 0 0 0.04 -0.03 0.01 0 0 -0.01 0.03 -0.01 0 0 0 -0.01 0.04 -0.02 0.02 0 0 -0.01 0.02 -0.02 0 0 0 0 0.04 -0.03 0.02 0 0 -0.01 0.02 -0.01 0.01 0 0 -0.01 0.03 -0.02 0.02 0 0 -0.01 0.02 -0.02 0.01 0 0 0 0.03 -0.03 0.02 0 0 -0.01 0.02 -0.01 0.01 0 0 -0.01 0.04 -0.02 0.01 0 0 -0.01 0.03 -0.02 0 0 0 0 0.04 -0.02 0.02 0 0 -0.02 0.02 -0.01 0 0 0 0 0.04 -0.03 0.02 0 0 -0.01 0.07 -0.04 0.01 0 0 -0.01 0.08 -0.05 0 0 0 0 0.08 -0.05 0.01 0 0 0 0.13 -0.09 0 0 0 0c0.09,-0.05 0.18,-0.11 0.27,-0.16l0.01 0 0 -0.01 0.13 -0.07 0 0 0 -0.01 0.04 -0.02 0.02 0 0 -0.01 0.03 -0.02 0.02 0 0 -0.01 0.03 -0.01 0 0 0 -0.01 0.05 -0.02 0.01 0 0 -0.01 0.03 -0.02 0.02 0 0 -0.01 0.03 -0.02 0.03 0 0 -0.01 0.02 -0.01 0 0 0 -0.01 0.05 -0.02 0.01 0 0 -0.01 0.04 -0.02 0.01 0 0 -0.01 0.04 -0.02 0.02 0 0 -0.01 0.03 -0.01 0.02 0 0 -0.02 0.03 -0.01 0 0 0 0 0.05 -0.03 0 0 0 0 0.05 -0.03 0.01 0 0 0 0.04 -0.02 0.01 0 0 -0.01c0.07,-0.04 0.13,-0.07 0.19,-0.1l0 0 0 0 0.05 -0.03 0.01 0 0 0c0.09,-0.05 0.17,-0.09 0.26,-0.14l0.01 0 0 0 0.04 -0.02 0.02 0 0 -0.01 0.04 -0.02 0.01 0 0 -0.01 0.04 -0.02 0.02 0 0 -0.01 0.04 -0.02 0.01 0 0 0 0.04 -0.02 0.02 0 0 -0.01 0.04 -0.02 0.01 0 0 -0.01 0.05 -0.02 0.01 0 0 0 0.04 -0.03 0.01 0 0 0 0.05 -0.02 0.01 0 0 -0.01 0.05 -0.02 0.03 0 0 -0.02 0.03 -0.01 0.02 0 0 -0.01 0.03 -0.02 0.03 0 0 -0.01 0.03 -0.01 0.02 0 0 -0.01 0.04 -0.02 0.02 0 0 -0.01 0.04 -0.02 0.01 0 0 0 0.05 -0.03 0.01 0 0 0c0.06,-0.02 0.12,-0.05 0.17,-0.08l0.02 0 0 0 0.05 -0.03 0 0 0 0 0.12 -0.05c0.06,0.63 0.22,1.26 0.48,1.84 0.5,1.13 1.4,2.02 2.54,2.5 1.67,0.74 3.6,0.59 5.13,-0.41 1.9,-1.26 2.78,-3.62 2.15,-5.82l0.3 0c0.11,0.01 0.22,0.01 0.32,0.02l0 0.01 0.09 0c0.08,0 0.16,0.01 0.24,0.02l0 0 0.09 0c0.08,0.01 0.16,0.02 0.24,0.03l0 0 0.05 0c0.16,0.02 0.31,0.04 0.47,0.06l0 0 0.01 0c0.06,0 0.12,0.01 0.18,0.02l0 0 0.04 0c0.05,0.01 0.1,0.02 0.15,0.03l0 0 0.05 0c0.05,0.01 0.1,0.02 0.15,0.02l0 0.01 0.04 0 0.15 0.02 0 0.01 0.03 0 0.16 0.02 0 0 0.01 0c0.15,0.03 0.3,0.06 0.45,0.08l0 0.01 0.02 0c0.04,0 0.08,0.01 0.12,0.02l0 0 0.02 0c0.04,0.01 0.08,0.02 0.12,0.03l0 0 0.02 0 0.12 0.02 0 0.01 0.02 0c0.04,0.01 0.07,0.01 0.11,0.02l0 0.01 0.02 0 0.09 0.02 0 0 0.04 0 0.1 0.03 0 0 0.02 0 0.12 0.03 0 0 0 0c0.16,0.03 0.31,0.07 0.46,0.11l0 0 0 0 0.08 0.02 0 0 0.03 0 0.08 0.03 0 0 0.03 0 0.08 0.02 0 0.01 0.02 0 0.09 0.02 0 0.01 0.01 0 0.07 0.02 0 0 0.03 0 0.08 0.03 0 0 0.02 0 0.09 0.03 0 0 0.01 0c0.16,0.04 0.31,0.09 0.46,0.13l0 0.01 0.01 0 0.07 0.02 0 0 0.02 0 0.06 0.02 0 0.01 0.02 0 0.07 0.02 0 0.01 0.02 0 0.06 0.02 0 0.01 0.02 0 0.06 0.01 0 0.01 0.03 0 0.08 0.03 0 0 0 0 0.08 0.03 0 0 0 0c0.19,0.06 0.37,0.12 0.55,0.19l0 0 0 0c0.07,0.03 0.15,0.05 0.22,0.08l0 0 0 0 0.14 0.05 0 0.01 0.01 0 0.07 0.02 0 0 0 0 0.05 0.02 0 0.01 0.02 0 0.07 0.03 0 0 0 0 0.05 0.02 0 0.01 0.02 0 0.06 0.02 0 0 0.01 0 0.05 0.02 0 0.01 0.02 0 0.06 0.03 0 0 0 0 0.14 0.05 0 0 0 0c0.12,0.06 0.25,0.11 0.38,0.17l0 0 0 0 0.05 0.02 0 0 0.01 0c0.07,0.03 0.13,0.06 0.19,0.09l0 0 0 0 0.05 0.02 0 0 0.01 0 0.05 0.03 0 0 0.01 0 0.04 0.02 0 0.01 0.02 0c0.06,0.03 0.12,0.05 0.17,0.08l0 0 0.01 0 0.05 0.03 0 0 0 0 0.05 0.02 0 0.01 0.01 0 0.05 0.02 0 0 0.01 0c0.2,0.1 0.39,0.2 0.59,0.3l0 0 0.01 0 0.04 0.03 0 0 0.01 0 0.05 0.03 0 0 0.01 0 0.04 0.02 0 0.01 0.01 0 0.05 0.02 0 0 0 0 0.05 0.03 0 0 0 0c0.05,0.03 0.09,0.05 0.14,0.08l0 0 0.02 0 0.03 0.03 0 0 0.02 0 0.04 0.02 0 0.01 0.01 0 0.04 0.02 0 0.01 0.01 0c0.17,0.09 0.34,0.19 0.51,0.29l0 0.01 0.02 0 0.04 0.02 0 0 0 0 0.08 0.05 0 0.01 0.01 0 0.05 0.03 0 0 0 0 0.08 0.04 0 0.01 0.01 0 0.04 0.03 0 0 0.01 0 0.08 0.05 0 0 0.01 0 0.12 0.08 0 0.01 0.01 0 0.07 0.04 0 0.01 0.02 0c0.04,0.03 0.08,0.05 0.12,0.08l0 0 0.01 0c0.13,0.09 0.27,0.18 0.4,0.27l0 0.01 0.02 0 0.06 0.04 0 0.01 0.02 0 0.07 0.05 0 0.01 0.01 0 0.07 0.05 0 0 0.01 0 0.07 0.05 0 0.01 0.01 0 0.07 0.05 0 0 0 0 0.03 0.02 0 0.01 0.01 0 0.07 0.05 0 0 0.01 0 0.08 0.06 0 0 0 0c0.06,0.04 0.12,0.09 0.19,0.13l0 0 0 0 0.11 0.09 0 0 0 0 0.11 0.08 0 0 0 0c0.03,0.03 0.07,0.05 0.11,0.08l0 0 0 0 0.02 0.02 0 0.01 0.01 0 0.08 0.05 0 0 0 0 0.02 0.02 0 0.01 0.01 0c0.04,0.03 0.07,0.05 0.1,0.08l0 0 0.01 0 0.02 0.02 0 0.01 0.01 0 0.07 0.05 0 0.01 0 0 0.03 0.02 0 0 0.01 0c0.03,0.03 0.07,0.06 0.1,0.08l0 0 0 0 0.03 0.02 0 0.01 0.01 0c0.03,0.03 0.06,0.06 0.1,0.08l0 0 0 0c0.11,0.09 0.22,0.18 0.32,0.28l0 0 0.01 0 0.02 0.02 0 0.01 0.01 0c0.05,0.04 0.1,0.08 0.16,0.13l0 0 0 0 0.02 0.02 0 0.01 0.01 0 0.02 0.02 0 0.01 0.01 0c0.04,0.03 0.09,0.07 0.13,0.11l0 0 0 0 0.03 0.02 0 0 0 0 0.02 0.03 0 0 0.01 0 0.02 0.02 0 0.01 0.01 0c0.06,0.05 0.12,0.11 0.18,0.16l0 0 0 0 0.03 0.03 0 0 0 0c0.12,0.11 0.24,0.22 0.36,0.33l0 0 0 0 0.02 0.02 0 0.01 0.01 0 0.02 0.02 0 0 0 0 0.03 0.03 0 0 0 0 0.03 0.02 0 0.01 0 0 0.02 0.02 0 0.01 0.01 0 0.02 0.02 0 0 0.01 0 0.02 0.02 0 0.01 0.01 0 0.01 0.02 0 0.01 0.01 0 0.02 0.02 0 0.01 0.01 0 0.02 0.01 0 0.01 0.01 0 0.02 0.02 0 0.01 0.01 0 0.01 0.02 0 0.01 0.01 0 0.02 0.02 0 0.01 0.01 0 0.02 0.01 0 0.01 0.01 0 0.02 0.02 0 0.01 0.01 0 0.01 0.02 0 0.01 0.01 0c0.12,0.11 0.24,0.23 0.35,0.35l0 0 0 0 0.03 0.03 0 0 0 0c0.08,0.09 0.16,0.18 0.24,0.26l0 0.02 0.01 0 0.02 0.01 0 0.01 0.01 0 0.02 0.02 0 0.01 0 0 0.03 0.02 0 0.01 0 0 0.02 0.02 0 0 0 0c0.06,0.07 0.11,0.13 0.17,0.19l0 0.01 0.01 0 0.01 0.02 0 0 0.01 0 0.02 0.03 0 0 0.01 0 0.02 0.03 0 0 0 0c0.06,0.06 0.11,0.12 0.16,0.19l0 0 0.01 0c0.05,0.06 0.1,0.13 0.16,0.19l0 0 0 0c0.04,0.05 0.07,0.09 0.11,0.13l0 0.01 0 0 0.03 0.02 0 0.01 0 0c0.02,0.03 0.05,0.06 0.08,0.09l0 0.02 0.01 0 0.01 0.02 0 0 0.01 0c0.03,0.04 0.05,0.07 0.08,0.1l0 0.01 0.01 0 0.01 0.02 0 0.01 0.01 0 0.02 0.03 0 0 0 0 0.06 0.07 0 0.01 0.01 0 0.01 0.02 0 0.01 0.01 0c0.03,0.04 0.07,0.09 0.1,0.13l0 0 0.01 0c0.06,0.09 0.12,0.17 0.19,0.25l0 0 0 0c0.02,0.04 0.05,0.07 0.08,0.11l0 0 0 0 0.05 0.07 0 0.01 0.01 0 0.02 0.03 0 0 0 0 0.05 0.07 0 0.01 0.01 0 0.05 0.07 0 0.01 0.01 0 0.02 0.03 0 0 0 0 0.05 0.07 0 0.01 0.01 0 0.02 0.03 0 0 0 0 0.03 0.04 0 0.02 0.01 0 0.01 0.02 0 0 0.01 0 0.05 0.08 0 0.01 0.01 0 0.04 0.06 0 0.02 0.01 0 0.02 0.02 0 0.01 0 0c0.02,0.02 0.04,0.05 0.06,0.07l0 0.01 0 0 0.05 0.07 0 0.01 0 0c0.03,0.04 0.06,0.09 0.09,0.13 -1,0.63 -1.79,1.55 -2.25,2.65 -0.64,1.53 -0.61,3.27 0.08,4.79 0.53,1.23 1.52,2.21 2.75,2.74 1.03,0.45 2.16,0.62 3.28,0.48 0.01,0.08 0.01,0.17 0.02,0.25l0 0.05 0.01 0c0,0.1 0.01,0.19 0.02,0.28l0 0.08 0.01 0c0,0.1 0.01,0.21 0.02,0.31l0 0.05 0 0c0.01,0.15 0.02,0.3 0.02,0.45l0 0.09 0.01 0c0.01,0.23 0.02,0.45 0.02,0.68l0 0.37c0,0.11 -0.01,0.21 -0.02,0.32l-0.01 0 0 0.02c0,0.06 -0.01,0.12 -0.02,0.17l0 0 0 0.02c-0.01,0.04 -0.02,0.08 -0.03,0.12l0 0 0 0.02c-0.01,0.03 -0.01,0.06 -0.02,0.09l-0.01 0 0 0.03c-0.01,0.04 -0.02,0.07 -0.03,0.11l0 0 0 0c0,0.03 -0.01,0.05 -0.02,0.08l0 0 0 0.01 -0.02 0.07 -0.01 0 0 0.02 -0.02 0.06 -0.01 0 0 0.02 -0.02 0.07 -0.01 0 0 0.01 -0.02 0.07 0 0 0 0c-0.03,0.07 -0.05,0.13 -0.08,0.19l0 0 0 0.01 -0.03 0.05 0 0 0 0.01 -0.02 0.04 -0.01 0 0 0.01 -0.02 0.04 -0.01 0 0 0.02 -0.02 0.04 0 0 0 0.01 -0.03 0.04 0 0 0 0.01c-0.04,0.06 -0.07,0.13 -0.11,0.19l0 0 0 0c-0.02,0.02 -0.04,0.05 -0.05,0.08l-0.01 0 0 0c-0.01,0.03 -0.03,0.05 -0.05,0.08l0 0 0 0c-0.03,0.04 -0.05,0.07 -0.08,0.11l0 0 0 0.01c-0.07,0.09 -0.14,0.18 -0.22,0.26l0 0 0 0.01 -0.02 0.02 -0.01 0 0 0.01 -0.02 0.02 -0.01 0 0 0.01 -0.02 0.02 0 0 0 0.01c-0.06,0.06 -0.13,0.12 -0.19,0.18l-0.01 0 0 0 -0.02 0.03 0 0 0 0 -0.03 0.02 0 0 0 0c-0.04,0.04 -0.08,0.08 -0.13,0.11l-0.01 0 0 0.01 -0.02 0.02 0 0 0 0c-0.08,0.06 -0.15,0.11 -0.22,0.16l0 0 0 0c-0.03,0.02 -0.06,0.04 -0.08,0.06l-0.01 0 0 0 -0.04 0.03 -0.01 0 0 0.01c-0.03,0.01 -0.05,0.03 -0.07,0.04l-0.01 0 0 0.01c-0.04,0.02 -0.08,0.04 -0.12,0.06l-0.02 0.01 0 0 0 0 -0.05 0.03 0 0 0 0 -0.05 0.03 -0.01 0 0 0 -0.04 0.03 -0.01 0 0 0 -0.05 0.02 -0.01 0 0 0.01 -0.05 0.02 0 0 0 0 -0.05 0.03 -0.01 0 0 0c-0.05,0.02 -0.1,0.04 -0.14,0.06l-0.05 0.02 0 0 0 0 -0.07 0.03 -0.01 0 0 0 -0.07 0.02 -0.01 0 0 0.01 -0.07 0.02 -0.02 0 0 0.01c-0.02,0 -0.05,0.01 -0.07,0.02l-0.01 0 0 0c-0.06,0.02 -0.13,0.04 -0.19,0.05l-0.03 0 0 0.01c-0.03,0.01 -0.06,0.01 -0.1,0.02l-0.01 0 0 0c-0.04,0.01 -0.09,0.02 -0.13,0.03l-0.01 0 0 0c-0.05,0.01 -0.11,0.02 -0.17,0.03l-0.04 0 0 0c-0.1,0.01 -0.19,0.02 -0.28,0.02l-0.03 0 0 0c-0.05,0.01 -0.1,0.01 -0.16,0.01l0 -0.01 -0.21 0c-0.09,0 -0.19,-0.01 -0.28,-0.02l0 0 -0.03 0c-0.06,-0.01 -0.11,-0.02 -0.16,-0.03l0 0 -0.03 0c-0.05,-0.01 -0.09,-0.02 -0.14,-0.03l0 0 0 0c-0.04,-0.01 -0.07,-0.01 -0.11,-0.02l0 -0.01 -0.01 0c-0.04,0 -0.07,-0.01 -0.1,-0.02l0 0 -0.01 0c-0.03,-0.01 -0.07,-0.02 -0.1,-0.03l0 0 0 0c-0.05,-0.02 -0.11,-0.03 -0.16,-0.05l0 -0.01 -0.01 0c-0.03,0 -0.05,-0.01 -0.07,-0.02l0 0 -0.01 0c-0.04,-0.02 -0.09,-0.04 -0.13,-0.05l0 -0.01 -0.01 0c-0.08,-0.03 -0.16,-0.07 -0.24,-0.1l0 -0.01 0 0 -0.05 -0.02 0 0 -0.01 0 -0.05 -0.03 0 0 0 0 -0.05 -0.03 0 0 0 0c-0.06,-0.03 -0.12,-0.07 -0.18,-0.1 -0.18,-0.1 -0.35,-0.2 -0.53,-0.3 -0.12,-0.07 -0.23,-0.13 -0.35,-0.2 -0.16,-0.1 -0.37,-0.2 -0.51,-0.27 -0.13,-0.07 -0.26,-0.14 -0.41,-0.21 -0.15,-0.08 -0.3,-0.14 -0.46,-0.22 -0.16,-0.08 -0.34,-0.17 -0.49,-0.23 -0.14,-0.06 -0.27,-0.12 -0.41,-0.18 -0.19,-0.08 -0.38,-0.16 -0.57,-0.24l-0.36 -0.13c-0.21,-0.09 -0.43,-0.17 -0.65,-0.25l-0.15 -0.05 0 0 0 0 -0.12 -0.04c-0.25,-0.09 -0.5,-0.18 -0.76,-0.26 -0.07,-0.03 -0.14,-0.05 -0.22,-0.07 -0.27,-0.09 -0.56,-0.17 -0.84,-0.26l-0.13 -0.03c-0.32,-0.09 -0.63,-0.17 -0.95,-0.25l-0.09 -0.03c-0.34,-0.08 -0.67,-0.16 -1.01,-0.23l-0.03 0c-0.37,-0.08 -0.73,-0.15 -1.1,-0.21l-0.03 0c-0.36,-0.07 -0.73,-0.13 -1.1,-0.19l-0.08 0c-0.35,-0.05 -0.71,-0.1 -1.07,-0.15l-0.17 -0.01c-0.33,-0.04 -0.66,-0.08 -1,-0.11 -0.1,-0.01 -0.21,-0.02 -0.32,-0.02 -0.28,-0.03 -0.58,-0.05 -0.85,-0.07 -0.22,-0.01 -0.44,-0.03 -0.66,-0.03l-0.55 -0.02c-0.4,-0.02 -0.8,-0.02 -1.2,-0.02 -0.4,0 -0.8,0.02 -1.2,0.02 -0.22,0.01 -0.46,0.02 -0.65,0.03 -0.18,0.01 -0.36,0.02 -0.54,0.02 -0.26,0.02 -0.51,0.04 -0.77,0.06l-0.43 0.03 -0.75 0.08 -0.41 0.04c-0.25,0.03 -0.49,0.07 -0.74,0.1 -0.15,0.02 -0.28,0.04 -0.42,0.06 -0.22,0.03 -0.44,0.07 -0.67,0.11l-0.47 0.08c-0.18,0.03 -0.35,0.07 -0.53,0.11l-0.59 0.11c-0.15,0.03 -0.28,0.07 -0.42,0.1l-0.66 0.16 -0.35 0.1c-0.25,0.06 -0.5,0.13 -0.74,0.19l-0.27 0.09c-0.27,0.08 -0.52,0.15 -0.79,0.24l-0.26 0.09c-0.26,0.09 -0.52,0.18 -0.77,0.27l-0.2 0.08c-0.26,0.1 -0.54,0.2 -0.81,0.31 -0.05,0.01 -0.09,0.03 -0.14,0.05 -0.29,0.12 -0.57,0.24 -0.84,0.36l-0.13 0.06c-0.28,0.11 -0.55,0.25 -0.82,0.39l-0.14 0.07c-0.26,0.13 -0.52,0.26 -0.78,0.41 -0.06,0.03 -0.11,0.06 -0.17,0.09 -0.24,0.13 -0.48,0.27 -0.71,0.41 -0.07,0.04 -0.14,0.08 -0.21,0.12l0 0 0 0 -0.05 0.02 -0.01 0 0 0.01 -0.05 0.02 0 0 0 0 -0.05 0.03 -0.01 0 0 0c-0.06,0.03 -0.12,0.05 -0.18,0.08l-0.01 0 0 0c-0.04,0.02 -0.09,0.04 -0.13,0.05l-0.01 0 0 0.01 -0.07 0.02 -0.01 0 0 0.01c-0.02,0 -0.05,0.01 -0.07,0.02l-0.01 0 0 0c-0.03,0.01 -0.05,0.02 -0.08,0.03l0 0 0 0c-0.07,0.02 -0.13,0.04 -0.2,0.05l-0.02 0 0 0.01c-0.03,0 -0.07,0.01 -0.1,0.02l-0.01 0 0 0c-0.04,0.01 -0.09,0.02 -0.13,0.03l-0.01 0 0 0c-0.05,0.01 -0.11,0.02 -0.17,0.02l-0.02 0 0 0.01c-0.09,0.01 -0.17,0.02 -0.26,0.02l-0.1 0 0 0.01c-0.08,0 -0.16,0 -0.24,0zm27.35 -13.85c-2.6,0 -4.7,-2.12 -4.69,-4.71 0.01,-2.6 2.12,-4.7 4.72,-4.7 1.6,0.01 3.09,0.83 3.95,2.18 0.89,1.41 0.99,3.18 0.25,4.68 -0.42,0.91 -1.15,1.64 -2.06,2.06 -0.68,0.32 -1.42,0.49 -2.17,0.49l0 0zm-10.13 4.22c-0.52,1.2 -1.48,2.15 -2.67,2.66 -0.75,0.32 -1.55,0.49 -2.37,0.5 -3.05,0 -5.51,-2.47 -5.52,-5.52 -0.01,-3.05 2.46,-5.53 5.51,-5.54 1.87,-0.01 3.62,0.93 4.64,2.5 0.6,0.9 0.92,1.95 0.92,3.03 -0.01,0.82 -0.18,1.63 -0.51,2.37z"/>
   <path class="fil0" d="M73.92 16.98c0.35,0.78 0.98,1.4 1.76,1.74 0.7,0.32 1.48,0.43 2.24,0.34 -0.47,-2.5 -1.34,-4.9 -2.58,-7.12 -0.66,0.42 -1.19,1.04 -1.5,1.76 -0.43,1.06 -0.41,2.25 0.08,3.28z"/>
   <path class="fil0" d="M66.74 18.04c-0.76,-0.01 -1.39,0.59 -1.4,1.34 -0.01,0.51 0.26,0.98 0.7,1.23 0.48,0.27 1.07,0.25 1.53,-0.05 0.13,-0.07 0.24,-0.17 0.31,-0.29 0.3,-0.47 0.32,-1.06 0.05,-1.53 -0.25,-0.43 -0.7,-0.69 -1.19,-0.7z"/>
   <path class="fil0" d="M65.25 7.46c-0.81,-1.31 -2.52,-1.71 -3.83,-0.9 -1.31,0.81 -1.71,2.52 -0.91,3.83 0.23,0.37 0.54,0.68 0.91,0.91 0.86,0.53 1.94,0.57 2.85,0.12 0.49,-0.23 0.89,-0.63 1.12,-1.12 0.45,-0.91 0.39,-1.98 -0.14,-2.84z"/>
   <path class="fil0" d="M60.31 37.25l0 0 0 0c-0.06,0 -0.11,-0.01 -0.17,-0.02l0 -0.01 -0.04 0c-0.04,0 -0.08,-0.01 -0.12,-0.02l0 0 -0.03 0c-0.08,-0.02 -0.16,-0.04 -0.24,-0.06l0 0 -0.01 0c-0.06,-0.01 -0.12,-0.03 -0.19,-0.05l0 0 -0.01 0c-0.02,-0.01 -0.04,-0.02 -0.07,-0.02l0 -0.01 -0.01 0c-0.03,-0.01 -0.05,-0.01 -0.07,-0.02l0 -0.01 -0.02 0c-0.05,-0.01 -0.1,-0.03 -0.15,-0.05l0 0 0 0c-0.04,-0.02 -0.09,-0.04 -0.13,-0.06l0 0 0 0 -0.06 -0.02 0 0 -0.01 0 -0.04 -0.02 0 -0.01 -0.02 0c-0.1,-0.05 -0.21,-0.1 -0.31,-0.16l0 -0.01 -0.01 0 -0.05 -0.02 0 0 0 0c-0.02,-0.02 -0.05,-0.03 -0.08,-0.05l0 -0.01 -0.01 0 -0.04 -0.02 0 -0.01 0 0c-0.03,-0.01 -0.06,-0.03 -0.08,-0.05l0 0 -0.01 0c-0.03,-0.02 -0.05,-0.04 -0.08,-0.05 -0.04,-0.03 -0.07,-0.05 -0.11,-0.08l0 -0.01 0 0c-0.04,-0.02 -0.07,-0.05 -0.11,-0.08l0 0 0 0 -0.02 -0.02 0 -0.01 -0.01 0c-0.05,-0.03 -0.09,-0.07 -0.13,-0.1l0 -0.01 0 0c-0.15,-0.12 -0.28,-0.26 -0.41,-0.41l0 0 0 0c-0.04,-0.04 -0.07,-0.08 -0.11,-0.13l0 0 -0.01 0c-0.02,-0.04 -0.05,-0.07 -0.07,-0.1l0 -0.01 -0.01 0 -0.02 -0.03 0 0 0 0c-0.06,-0.08 -0.11,-0.16 -0.16,-0.24l0 -0.01 -0.01 0c-0.02,-0.02 -0.03,-0.05 -0.05,-0.08l0 0 0 0 -0.03 -0.04 0 -0.01 0 0c-0.03,-0.05 -0.05,-0.09 -0.08,-0.14l0 0 0 0c-0.03,-0.05 -0.06,-0.1 -0.08,-0.16l0 -0.01 -0.01 0 -0.02 -0.04 0 -0.01 0 0 -0.03 -0.05 0 -0.01 0 0c-0.02,-0.04 -0.03,-0.08 -0.05,-0.12l0 -0.01 -0.01 0 -0.02 -0.05 0 -0.01 0 0c-0.04,-0.1 -0.07,-0.2 -0.11,-0.3l0 -0.03 0 0 -0.02 -0.06 0 -0.02 -0.01 0c-0.02,-0.06 -0.03,-0.12 -0.05,-0.19l0 0 0 0c-0.01,-0.04 -0.02,-0.08 -0.03,-0.12l0 -0.02 0 0c-0.01,-0.04 -0.02,-0.08 -0.02,-0.12l0 -0.04 -0.01 0c-0.02,-0.13 -0.04,-0.27 -0.05,-0.4l0 -0.12 -0.01 0c0,-0.07 0,-0.13 0,-0.2 0,-0.08 0,-0.16 0.01,-0.24l0 0 0 -0.09c0.01,-0.08 0.01,-0.16 0.03,-0.24l0 0 0 -0.02c0.01,-0.06 0.01,-0.11 0.02,-0.17l0.01 0 0 -0.01c0.01,-0.09 0.03,-0.18 0.05,-0.26l0 0 0 0c0.04,-0.18 0.1,-0.36 0.16,-0.52l0 0 0 -0.02c0.01,-0.02 0.02,-0.04 0.03,-0.07l0 0 0 0c0.03,-0.06 0.06,-0.13 0.08,-0.19l0 0 0 0 0.03 -0.05 0 0 0 -0.01 0.03 -0.05 0 0 0 -0.01 0.02 -0.04 0.01 0 0 -0.01c0.05,-0.1 0.1,-0.2 0.16,-0.29l0 0 0 0c0.02,-0.03 0.03,-0.06 0.05,-0.09l0.01 0 0 0c0.03,-0.06 0.07,-0.11 0.1,-0.16l0.01 0 0 0c0.02,-0.04 0.05,-0.08 0.07,-0.11l0.01 0 0 -0.01c0.02,-0.03 0.05,-0.07 0.08,-0.1l0 0 0 0c0.04,-0.06 0.09,-0.11 0.14,-0.16l0 0 0 0 0.02 -0.03 0 0 0 -0.01 0.03 -0.02 0 0 0 0c0.09,-0.1 0.18,-0.19 0.27,-0.27l0.01 0 0 -0.01 0.02 -0.02 0 0 0 0c0.06,-0.06 0.13,-0.11 0.19,-0.16l0 0 0 0c0.04,-0.03 0.07,-0.06 0.11,-0.09l0 0 0 0c0.04,-0.03 0.08,-0.05 0.11,-0.08l0 0 0 0c0.06,-0.04 0.11,-0.07 0.17,-0.11l0 0 0 0c0.04,-0.03 0.09,-0.05 0.13,-0.08l0 0 0 0c0.09,-0.05 0.17,-0.1 0.25,-0.14l0 0 0 0c0.1,-0.05 0.2,-0.09 0.3,-0.13l0 0 0 -0.01c0.05,-0.01 0.09,-0.03 0.14,-0.05l0 0 0 0c0.02,-0.01 0.05,-0.02 0.08,-0.03l0 0 0 0c0.12,-0.04 0.23,-0.08 0.35,-0.11l0.01 0 0 0c0.03,-0.01 0.07,-0.02 0.1,-0.02l0.01 0 0 0c0.09,-0.03 0.18,-0.04 0.27,-0.06l0.03 0 0 0c0.17,-0.03 0.34,-0.05 0.52,-0.05l0.08 0 0 -0.01c0.03,0 0.06,0 0.09,0 0.02,0 0.05,0 0.08,0l0 0.01 0.1 0c0.17,0 0.33,0.02 0.5,0.05l0 0 0.04 0c0.04,0.01 0.08,0.02 0.12,0.02l0 0.01 0.03 0c0.03,0.01 0.07,0.01 0.11,0.02l0 0.01 0.01 0c0.07,0.01 0.14,0.03 0.21,0.05l0 0 0 0c0.03,0.01 0.06,0.02 0.08,0.02l0 0.01 0.02 0 0.06 0.02 0 0.01 0.02 0c0.08,0.02 0.15,0.05 0.23,0.08l0 0 0 0 0.05 0.02 0 0.01 0.02 0c0.04,0.01 0.08,0.03 0.12,0.05l0 0 0.01 0 0.05 0.02 0 0.01 0.01 0 0.04 0.02 0 0.01 0.01 0c0.07,0.03 0.14,0.07 0.21,0.1l0 0 0 0c0.05,0.03 0.09,0.06 0.14,0.08l0 0.01 0.01 0c0.04,0.02 0.08,0.05 0.12,0.08l0 0 0.01 0c0.06,0.04 0.12,0.08 0.19,0.13l0 0.01 0 0c0.04,0.02 0.07,0.05 0.11,0.07l0 0.01 0 0c0.04,0.03 0.07,0.05 0.1,0.08l0 0 0.01 0c0.19,0.16 0.38,0.35 0.54,0.54l0 0.01 0.01 0c0.03,0.04 0.07,0.08 0.1,0.13l0 0.01 0.01 0c0.04,0.05 0.08,0.1 0.12,0.16l0.04 0.05 0 0 0 0c0.03,0.05 0.05,0.09 0.08,0.13l0 0.01 0 0c0.02,0.03 0.04,0.06 0.05,0.08l0 0 0 0 0.03 0.05 0 0.01 0.01 0c0.06,0.12 0.13,0.24 0.18,0.36l0 0.02 0.01 0 0.02 0.05 0 0.01 0 0 0.03 0.05 0 0 0 0c0.02,0.05 0.03,0.09 0.05,0.14l0 0 0 0c0.01,0.02 0.02,0.05 0.03,0.07l0 0.01 0 0 0.03 0.07 0 0.01 0 0 0.02 0.07 0 0.01 0.01 0c0.01,0.03 0.01,0.06 0.02,0.08l0 0.01 0 0c0.01,0.03 0.02,0.06 0.03,0.09l0 0.02 0 0c0.02,0.07 0.04,0.13 0.05,0.2l0 0.02 0.01 0c0.01,0.04 0.01,0.08 0.02,0.12l0 0.04 0.01 0c0.01,0.04 0.01,0.08 0.02,0.12l0 0.02 0 0c0.01,0.07 0.02,0.14 0.03,0.21l0 0.06 0 0c0.02,0.25 0.02,0.49 0,0.74l0 0 0 0.07c-0.01,0.07 -0.02,0.14 -0.03,0.2l0 0 0 0.02c-0.01,0.05 -0.02,0.1 -0.03,0.15l0 0 0 0.02c-0.01,0.04 -0.01,0.08 -0.02,0.12l-0.01 0 0 0.01c-0.02,0.11 -0.04,0.21 -0.08,0.31l0 0 0 0.01c-0.01,0.03 -0.01,0.05 -0.02,0.08l-0.01 0 0 0.01 -0.02 0.07 0 0 0 0.02 -0.03 0.06 0 0 0 0.02c-0.01,0.03 -0.02,0.05 -0.03,0.08 -0.02,0.04 -0.03,0.08 -0.05,0.12l0 0 0 0.01c-0.02,0.04 -0.04,0.09 -0.06,0.13l0 0 0 0 -0.02 0.05 0 0 0 0.01c-0.04,0.07 -0.07,0.14 -0.11,0.21l0 0 0 0.01 -0.03 0.05 0 0 0 0c-0.03,0.04 -0.05,0.09 -0.08,0.13l0 0 0 0.01c-0.05,0.08 -0.11,0.16 -0.16,0.24l-0.01 0 0 0.01c-0.02,0.02 -0.03,0.05 -0.05,0.07l0 0 0 0c-0.09,0.12 -0.18,0.23 -0.28,0.33l0 0 0 0 -0.02 0.03 0 0 0 0 -0.03 0.02 0 0 0 0.01c-0.04,0.03 -0.07,0.07 -0.11,0.1l0 0 0 0.01 -0.03 0.02 0 0 0 0c-0.11,0.11 -0.23,0.21 -0.35,0.3l0 0 0 0c-0.03,0.02 -0.05,0.04 -0.08,0.06l-0.01 0 0 0c-0.07,0.06 -0.15,0.11 -0.24,0.16l0 0 0 0.01c-0.05,0.02 -0.09,0.05 -0.14,0.07l0 0 0 0.01 -0.05 0.02 -0.01 0 0 0.01c-0.06,0.03 -0.13,0.07 -0.21,0.1l0 0 0 0.01 -0.06 0.02 0 0 0 0c-0.04,0.02 -0.08,0.04 -0.12,0.05l-0.02 0 0 0.01c-0.04,0.01 -0.08,0.03 -0.12,0.04 -0.05,0.03 -0.1,0.04 -0.16,0.06l-0.02 0 0 0.01 -0.06 0.02 -0.02 0 0 0.01 -0.07 0.02 -0.01 0 0 0c-0.03,0.01 -0.05,0.02 -0.08,0.03l0 0 0 0c-0.08,0.02 -0.15,0.03 -0.22,0.05l0 0 0 0c-0.05,0.01 -0.09,0.02 -0.13,0.03l-0.04 0 0 0c-0.04,0.01 -0.08,0.02 -0.12,0.02l-0.01 0 0 0.01c-0.07,0.01 -0.13,0.02 -0.19,0.02l-0.03 0 0 0.01c-0.15,0.01 -0.29,0.02 -0.44,0.02l-0.03 0c-0.16,0 -0.33,-0.01 -0.49,-0.03z"/>
   <path class="fil0" d="M50.64 4.77l0 0 -0.03 0c-0.07,-0.01 -0.14,-0.02 -0.22,-0.03l0 0 -0.03 0c-0.05,-0.01 -0.11,-0.02 -0.16,-0.03l0 0 0 0c-0.04,-0.01 -0.07,-0.01 -0.11,-0.02l0 -0.01 -0.02 0c-0.03,0 -0.06,-0.01 -0.09,-0.02l0 0 -0.02 0c-0.03,-0.01 -0.06,-0.02 -0.09,-0.03l0 0 0 0c-0.06,-0.02 -0.11,-0.03 -0.16,-0.05l0 -0.01 -0.01 0c-0.03,0 -0.05,-0.01 -0.07,-0.02l0 0 -0.01 0 -0.05 -0.02 0 -0.01 -0.01 0c-0.05,-0.02 -0.09,-0.04 -0.13,-0.06 -0.04,-0.01 -0.07,-0.03 -0.11,-0.04l0 -0.01 -0.01 0 -0.04 -0.02 0 -0.01 -0.02 0 -0.04 -0.02 0 0 -0.01 0 -0.04 -0.03 0 0 -0.01 0 -0.04 -0.03 0 0 -0.01 0c-0.03,-0.01 -0.05,-0.03 -0.08,-0.05l0 0 -0.01 0c-0.05,-0.04 -0.1,-0.07 -0.15,-0.11l0 0 -0.01 0c-0.03,-0.03 -0.07,-0.05 -0.1,-0.08l0 -0.01 -0.01 0 -0.02 -0.01 0 -0.01 -0.01 0 -0.02 -0.02 0 -0.01 -0.01 0c-0.03,-0.03 -0.07,-0.05 -0.1,-0.08l0 0 0 0 -0.02 -0.03 0 0 0 0c-0.02,-0.02 -0.04,-0.03 -0.06,-0.05l0 -0.01 0 0 -0.02 -0.02 0 0 -0.01 0 -0.02 -0.03 0 0 0 0c-0.04,-0.04 -0.08,-0.08 -0.11,-0.12l0 -0.02 -0.02 0 -0.01 -0.01 0 -0.01 -0.01 0 -0.02 -0.03 0 0 0 0c-0.03,-0.04 -0.05,-0.07 -0.08,-0.11l0 0 0 0c-0.04,-0.05 -0.07,-0.11 -0.11,-0.16l0 -0.01 0 0 -0.03 -0.03 0 -0.02 -0.01 0 -0.01 -0.03 0 -0.03 -0.02 0 -0.01 -0.02 0 0 0 0 -0.03 -0.05 0 -0.01 0 0 -0.03 -0.04 0 -0.01 0 0 -0.02 -0.05 0 -0.01 -0.01 0c-0.01,-0.02 -0.01,-0.04 -0.02,-0.06 -0.02,-0.04 -0.04,-0.07 -0.05,-0.11l0 -0.02 -0.01 0 -0.02 -0.05 0 0 0 0c-0.01,-0.03 -0.02,-0.05 -0.03,-0.08l0 -0.01 0 0c-0.03,-0.07 -0.06,-0.16 -0.08,-0.24l0 0 0 0c-0.01,-0.03 -0.02,-0.07 -0.03,-0.1l0 -0.01 0 0c-0.01,-0.03 -0.02,-0.07 -0.03,-0.1l0 -0.01 0 0c-0.02,-0.1 -0.04,-0.2 -0.05,-0.29l0 -0.04 -0.01 0c-0.01,-0.08 -0.01,-0.16 -0.02,-0.24l0 -0.01 0 0c0,-0.06 -0.01,-0.12 -0.01,-0.19l0.01 0 0 -0.24 0 -0.05 0.13 -0.04 0.01 0 0 0 0.07 -0.02 0.01 0 0 -0.01 0.08 -0.02 0 0 0 0 0.08 -0.03 0.03 0 0 -0.01 0.06 -0.02 0.02 0 0 0 0.07 -0.02 0.04 0 0 -0.02 0.05 -0.01 0.04 0 0 -0.01 0.05 -0.02 0.03 0 0 -0.01 0.06 -0.02 0.05 0 0 -0.01 0.05 -0.01 0.03 0 0 -0.01 0.07 -0.02 0.04 0 0 -0.01 0.05 -0.02 0.03 0 0 -0.01 0.07 -0.02 0.01 0 0 0 0.09 -0.02 0.02 0 0 -0.01c0.07,-0.01 0.13,-0.03 0.19,-0.05l0.01 0 0 0 0.1 -0.03 0 0 0 0 0.11 -0.02 0 0 0 0 0.11 -0.03 0.03 0 0 -0.01 0.08 -0.02 0.03 0 0 0 0.09 -0.02 0.05 0 0 -0.02 0.07 -0.01 0.04 0 0 -0.01 0.08 -0.02 0.05 0 0 -0.01 0.08 -0.02 0.06 0 0 -0.01 0.07 -0.01 0.04 0 0 -0.01 0.09 -0.02 0.05 0 0 -0.01 0.09 -0.02 0.02 0 0 0 0.12 -0.03 0.01 0 0 0c0.1,-0.02 0.19,-0.03 0.29,-0.05l0.02 0 0 0 0.14 -0.03 0.05 0 0 -0.01 0.11 -0.02 0.08 0 0 -0.01 0.1 -0.01 0.06 0 0 -0.01 0.12 -0.02 0.07 0 0 -0.01 0.12 -0.02 0.08 0 0 -0.01 0.13 -0.02 0.06 0 0 0 0.16 -0.02 0 0 0 0c0.08,-0.01 0.16,-0.02 0.24,-0.03l0.04 0 0 0c0.07,-0.01 0.15,-0.02 0.23,-0.03l0.12 0 0 -0.01c0.06,-0.01 0.12,-0.01 0.18,-0.02l0.18 0 0 -0.01c0.06,0 0.12,-0.01 0.19,-0.01l0.14 0 0 -0.01c0.11,-0.01 0.22,-0.01 0.34,-0.02l0.08 0 0.02 0.03 0 0 0 0c0.02,0.04 0.03,0.08 0.05,0.12l0 0.01 0.01 0 0.02 0.05 0 0.04 0.01 0 0.02 0.03 0 0.02 0 0 0.02 0.06 0 0.02 0.01 0 0.02 0.06 0 0.03 0.01 0c0.01,0.05 0.03,0.11 0.04,0.17l0 0.02 0.01 0c0.01,0.03 0.02,0.06 0.02,0.1l0 0.06 0.02 0c0,0.03 0.01,0.06 0.01,0.08l0 0.06 0.01 0c0.01,0.05 0.01,0.1 0.02,0.15l0 0.01 0 0c0.02,0.27 0.02,0.54 -0.02,0.8l-0.01 0 0 0.06c-0.01,0.03 -0.01,0.07 -0.02,0.1l-0.01 0 0 0.05c0,0.03 -0.01,0.06 -0.02,0.09l-0.01 0 0 0.03c-0.01,0.06 -0.03,0.12 -0.05,0.19l0 0 0 0 -0.02 0.05 -0.01 0 0 0.03 -0.02 0.05 0 0 0 0.03 -0.03 0.06 0 0 0 0.01 -0.02 0.04 -0.01 0 0 0.03 -0.02 0.05 -0.01 0 0 0.01c-0.02,0.05 -0.05,0.11 -0.07,0.16l-0.01 0 0 0.01 -0.02 0.04 -0.01 0 0 0.01 -0.02 0.05 0 0 0 0c-0.02,0.03 -0.03,0.05 -0.05,0.08l-0.01 0 0 0.02 -0.02 0.03 -0.01 0 0 0.01c-0.01,0.03 -0.03,0.05 -0.04,0.08l-0.01 0 0 0.01c-0.04,0.06 -0.09,0.12 -0.13,0.18l-0.01 0 0 0.01 -0.01 0.02 -0.02 0 0 0.01c-0.02,0.03 -0.05,0.06 -0.07,0.1l-0.01 0 0 0 -0.02 0.02 0 0 0 0.01 -0.02 0.02 -0.01 0 0 0.01 -0.02 0.02 -0.01 0 0 0.01 -0.01 0.02 -0.02 0 0 0.01c-0.06,0.06 -0.12,0.12 -0.18,0.18l-0.01 0 0 0 -0.02 0.02 -0.01 0 0 0.01c-0.03,0.02 -0.06,0.05 -0.09,0.08l-0.02 0 0 0.01 -0.01 0.01 -0.01 0 0 0.01 -0.03 0.02 0 0 0 0 -0.04 0.03 -0.02 0 0 0.01 -0.01 0.02 -0.01 0 0 0c-0.04,0.03 -0.08,0.05 -0.11,0.08 -0.05,0.03 -0.09,0.05 -0.14,0.08l0 0 0 0 -0.04 0.03 -0.01 0 0 0c-0.11,0.06 -0.22,0.12 -0.33,0.16l0 0 0 0.01c-0.04,0.01 -0.09,0.03 -0.13,0.05l-0.01 0 0 0c-0.08,0.03 -0.15,0.06 -0.23,0.08l-0.02 0 0 0c-0.06,0.02 -0.12,0.04 -0.19,0.05l0 0 0 0c-0.09,0.03 -0.19,0.04 -0.29,0.06l-0.04 0 0 0c-0.07,0.01 -0.14,0.02 -0.21,0.03l-0.01 0 0 0c-0.15,0.01 -0.31,0.01 -0.46,0z"/>
   <path class="fil0" d="M47.74 11.91c-2,0 -3.61,1.62 -3.61,3.61 0,1.21 0.61,2.35 1.62,3.01 1.08,0.7 2.44,0.8 3.6,0.26 0.74,-0.33 1.33,-0.92 1.64,-1.66 0.54,-1.16 0.45,-2.52 -0.25,-3.59 -0.66,-1.02 -1.79,-1.63 -3,-1.63z"/>
   <path class="fil0" d="M47.52 29.54c-1.85,0 -3.34,1.5 -3.34,3.34 0,1.09 0.53,2.11 1.42,2.74 0.93,0.64 2.12,0.78 3.18,0.37 0.86,-0.31 1.53,-0.99 1.85,-1.85 0.4,-1.05 0.26,-2.24 -0.38,-3.17 -0.62,-0.89 -1.64,-1.42 -2.73,-1.43z"/>
   <path class="fil0" d="M37.45 12.05c0.74,-0.33 1.32,-0.92 1.65,-1.66 0.58,-1.27 0.44,-2.75 -0.38,-3.88 -1.72,1.66 -3.17,3.56 -4.32,5.66 0.99,0.37 2.09,0.33 3.05,-0.12z"/>
  </g>
  <g id="_1879697908848">
   <path class="fil1" d="M42.05 62.89l0 -5.13c0,-0.86 -0.21,-1.66 -0.67,-2.39 -0.45,-0.71 -1.04,-1.28 -1.78,-1.69 -0.74,-0.4 -1.52,-0.61 -2.36,-0.61 -0.76,0 -1.49,0.18 -2.18,0.52l-0.59 0.29 0 -3.95c0,-0.29 -0.1,-0.52 -0.3,-0.73 -0.2,-0.2 -0.43,-0.3 -0.71,-0.3 -0.29,0 -0.52,0.1 -0.72,0.3 -0.2,0.21 -0.3,0.44 -0.3,0.73l0 12.96c0,0.28 0.09,0.52 0.3,0.72 0.2,0.2 0.43,0.29 0.72,0.29 0.28,0 0.51,-0.09 0.71,-0.29 0.21,-0.2 0.3,-0.44 0.3,-0.72l0 -5.11c0,-0.36 0.08,-0.7 0.22,-1.02 0.22,-0.52 0.57,-0.93 1.05,-1.22 0.46,-0.27 0.96,-0.41 1.49,-0.41 0.47,0 0.91,0.1 1.33,0.31 0.43,0.21 0.77,0.52 1.04,0.91 0.28,0.43 0.4,0.92 0.4,1.43l0 5.11c0,0.29 0.1,0.52 0.31,0.72 0.2,0.2 0.44,0.29 0.72,0.29 0.29,0 0.52,-0.1 0.72,-0.29 0.2,-0.2 0.3,-0.43 0.3,-0.72z"/>
   <path class="fil0" d="M58.27 64.13c0.29,0 0.52,-0.1 0.72,-0.3 0.2,-0.21 0.3,-0.44 0.3,-0.73 0,-0.28 -0.1,-0.52 -0.3,-0.72 -0.2,-0.2 -0.43,-0.29 -0.72,-0.29 -0.28,0 -0.52,0.09 -0.72,0.29 -0.2,0.2 -0.29,0.44 -0.29,0.72 0,0.29 0.09,0.52 0.3,0.73 0.2,0.2 0.43,0.3 0.71,0.3z"/>
   <path class="fil1" d="M55.33 56.54c-0.44,-1.02 -1.13,-1.83 -2.04,-2.45 -0.47,-0.29 -0.97,-0.53 -1.49,-0.7 -0.55,-0.16 -1.11,-0.25 -1.69,-0.25 -0.76,0 -1.49,0.15 -2.2,0.44 -0.5,0.2 -0.96,0.49 -1.38,0.83 -0.42,0.34 -0.79,0.73 -1.1,1.18 -0.31,0.45 -0.55,0.95 -0.72,1.47 -0.18,0.54 -0.25,1.11 -0.25,1.67 0,1 0.25,1.92 0.76,2.77 0.51,0.85 1.2,1.53 2.06,2.02 0.88,0.51 1.82,0.75 2.83,0.75 1.02,0 1.96,-0.24 2.84,-0.75 0.87,-0.5 1.56,-1.17 2.07,-2.03 0.51,-0.86 0.76,-1.79 0.76,-2.78 0,-0.76 -0.15,-1.48 -0.45,-2.17zm-5.22 5.69c-0.64,0 -1.25,-0.16 -1.81,-0.47 -0.55,-0.31 -1,-0.74 -1.32,-1.28 -0.33,-0.55 -0.49,-1.14 -0.49,-1.77 0,-0.47 0.11,-0.93 0.29,-1.37 0.28,-0.63 0.72,-1.15 1.3,-1.55l0.01 0c0.29,-0.19 0.61,-0.34 0.94,-0.44l0.01 -0.01c0.35,-0.1 0.71,-0.15 1.07,-0.15 0.49,0 0.97,0.09 1.42,0.28 0.67,0.27 1.21,0.7 1.59,1.28 0.2,0.28 0.35,0.59 0.45,0.91 0.11,0.34 0.18,0.69 0.18,1.05 0,0.63 -0.17,1.23 -0.5,1.77 -0.33,0.54 -0.77,0.97 -1.32,1.28 -0.57,0.31 -1.17,0.47 -1.82,0.47z"/>
   <path class="fil1" d="M21.87 54.1c-0.02,-0.26 -0.13,-0.47 -0.32,-0.65 -0.2,-0.18 -0.42,-0.27 -0.69,-0.27 -0.27,0 -0.5,0.09 -0.7,0.27 -0.19,0.18 -0.29,0.39 -0.32,0.65l0 5.21c0,0.87 0.21,1.67 0.67,2.41 0.44,0.72 1.04,1.28 1.78,1.69 0.74,0.4 1.53,0.61 2.37,0.61 0.84,0 1.62,-0.22 2.36,-0.62l0.33 -0.18 0.21 0.32c0.09,0.16 0.22,0.28 0.38,0.37 0.15,0.09 0.32,0.14 0.5,0.14 0.28,0 0.51,-0.1 0.72,-0.3 0.2,-0.2 0.29,-0.43 0.29,-0.72l0 -8.82c0,-0.29 -0.09,-0.52 -0.3,-0.73 -0.2,-0.2 -0.43,-0.3 -0.71,-0.3 -0.29,0 -0.52,0.1 -0.73,0.31 -0.2,0.2 -0.3,0.43 -0.3,0.72l0 5.1c0,0.52 -0.13,1 -0.42,1.43 -0.27,0.39 -0.62,0.7 -1.05,0.91 -0.42,0.21 -0.88,0.31 -1.35,0.31 -0.57,0 -1.1,-0.15 -1.58,-0.47 -0.5,-0.33 -0.83,-0.82 -1,-1.39 -0.09,-0.25 -0.14,-0.52 -0.14,-0.79l0 -5.21z"/>
   <path class="fil1" d="M17.19 62.89l0 -5.11c0,-0.85 -0.21,-1.63 -0.64,-2.35 -0.43,-0.73 -1.02,-1.3 -1.75,-1.72 -0.75,-0.43 -1.55,-0.64 -2.42,-0.64 -0.66,0 -1.3,0.13 -1.91,0.39 -0.6,0.26 -1.13,0.62 -1.58,1.09l-0.3 0.31 -0.29 -0.31c-0.45,-0.47 -0.98,-0.83 -1.58,-1.09 -0.61,-0.26 -1.24,-0.39 -1.9,-0.39 -0.85,0 -1.64,0.22 -2.39,0.61l-0.33 0.18 -0.2 -0.32c-0.1,-0.15 -0.23,-0.27 -0.39,-0.36 -0.15,-0.09 -0.32,-0.14 -0.5,-0.14 -0.28,0 -0.51,0.1 -0.71,0.3 -0.2,0.21 -0.3,0.44 -0.3,0.73l0 8.82c0,0.28 0.09,0.52 0.3,0.72 0.2,0.2 0.43,0.29 0.71,0.29 0.29,0 0.52,-0.09 0.72,-0.29 0.2,-0.2 0.3,-0.44 0.3,-0.72l0 -5.11c0,-0.52 0.13,-1 0.42,-1.43 0.26,-0.4 0.62,-0.7 1.05,-0.91 0.42,-0.21 0.87,-0.31 1.35,-0.31 0.57,0 1.1,0.15 1.57,0.47 0.51,0.33 0.84,0.81 1.03,1.39 0.08,0.25 0.11,0.52 0.11,0.79l0 5.11c0,0.29 0.1,0.52 0.31,0.72 0.2,0.2 0.44,0.29 0.72,0.29 0.29,0 0.52,-0.1 0.72,-0.29 0.2,-0.2 0.3,-0.43 0.3,-0.72l0 -5.11c0,-0.51 0.13,-1 0.41,-1.42 0.27,-0.4 0.63,-0.71 1.06,-0.93 0.42,-0.21 0.87,-0.32 1.35,-0.32 0.57,0 1.1,0.16 1.58,0.48 0.5,0.34 0.83,0.82 1.01,1.4l0.01 0.01 0 0.01c0.07,0.25 0.11,0.51 0.11,0.77l0 5.11c0,0.28 0.1,0.52 0.3,0.72 0.2,0.2 0.43,0.29 0.72,0.29 0.28,0 0.52,-0.09 0.72,-0.29 0.2,-0.21 0.3,-0.44 0.31,-0.72z"/>
   <path class="fil2" d="M101.83 62.5c0.45,0.35 0.95,0.62 1.47,0.8 0.6,0.19 1.23,0.28 1.86,0.28 0.63,0 1.24,-0.14 1.83,-0.36 0.52,-0.2 0.99,-0.48 1.42,-0.83l0.18 -0.16c0.05,-0.04 0.09,-0.1 0.12,-0.16 0.03,-0.06 0.04,-0.12 0.04,-0.19 0,-0.14 -0.04,-0.24 -0.14,-0.34 -0.1,-0.1 -0.2,-0.14 -0.34,-0.14 -0.13,0 -0.23,0.04 -0.33,0.13l-0.02 0.01c-0.38,0.33 -0.81,0.59 -1.28,0.77 -0.48,0.19 -0.97,0.29 -1.48,0.29 -0.61,0 -1.22,-0.1 -1.79,-0.32 -0.35,-0.14 -0.67,-0.34 -0.97,-0.58l-0.01 -0.01 -0.01 0c-0.43,-0.37 -0.75,-0.82 -0.98,-1.33l-0.01 -0.02 -0.01 -0.01c-0.23,-0.57 -0.33,-1.16 -0.33,-1.77 0,-0.71 0.16,-1.39 0.51,-2.02 0.33,-0.61 0.79,-1.11 1.38,-1.48 0.58,-0.36 1.23,-0.56 1.92,-0.56 0.76,0 1.49,0.18 2.13,0.59 0.64,0.41 1.1,0.97 1.4,1.66 0.19,0.42 0.26,0.87 0.27,1.31l-4.36 0c-0.15,0 -0.24,0.04 -0.34,0.14 -0.1,0.11 -0.14,0.21 -0.14,0.36 0,0.14 0.03,0.24 0.14,0.34 0.1,0.1 0.19,0.14 0.34,0.14l4.94 0c0.14,0 0.24,-0.04 0.34,-0.14 0.1,-0.1 0.14,-0.2 0.14,-0.34 0,-0.91 -0.19,-1.78 -0.63,-2.58 -0.41,-0.76 -0.98,-1.36 -1.72,-1.8 -0.77,-0.46 -1.61,-0.65 -2.5,-0.65l-0.01 0c-0.85,0 -1.63,0.22 -2.36,0.66 -0.75,0.46 -1.33,1.07 -1.76,1.84 -0.45,0.78 -0.66,1.63 -0.66,2.53 0,0.66 0.1,1.31 0.33,1.94 0.16,0.44 0.38,0.85 0.67,1.22 0.22,0.29 0.47,0.55 0.75,0.78z"/>
   <path class="fil2" d="M98.72 54.25l-0.1 -0.04c-0.74,-0.25 -1.54,-0.44 -2.32,-0.44 -0.65,0 -1.27,0.12 -1.84,0.43 -0.39,0.22 -0.8,0.57 -1.09,0.89 -0.01,-0.35 0.03,-0.99 -0.1,-1.15 -0.05,-0.06 -0.1,-0.1 -0.17,-0.13 -0.07,-0.04 -0.14,-0.05 -0.21,-0.05 -0.15,0 -0.24,0.04 -0.34,0.14 -0.11,0.1 -0.14,0.2 -0.14,0.34l0 8.68c0,0.14 0.03,0.24 0.14,0.34 0.1,0.1 0.19,0.14 0.34,0.14 0.14,0 0.24,-0.04 0.34,-0.14 0.1,-0.1 0.14,-0.2 0.14,-0.34l0 -4.96c0,-0.32 0.06,-0.65 0.14,-0.96 0.11,-0.43 0.3,-0.82 0.55,-1.19 0.32,-0.46 0.76,-0.78 1.3,-0.95l0.02 0c0.29,-0.09 0.6,-0.12 0.9,-0.12 0.7,0 1.41,0.17 2.06,0.4l0.02 0.01c0.05,0.02 0.1,0.02 0.15,0.02 0.15,0 0.25,-0.04 0.35,-0.14 0.1,-0.1 0.14,-0.2 0.14,-0.34 0,-0.1 -0.03,-0.19 -0.09,-0.27 -0.05,-0.08 -0.11,-0.13 -0.19,-0.17z"/>
   <path class="fil2" d="M87.09 54.54c-0.43,-0.27 -0.89,-0.49 -1.35,-0.64 -0.5,-0.15 -1.01,-0.23 -1.54,-0.23 -0.68,0 -1.35,0.14 -1.99,0.4 -0.45,0.18 -0.87,0.44 -1.25,0.75 -0.38,0.31 -0.72,0.67 -1,1.07 -0.28,0.41 -0.5,0.86 -0.65,1.34 -0.16,0.48 -0.22,1 -0.22,1.5 0,0.9 0.22,1.73 0.68,2.5 0.47,0.77 1.09,1.38 1.87,1.83 0.79,0.46 1.65,0.68 2.56,0.68 0.92,0 1.78,-0.22 2.58,-0.68 0.78,-0.45 1.41,-1.06 1.87,-1.84 0.46,-0.78 0.69,-1.61 0.69,-2.51 0,-0.68 -0.14,-1.33 -0.41,-1.95 -0.4,-0.93 -1.01,-1.66 -1.84,-2.22zm0.57 1.92c0.22,0.32 0.4,0.67 0.51,1.05 0.13,0.38 0.2,0.79 0.2,1.2 0,0.73 -0.19,1.42 -0.57,2.05 -0.38,0.62 -0.89,1.11 -1.52,1.46 -0.64,0.36 -1.34,0.54 -2.08,0.54 -0.73,0 -1.43,-0.18 -2.07,-0.54 -0.63,-0.35 -1.14,-0.84 -1.51,-1.47 -0.38,-0.62 -0.57,-1.31 -0.57,-2.04 0,-0.54 0.12,-1.07 0.33,-1.56l0.01 -0.02c0.32,-0.73 0.82,-1.32 1.47,-1.77l0.02 -0.01 0.01 -0.01c0.33,-0.22 0.69,-0.38 1.07,-0.5l0.01 -0.01 0.02 0c0.39,-0.11 0.8,-0.18 1.21,-0.18 0.56,0 1.11,0.11 1.63,0.33 0.75,0.3 1.38,0.8 1.83,1.48z"/>
   <path class="fil2" d="M76.57 62.34l-0.01 0 -0.03 0c-0.24,0.03 -0.5,0.07 -0.74,0.07 -0.56,0 -1.12,-0.14 -1.55,-0.53 -0.46,-0.42 -0.61,-1.01 -0.61,-1.61l0 -5.89 2.91 0c0.15,0 0.24,-0.04 0.35,-0.14 0.1,-0.11 0.15,-0.2 0.15,-0.35 0,-0.14 -0.05,-0.24 -0.15,-0.34 -0.1,-0.1 -0.2,-0.14 -0.35,-0.14l-2.91 0 0 -3.65c0,-0.14 -0.04,-0.24 -0.14,-0.34 -0.11,-0.1 -0.2,-0.14 -0.35,-0.14 -0.14,0 -0.24,0.04 -0.34,0.14 -0.1,0.1 -0.14,0.2 -0.14,0.34l0 3.65 -1.81 0c-0.15,0 -0.24,0.04 -0.34,0.14 -0.11,0.1 -0.14,0.2 -0.14,0.34 0,0.15 0.04,0.25 0.14,0.35 0.1,0.1 0.2,0.14 0.34,0.14l1.81 0 0 5.81c0,0.59 0.11,1.17 0.38,1.7 0.24,0.47 0.58,0.82 1.03,1.08 0.54,0.3 1.16,0.4 1.76,0.4 0.18,0 0.36,-0.01 0.54,-0.03l0.34 -0.04c0.12,-0.02 0.2,-0.07 0.28,-0.16 0.08,-0.1 0.12,-0.19 0.12,-0.32 0,-0.14 -0.04,-0.24 -0.14,-0.34 -0.11,-0.1 -0.2,-0.14 -0.35,-0.14 -0.01,0 -0.03,0 -0.05,0z"/>
   <path class="fil2" d="M65.04 58.01c-0.25,-0.05 -0.53,-0.11 -0.77,-0.21 -0.21,-0.07 -0.41,-0.16 -0.61,-0.27 -0.32,-0.17 -0.6,-0.41 -0.74,-0.76l-0.07 -0.16 0 -0.08c-0.01,-0.06 -0.01,-0.13 -0.01,-0.19 0,-0.27 0.04,-0.54 0.15,-0.79 0.16,-0.38 0.48,-0.62 0.85,-0.77 0.36,-0.14 0.77,-0.17 1.15,-0.17 0.4,0 0.8,0.04 1.19,0.16 0.32,0.11 0.64,0.24 0.95,0.38 0.08,0.04 0.16,0.07 0.23,0.11 0.03,0.02 0.06,0.03 0.09,0.04l0.06 0.03 0.05 0.02c0.04,0.02 0.11,0.03 0.16,0.04l0.01 0 0.06 0.01c0.12,-0.01 0.21,-0.05 0.3,-0.14 0.1,-0.11 0.14,-0.21 0.14,-0.36 0,-0.09 -0.01,-0.17 -0.06,-0.25 -0.05,-0.08 -0.12,-0.14 -0.2,-0.18 -0.39,-0.2 -0.8,-0.39 -1.21,-0.54 -0.58,-0.2 -1.18,-0.31 -1.8,-0.31 -0.57,0 -1.12,0.09 -1.64,0.33 -0.44,0.21 -0.8,0.5 -1.06,0.9 -0.29,0.44 -0.38,0.95 -0.38,1.46l0 0.03c0,0.65 0.19,1.18 0.69,1.6 0.67,0.55 1.53,0.87 2.35,1.06 0.48,0.1 0.96,0.23 1.42,0.39 0.56,0.18 1.12,0.49 1.33,1.07l0.07 0.16 0 0.09c0.01,0.07 0.01,0.14 0.01,0.21 0,0.66 -0.35,1.2 -0.96,1.47 -0.43,0.19 -0.9,0.26 -1.36,0.26 -0.57,0 -1.14,-0.09 -1.67,-0.29 -0.43,-0.15 -0.84,-0.36 -1.23,-0.6l0 0 -0.23 -0.14c-0.09,-0.05 -0.18,-0.09 -0.28,-0.09 -0.14,0 -0.24,0.04 -0.34,0.14 -0.1,0.11 -0.14,0.2 -0.14,0.35 0,0.09 0.02,0.18 0.07,0.26 0.05,0.09 0.12,0.15 0.21,0.19l0.04 0.02 0.05 0.03c0.53,0.34 1.11,0.63 1.72,0.83 0.58,0.18 1.19,0.26 1.8,0.26 0.63,0 1.27,-0.1 1.84,-0.38 0.44,-0.23 0.83,-0.54 1.09,-0.97 0.25,-0.41 0.37,-0.86 0.37,-1.34 0,-0.52 -0.12,-1.02 -0.48,-1.41 -0.36,-0.39 -0.79,-0.7 -1.29,-0.9 -0.62,-0.25 -1.27,-0.44 -1.92,-0.6z"/>
  </g>
 </g>
</svg>
