<?xml version="1.0" encoding="UTF-8"?>
<!DOCTYPE svg PUBLIC "-//W3C//DTD SVG 1.0//EN" "http://www.w3.org/TR/2001/REC-SVG-20010904/DTD/svg10.dtd">
<!-- Creator: CorelDRAW 2020 (64-Bit) -->
<svg xmlns="http://www.w3.org/2000/svg" xml:space="preserve" width="142px" height="31px" version="1.0" style="shape-rendering:geometricPrecision; text-rendering:geometricPrecision; image-rendering:optimizeQuality; fill-rule:evenodd; clip-rule:evenodd"
viewBox="0 0 305.78 66.74"
 xmlns:xlink="http://www.w3.org/1999/xlink"
 xmlns:xodm="http://www.corel.com/coreldraw/odm/2003">
 <defs>
  <style type="text/css">
   <![CDATA[
    .fil1 {fill:#333333}
    .fil2 {fill:#666666}
    .fil0 {fill:#FA370F}
   ]]>
  </style>
 </defs>
 <g id="Слой_x0020_1">
  <metadata id="CorelCorpID_0Corel-Layer"/>
  <g id="_1879828725184">
   <g>
    <path class="fil0" d="M68.05 37.94c-0.44,0.78 -1.09,1.43 -1.87,1.87 -0.97,0.55 -2.06,0.84 -3.18,0.85 -1.04,0 -2.07,-0.27 -2.97,-0.8 -2.8,-1.66 -3.73,-5.26 -2.08,-8.06 1.65,-2.8 5.26,-3.73 8.06,-2.08 1.78,1.05 2.88,2.97 2.89,5.04 -0.01,1.12 -0.3,2.21 -0.86,3.18l0.01 0zm-60.89 11.3l0 -0.01 -0.28 0c-0.17,-0.01 -0.34,-0.02 -0.51,-0.05l0 0 0 0c-0.08,-0.01 -0.16,-0.02 -0.24,-0.03l0 -0.01 -0.08 0c-0.07,-0.02 -0.14,-0.03 -0.21,-0.05l0 0 -0.04 0c-0.07,-0.02 -0.14,-0.04 -0.21,-0.05l0 0 0 0c-0.12,-0.03 -0.23,-0.06 -0.34,-0.1l0 0 -0.02 0c-0.04,-0.01 -0.09,-0.03 -0.13,-0.04l0 -0.01 -0.03 0c-0.04,-0.01 -0.08,-0.03 -0.12,-0.04l0 -0.01 -0.03 0 -0.11 -0.04 0 -0.01 -0.02 0c-0.16,-0.06 -0.32,-0.12 -0.47,-0.19l0 0 -0.01 0 -0.09 -0.05 0 0 -0.02 0 -0.08 -0.04 0 -0.01 -0.02 0 -0.08 -0.04 0 -0.01 -0.02 0 -0.08 -0.04 0 -0.01 -0.01 0 -0.08 -0.05 0 0 -0.01 0c-0.04,-0.02 -0.09,-0.05 -0.13,-0.07 -0.04,-0.02 -0.07,-0.04 -0.11,-0.06l0 -0.02 -0.02 0 -0.08 -0.04 0 -0.01 0 0 -0.05 -0.02 0 -0.02 -0.03 0 -0.07 -0.04 0 -0.01 -0.01 0 -0.03 -0.02 0 -0.03 -0.05 0 -0.05 -0.04 0 -0.01 -0.02 0 -0.03 -0.02 0 -0.03 -0.04 0 -0.06 -0.04 0 -0.01 -0.01 0 -0.04 -0.03 0 -0.02 -0.03 0 -0.07 -0.05 0 0 0 0 -0.05 -0.03 0 -0.02 -0.01 0c-0.18,-0.14 -0.36,-0.28 -0.53,-0.44l0 0 0 0 -0.04 -0.04 0 -0.01 -0.01 0 -0.04 -0.04 0 -0.01 -0.01 0 -0.04 -0.04 0 -0.01 -0.01 0 -0.04 -0.03 0 -0.01 -0.01 0 -0.04 -0.04 0 -0.01 -0.01 0 -0.04 -0.04 0 -0.01 -0.01 0 -0.04 -0.05 0 0 0 0 -0.05 -0.05 0 0 0 0c-0.08,-0.09 -0.16,-0.18 -0.24,-0.28l0 -0.01 -0.02 0 -0.03 -0.05 0 0 -0.01 0c-0.03,-0.04 -0.06,-0.08 -0.09,-0.12l0 -0.03 -0.02 0 -0.03 -0.03 0 -0.02 -0.01 0 -0.04 -0.05 0 0 0 0 -0.05 -0.06 0 -0.04 -0.02 0 -0.03 -0.03 0 -0.02 -0.01 0c-0.03,-0.04 -0.06,-0.08 -0.08,-0.12l0 -0.02 -0.02 0c-0.03,-0.05 -0.05,-0.09 -0.08,-0.13l0 -0.02 -0.01 0c-0.09,-0.13 -0.16,-0.26 -0.24,-0.4l0 -0.04 -0.02 0 -0.03 -0.05 0 -0.05 -0.02 0 -0.03 -0.04 0 -0.06 -0.02 0 -0.02 -0.04 0 -0.06 -0.03 0 -0.02 -0.04 0 -0.05 -0.03 0 -0.02 -0.06 0 -0.04 -0.02 0 -0.03 -0.07 0 -0.03 -0.02 0 -0.03 -0.08 0 -0.02 -0.01 0 -0.04 -0.1c-0.02,-0.05 -0.03,-0.09 -0.05,-0.13l0 -0.01 0 0c-0.02,-0.05 -0.03,-0.09 -0.05,-0.13l0 -0.07 -0.02 0 -0.03 -0.08 0 -0.07 -0.02 0 -0.03 -0.09 0 -0.1 -0.02 0 -0.02 -0.08 0 -0.07 -0.02 0c-0.01,-0.04 -0.02,-0.08 -0.03,-0.13l0 -0.07 -0.02 0c-0.03,-0.14 -0.06,-0.28 -0.08,-0.42l0 -0.12 -0.02 0c-0.01,-0.07 -0.02,-0.15 -0.03,-0.23l0 -0.3 -0.03 0c-0.01,-0.18 -0.02,-0.37 -0.02,-0.55l0 -0.16c0,-0.65 0.01,-1.3 0.04,-1.94l0.01 0 0 -0.11c0.01,-0.22 0.02,-0.45 0.04,-0.68l0.01 0 0 -0.15c0.01,-0.16 0.02,-0.32 0.03,-0.49l0.02 0 0 -0.16c0.01,-0.16 0.03,-0.31 0.04,-0.47l0.01 0 0 -0.07c0.02,-0.27 0.05,-0.54 0.08,-0.82l0.01 0 0 -0.08 0.04 -0.31 0.01 0 0 -0.08 0.04 -0.31 0.01 0 0 -0.06 0.04 -0.28 0.01 0 0 -0.06c0.03,-0.21 0.06,-0.42 0.1,-0.63l0 0 0 -0.01 0.05 -0.28 0 0 0 -0.01 0.04 -0.24 0.01 0 0 -0.05 0.03 -0.19 0.02 0 0 -0.08 0.04 -0.22 0.01 0 0 -0.04 0.03 -0.2 0.01 0 0 -0.05 0.05 -0.25 0 0 0 0c0.05,-0.23 0.1,-0.46 0.15,-0.68l0 0 0 -0.01 0.04 -0.19 0.01 0 0 -0.03 0.04 -0.17 0.01 0 0 -0.05 0.05 -0.19 0 0 0 -0.01 0.04 -0.19 0.01 0 0 -0.02 0.04 -0.17 0.01 0 0 -0.03 0.04 -0.17 0.01 0 0 -0.02 0.04 -0.18 0 0 0 -0.02 0.05 -0.17 0 0 0 -0.01c0.05,-0.18 0.1,-0.36 0.15,-0.53l0 0 0 -0.02c0.03,-0.11 0.06,-0.22 0.09,-0.33l0.01 0 0 -0.01 0.04 -0.13 0.01 0 0 -0.04 0.04 -0.16 0.01 0 0 -0.01 0.04 -0.14 0.01 0 0 -0.02 0.03 -0.12 0.01 0 0 -0.05 0.05 -0.15 0 0 0 -0.01 0.05 -0.14 0 0 0 -0.01c0.11,-0.34 0.22,-0.68 0.34,-1.02l0.01 0 0 -0.03 0.04 -0.11 0 0 0 -0.03 0.05 -0.12 0 0 0 -0.02 0.05 -0.13 0 0 0 -0.01 0.05 -0.13 0 0 0 -0.01 0.09 -0.24 0.01 0 0 -0.03 0.04 -0.12 0.01 0 0 -0.01c0.11,-0.29 0.22,-0.58 0.33,-0.87l0.01 0 0 -0.02 0.09 -0.22 0.01 0 0 -0.03 0.09 -0.22 0.01 0 0 -0.02 0.09 -0.22 0.01 0 0 -0.01 0.03 -0.09 0.02 0 0 -0.03 0.09 -0.22 0 0 0 -0.01c0.05,-0.11 0.1,-0.22 0.15,-0.33l0 0 0 -0.01 0.05 -0.12c2.69,1.13 5.73,1.07 8.37,-0.15 2.12,-0.94 3.81,-2.64 4.72,-4.76 1.6,-3.49 1.12,-7.57 -1.24,-10.59 0.08,-0.07 0.17,-0.14 0.26,-0.21l0 0 0 -0.01 0.18 -0.14 0.02 0 0 -0.01 0.04 -0.04 0.01 0 0 0 0.12 -0.09 0.02 0 0 -0.03 0.04 -0.02 0.01 0 0 -0.02 0.05 -0.03 0 0 0 0 0.06 -0.05 0.04 0 0 -0.03 0.03 -0.02 0.02 0 0 -0.02 0.04 -0.03 0.01 0 0 -0.01 0.12 -0.09 0.03 0 0 -0.02 0.03 -0.03 0.01 0 0 -0.01 0.12 -0.08 0.03 0 0 -0.03 0.04 -0.02 0.01 0 0 -0.01 0.12 -0.09 0.03 0 0 -0.02 0.03 -0.03 0.02 0 0 -0.01 0.12 -0.09 0.02 0 0 -0.02 0.04 -0.03 0.01 0 0 0 0.13 -0.1 0.02 0 0 -0.01 0.05 -0.03 0 0 0 -0.01c0.27,-0.2 0.55,-0.39 0.83,-0.58l0 0 0 -0.01 0.07 -0.04 0.03 0 0 -0.02 0.04 -0.03 0.01 0 0 -0.01 0.06 -0.04 0.04 0 0 -0.02 0.04 -0.03 0.01 0 0 -0.01 0.06 -0.04 0.04 0 0 -0.02 0.03 -0.03 0.01 0 0 -0.01 0.07 -0.04 0.03 0 0 -0.02 0.04 -0.03 0.01 0 0 0 0.06 -0.04 0.04 0 0 -0.03 0.04 -0.02 0.01 0 0 -0.01 0.06 -0.04 0.04 0 0 -0.03 0.04 -0.02 0.01 0 0 -0.01 0.06 -0.04 0.03 0 0 -0.02 0.05 -0.03 0 0 0 0 0.07 -0.05 0.03 0 0 -0.02 0.13 -0.08 0.02 0 0 -0.01 0.13 -0.09 0.01 0 0 0 0.15 -0.09 0 0 0 0 0.24 -0.15 0.01 0 0 -0.01c0.16,-0.09 0.31,-0.19 0.47,-0.28l0.02 0 0 -0.01 0.23 -0.14 0.01 0 0 -0.01 0.08 -0.04 0.02 0 0 -0.02 0.06 -0.03 0.04 0 0 -0.02 0.04 -0.03 0.01 0 0 0 0.08 -0.05 0.02 0 0 -0.01 0.07 -0.04 0.02 0 0 -0.01 0.06 -0.04 0.04 0 0 -0.02 0.05 -0.02 0 0 0 -0.01 0.08 -0.04 0.02 0 0 -0.01 0.07 -0.04 0.03 0 0 -0.02 0.06 -0.03 0.04 0 0 -0.02 0.05 -0.03 0.04 0 0 -0.03 0.05 -0.02 0 0 0 0 0.09 -0.05 0.01 0 0 -0.01 0.08 -0.04 0.02 0 0 -0.01 0.07 -0.04 0.03 0 0 -0.01c0.11,-0.06 0.22,-0.12 0.34,-0.18l0 0 0 -0.01 0.09 -0.04 0.01 0 0 -0.01c0.15,-0.08 0.31,-0.16 0.46,-0.24l0.03 0 0 -0.01 0.07 -0.04 0.03 0 0 -0.01 0.07 -0.04 0.02 0 0 -0.01 0.08 -0.03 0.02 0 0 -0.02 0.08 -0.03 0.02 0 0 -0.02 0.08 -0.03 0.02 0 0 -0.01 0.08 -0.04 0.02 0 0 -0.01 0.08 -0.04 0.02 0 0 -0.01 0.08 -0.04 0.01 0 0 -0.01 0.09 -0.04 0.01 0 0 0 0.09 -0.05 0.06 0 0 -0.02 0.05 -0.03 0.05 0 0 -0.02 0.05 -0.03 0.04 0 0 -0.02 0.07 -0.03 0.03 0 0 -0.01 0.07 -0.03 0.03 0 0 -0.02 0.08 -0.03 0.02 0 0 -0.01 0.09 -0.04 0.01 0 0 -0.01c0.1,-0.04 0.21,-0.09 0.31,-0.14l0.03 0 0 -0.01 0.08 -0.04 0.02 0 0 0 0.21 -0.1c0.1,1.14 0.39,2.25 0.86,3.3 0.88,2.01 2.51,3.62 4.54,4.47 2.98,1.34 6.44,1.06 9.18,-0.73 3.41,-2.26 4.97,-6.48 3.86,-10.42l0.53 0c0.2,0.01 0.39,0.02 0.58,0.04l0 0.01 0.15 0c0.15,0.01 0.29,0.02 0.44,0.03l0 0.02 0.16 0c0.14,0.01 0.28,0.02 0.43,0.04l0 0.01 0.09 0c0.28,0.03 0.56,0.06 0.84,0.09l0 0.01 0.02 0c0.11,0.01 0.22,0.02 0.32,0.03l0 0.01 0.07 0c0.09,0.02 0.18,0.03 0.27,0.04l0 0.01 0.09 0c0.09,0.02 0.17,0.03 0.26,0.04l0 0.01 0.08 0 0.26 0.04 0 0.01 0.06 0 0.28 0.05 0 0 0.02 0c0.27,0.05 0.55,0.09 0.82,0.14l0 0.01 0.02 0c0.07,0.01 0.15,0.02 0.22,0.04l0 0.01 0.04 0c0.07,0.01 0.14,0.02 0.21,0.04l0 0.01 0.04 0 0.2 0.04 0 0 0.04 0c0.07,0.02 0.14,0.03 0.21,0.05l0 0 0.03 0 0.17 0.04 0 0.01 0.06 0 0.18 0.04 0 0.01 0.04 0 0.21 0.05 0 0 0.01 0c0.27,0.06 0.55,0.13 0.82,0.2l0 0 0 0 0.15 0.03 0 0.02 0.04 0 0.15 0.03 0 0.02 0.04 0 0.16 0.04 0 0 0.03 0 0.16 0.05 0 0 0.03 0 0.12 0.04 0 0.01 0.05 0 0.15 0.04 0 0.01 0.03 0 0.16 0.05 0 0 0.02 0c0.27,0.08 0.55,0.16 0.82,0.24l0 0.01 0.01 0 0.13 0.04 0 0 0.03 0 0.12 0.04 0 0.01 0.04 0 0.11 0.04 0 0.01 0.04 0 0.11 0.04 0 0.01 0.04 0 0.1 0.03 0 0.02 0.05 0 0.15 0.05 0 0 0 0 0.15 0.05 0 0 0 0c0.33,0.11 0.65,0.22 0.98,0.34l0 0 0 0c0.13,0.05 0.26,0.1 0.39,0.15l0 0 0.01 0 0.23 0.09 0 0.01 0.03 0 0.12 0.05 0 0 0 0 0.1 0.03 0 0.02 0.03 0 0.12 0.04 0 0 0.01 0 0.09 0.04 0 0.01 0.03 0 0.11 0.05 0 0 0.01 0 0.09 0.04 0 0.01 0.03 0 0.12 0.05 0 0 0.01 0 0.23 0.1 0 0 0 0c0.23,0.09 0.46,0.19 0.69,0.29l0 0 0 0 0.1 0.04 0 0.01 0.02 0c0.1,0.05 0.21,0.1 0.32,0.15l0 0 0.01 0 0.09 0.04 0 0.01 0.01 0 0.09 0.04 0 0.01 0.02 0 0.07 0.03 0 0.02 0.04 0c0.1,0.04 0.21,0.09 0.31,0.14l0 0 0 0 0.1 0.05 0 0 0.01 0 0.08 0.04 0 0.01 0.02 0 0.08 0.04 0 0.01 0.02 0c0.36,0.17 0.71,0.35 1.06,0.53l0 0.01 0.03 0 0.07 0.04 0 0.01 0.02 0 0.08 0.04 0 0.01 0.01 0 0.09 0.04 0 0.01 0.01 0 0.08 0.04 0 0.01 0.01 0 0.09 0.04 0 0 0 0c0.08,0.05 0.17,0.09 0.25,0.14l0 0.01 0.02 0 0.07 0.04 0 0.01 0.02 0 0.08 0.04 0 0.01 0.01 0 0.09 0.05 0 0 0.01 0c0.31,0.17 0.62,0.35 0.92,0.53l0 0.01 0.02 0 0.08 0.04 0 0.01 0.01 0 0.14 0.08 0 0.02 0.02 0 0.08 0.04 0 0 0 0 0.14 0.09 0 0.01 0.02 0 0.08 0.05 0 0 0.01 0 0.14 0.09 0 0.01 0.02 0 0.22 0.14 0 0.01 0.01 0 0.14 0.08 0 0.01 0.02 0c0.08,0.05 0.15,0.1 0.23,0.15l0 0 0 0c0.25,0.16 0.49,0.32 0.73,0.48l0 0.01 0.02 0 0.13 0.09 0 0.01 0.02 0 0.13 0.09 0 0.01 0.01 0 0.13 0.09 0 0.01 0.02 0 0.13 0.09 0 0 0.01 0 0.14 0.1 0 0 0 0 0.05 0.04 0 0.01 0.02 0 0.12 0.09 0 0.01 0.02 0 0.13 0.09 0 0.01 0 0c0.12,0.08 0.23,0.16 0.34,0.24l0 0 0 0 0.2 0.15 0 0 0 0 0.2 0.14 0 0.01 0 0c0.06,0.04 0.13,0.09 0.19,0.14l0 0 0.01 0 0.04 0.04 0 0.01 0.02 0 0.13 0.1 0 0 0 0 0.05 0.04 0 0.01 0.01 0c0.06,0.05 0.12,0.09 0.18,0.14l0 0.01 0.01 0 0.04 0.03 0 0.02 0.03 0 0.12 0.09 0 0 0 0 0.05 0.04 0 0.01 0.01 0c0.06,0.05 0.12,0.1 0.18,0.15l0 0 0.01 0 0.04 0.04 0 0.01 0.02 0c0.06,0.05 0.12,0.1 0.18,0.15l0 0 0 0c0.2,0.16 0.39,0.32 0.59,0.48l0 0.01 0 0 0.05 0.03 0 0.02 0.01 0c0.1,0.08 0.19,0.16 0.28,0.24l0 0 0.01 0 0.04 0.04 0 0.01 0.01 0 0.04 0.03 0 0.02 0.02 0c0.08,0.06 0.15,0.13 0.22,0.2l0 0 0 0 0.05 0.04 0 0 0.01 0 0.04 0.04 0 0.01 0.02 0 0.03 0.04 0 0.01 0.02 0c0.11,0.1 0.22,0.2 0.32,0.29l0 0.01 0.01 0 0.04 0.04 0 0.01 0.01 0c0.21,0.19 0.42,0.39 0.63,0.58l0 0 0 0 0.05 0.05 0 0 0 0 0.05 0.05 0 0 0.01 0 0.04 0.04 0 0.01 0.01 0 0.04 0.04 0 0.01 0.01 0 0.04 0.04 0 0.01 0.01 0 0.04 0.04 0 0.01 0.01 0 0.03 0.03 0 0.02 0.02 0 0.03 0.03 0 0.02 0.02 0 0.03 0.03 0 0.02 0.02 0 0.03 0.03 0 0.02 0.02 0 0.03 0.03 0 0.01 0.02 0 0.03 0.03 0 0.02 0.02 0 0.03 0.03 0 0.02 0.02 0 0.03 0.03 0 0.02 0.02 0 0.03 0.03 0 0.02 0.02 0 0.03 0.03 0 0.02 0.02 0c0.2,0.21 0.41,0.42 0.61,0.63l0 0.01 0.01 0 0.04 0.05 0 0 0 0c0.15,0.15 0.3,0.31 0.44,0.47l0 0.02 0.02 0 0.03 0.03 0 0.02 0.02 0 0.03 0.03 0 0.01 0.01 0 0.04 0.05 0 0 0.01 0 0.04 0.05 0 0 0 0c0.1,0.11 0.2,0.22 0.29,0.33l0 0.02 0.02 0 0.03 0.03 0 0.01 0.01 0 0.04 0.05 0 0 0.01 0 0.04 0.05 0 0 0 0c0.1,0.11 0.2,0.23 0.3,0.34l0 0.01 0 0c0.1,0.11 0.19,0.22 0.29,0.34l0 0 0 0c0.07,0.08 0.13,0.15 0.2,0.23l0 0.01 0.01 0 0.03 0.05 0 0 0.01 0c0.05,0.06 0.09,0.12 0.14,0.18l0 0.02 0.02 0 0.03 0.04 0 0.01 0.01 0c0.05,0.06 0.09,0.11 0.14,0.17l0 0.02 0.02 0 0.03 0.04 0 0.01 0.01 0 0.04 0.05 0 0 0 0 0.09 0.13 0 0.02 0.02 0 0.03 0.04 0 0.01 0.01 0c0.07,0.08 0.13,0.16 0.19,0.24l0 0 0.01 0c0.11,0.15 0.22,0.3 0.33,0.44l0 0.01 0 0c0.05,0.06 0.1,0.13 0.15,0.19l0 0 0 0 0.1 0.13 0 0.02 0.01 0 0.04 0.05 0 0 0 0 0.1 0.13 0 0.01 0.01 0 0.08 0.13 0 0.02 0.02 0 0.03 0.04 0 0.01 0.01 0 0.09 0.13 0 0.02 0.01 0 0.04 0.05 0 0 0 0 0.05 0.07 0 0.03 0.02 0 0.03 0.04 0 0 0 0 0.1 0.13 0 0.02 0.01 0 0.08 0.12 0 0.03 0.02 0 0.03 0.04 0 0.01 0.01 0c0.03,0.04 0.06,0.09 0.09,0.14l0 0 0.01 0 0.09 0.14 0 0.01 0.01 0c0.05,0.08 0.1,0.16 0.16,0.24 -1.8,1.13 -3.21,2.78 -4.05,4.73 -1.14,2.76 -1.09,5.86 0.15,8.58 0.96,2.2 2.72,3.96 4.94,4.9 1.83,0.82 3.86,1.12 5.85,0.86 0.02,0.15 0.04,0.31 0.05,0.46l0 0.09 0.01 0c0.01,0.17 0.03,0.33 0.04,0.5l0 0.14 0.01 0c0.01,0.19 0.03,0.37 0.04,0.56l0 0.08 0 0c0.02,0.27 0.03,0.54 0.05,0.81l0 0.17 0 0c0.02,0.4 0.04,0.81 0.05,1.21l0 0.66c-0.01,0.19 -0.03,0.39 -0.05,0.58l0 0 0 0.03c-0.02,0.1 -0.03,0.21 -0.05,0.31l0 0 0 0.02c-0.02,0.08 -0.03,0.15 -0.04,0.23l-0.01 0 0 0.03c-0.01,0.06 -0.03,0.11 -0.04,0.16l-0.01 0 0 0.06c-0.02,0.06 -0.03,0.13 -0.05,0.19l0 0 0 0c-0.01,0.05 -0.03,0.1 -0.04,0.15l-0.01 0 0 0.02 -0.04 0.12 -0.01 0 0 0.04 -0.03 0.11 -0.02 0 0 0.04 -0.04 0.11 -0.01 0 0 0.02 -0.04 0.12 -0.01 0 0 0.01c-0.04,0.11 -0.09,0.23 -0.14,0.34l0 0 0 0.01 -0.04 0.09 -0.01 0 0 0.01 -0.04 0.08 -0.01 0 0 0.03 -0.04 0.07 -0.01 0 0 0.02 -0.04 0.08 -0.01 0 0 0.02 -0.04 0.08 -0.01 0 0 0.01c-0.06,0.11 -0.12,0.22 -0.19,0.33l0 0 0 0c-0.03,0.05 -0.07,0.1 -0.1,0.15l0 0 0 0.01c-0.03,0.04 -0.06,0.09 -0.1,0.14l0 0 0 0c-0.04,0.07 -0.09,0.13 -0.14,0.19l-0.01 0 0 0.02c-0.12,0.16 -0.25,0.32 -0.39,0.47l0 0 0 0.01 -0.04 0.04 -0.01 0 0 0.01 -0.04 0.04 -0.01 0 0 0.01 -0.03 0.04 -0.02 0 0 0.02c-0.1,0.11 -0.21,0.22 -0.33,0.32l-0.01 0 0 0.01 -0.04 0.04 -0.01 0 0 0.01 -0.05 0.04 0 0 0 0c-0.07,0.07 -0.15,0.13 -0.22,0.2l-0.02 0 0 0.01 -0.05 0.04 0 0 0 0c-0.13,0.1 -0.26,0.2 -0.39,0.29l0 0 0 0c-0.05,0.03 -0.1,0.07 -0.15,0.1l0 0 0 0 -0.07 0.05 -0.03 0 0 0.01c-0.04,0.03 -0.09,0.06 -0.13,0.09l-0.02 0 0 0c-0.07,0.05 -0.14,0.09 -0.21,0.13l-0.03 0.01 0 0 0 0 -0.09 0.05 -0.01 0 0 0.01 -0.08 0.04 -0.02 0 0 0.01 -0.07 0.04 -0.03 0 0 0.01 -0.07 0.04 -0.02 0 0 0.01 -0.09 0.04 -0.01 0 0 0.01 -0.09 0.04 -0.01 0 0 0c-0.09,0.04 -0.17,0.08 -0.26,0.11l-0.08 0.03 0 0 0 0 -0.13 0.05 -0.02 0 0 0.01 -0.12 0.04 -0.03 0 0 0.01 -0.12 0.04 -0.02 0 0 0.01c-0.05,0.01 -0.09,0.03 -0.14,0.04l-0.01 0 0 0c-0.12,0.04 -0.23,0.07 -0.35,0.1l-0.04 0 0 0.01c-0.06,0.01 -0.12,0.02 -0.18,0.04l-0.02 0 0 0c-0.08,0.02 -0.16,0.03 -0.24,0.05l-0.01 0 0 0c-0.1,0.02 -0.21,0.03 -0.32,0.05l-0.07 0 0 0c-0.16,0.02 -0.33,0.04 -0.49,0.04l-0.05 0 0 0.01c-0.1,0 -0.19,0 -0.29,0l0 -0.01 -0.38 0c-0.17,0 -0.34,-0.02 -0.5,-0.04l0 0 -0.06 0c-0.1,-0.02 -0.19,-0.03 -0.29,-0.05l0 0 -0.04 0c-0.08,-0.02 -0.17,-0.03 -0.25,-0.05l0 0 -0.01 0c-0.06,-0.02 -0.12,-0.03 -0.19,-0.05l0 0 -0.03 0c-0.05,-0.02 -0.11,-0.03 -0.16,-0.04l0 -0.01 -0.03 0c-0.06,-0.02 -0.11,-0.03 -0.17,-0.05l0 0 0 0c-0.1,-0.03 -0.2,-0.06 -0.29,-0.09l0 -0.01 -0.02 0c-0.04,-0.01 -0.09,-0.03 -0.13,-0.05l0 0 -0.01 0c-0.08,-0.03 -0.16,-0.06 -0.24,-0.09l0 -0.01 -0.01 0c-0.15,-0.05 -0.29,-0.12 -0.43,-0.19l0 0 -0.01 0 -0.09 -0.04 0 -0.01 -0.01 0 -0.08 -0.04 0 -0.01 -0.01 0 -0.09 -0.05 0 0 -0.01 0c-0.1,-0.06 -0.21,-0.12 -0.32,-0.18 -0.3,-0.18 -0.62,-0.36 -0.94,-0.54 -0.21,-0.11 -0.41,-0.24 -0.62,-0.35 -0.3,-0.18 -0.68,-0.36 -0.92,-0.49 -0.24,-0.13 -0.46,-0.24 -0.73,-0.38 -0.27,-0.13 -0.54,-0.25 -0.83,-0.39 -0.29,-0.14 -0.61,-0.29 -0.87,-0.41 -0.25,-0.11 -0.49,-0.21 -0.74,-0.32 -0.34,-0.14 -0.67,-0.28 -1.01,-0.42l-0.65 -0.25c-0.38,-0.15 -0.77,-0.3 -1.16,-0.44l-0.27 -0.09 0 0 0 0 -0.22 -0.08c-0.45,-0.16 -0.9,-0.31 -1.36,-0.46 -0.13,-0.05 -0.26,-0.08 -0.39,-0.12 -0.5,-0.16 -1.01,-0.31 -1.5,-0.46l-0.25 -0.06c-0.55,-0.16 -1.11,-0.31 -1.68,-0.45l-0.18 -0.05c-0.59,-0.14 -1.19,-0.28 -1.79,-0.42l-0.07 0c-0.66,-0.13 -1.31,-0.26 -1.96,-0.38l-0.06 0c-0.64,-0.12 -1.3,-0.23 -1.96,-0.33l-0.15 0c-0.63,-0.09 -1.27,-0.18 -1.91,-0.26l-0.32 -0.04c-0.59,-0.06 -1.17,-0.13 -1.77,-0.18 -0.19,-0.02 -0.39,-0.05 -0.58,-0.05 -0.51,-0.04 -1.04,-0.08 -1.53,-0.11 -0.39,-0.02 -0.78,-0.05 -1.17,-0.05l-0.98 -0.04c-0.72,-0.04 -1.44,-0.04 -2.16,-0.04 -0.71,0 -1.43,0.04 -2.15,0.04 -0.38,0.01 -0.82,0.03 -1.15,0.05 -0.33,0.01 -0.66,0.04 -0.98,0.04 -0.46,0.03 -0.92,0.07 -1.37,0.1l-0.77 0.05 -1.35 0.15 -0.74 0.07c-0.44,0.06 -0.87,0.12 -1.31,0.18 -0.27,0.04 -0.51,0.07 -0.76,0.11 -0.4,0.06 -0.79,0.13 -1.19,0.19l-0.85 0.15c-0.32,0.06 -0.63,0.12 -0.95,0.19l-1.05 0.21c-0.27,0.05 -0.51,0.12 -0.76,0.17l-1.19 0.29 -0.62 0.17c-0.44,0.12 -0.88,0.23 -1.31,0.35l-0.49 0.15c-0.48,0.14 -0.93,0.28 -1.42,0.43l-0.46 0.16c-0.46,0.17 -0.93,0.32 -1.38,0.49l-0.37 0.14c-0.46,0.18 -0.95,0.36 -1.44,0.55 -0.08,0.03 -0.16,0.07 -0.24,0.1 -0.53,0.21 -1.02,0.42 -1.51,0.65l-0.24 0.1c-0.49,0.21 -0.98,0.46 -1.47,0.7l-0.24 0.12c-0.47,0.24 -0.94,0.47 -1.4,0.73 -0.11,0.05 -0.21,0.12 -0.31,0.17 -0.43,0.24 -0.86,0.48 -1.27,0.73 -0.12,0.07 -0.25,0.14 -0.37,0.21l-0.01 0 0 0 -0.09 0.05 -0.01 0 0 0 -0.09 0.05 -0.01 0 0 0 -0.09 0.05 0 0 0 0c-0.11,0.05 -0.22,0.1 -0.33,0.14l-0.02 0 0 0.01c-0.08,0.03 -0.15,0.06 -0.23,0.09l-0.01 0 0 0.01 -0.13 0.04 -0.02 0 0 0.01c-0.04,0.01 -0.08,0.03 -0.12,0.04l-0.03 0 0 0.01c-0.04,0.01 -0.09,0.03 -0.13,0.04l-0.01 0 0 0c-0.12,0.04 -0.23,0.07 -0.35,0.1l-0.05 0 0 0.01c-0.05,0.01 -0.11,0.02 -0.16,0.04l-0.03 0 0 0c-0.08,0.02 -0.15,0.03 -0.23,0.05l-0.02 0 0 0c-0.1,0.02 -0.2,0.03 -0.29,0.04l-0.05 0 0 0.01c-0.15,0.02 -0.31,0.03 -0.46,0.04l-0.18 0 0 0.01c-0.15,0.01 -0.29,0.01 -0.44,0zm48.97 -24.78c-4.65,-0.01 -8.41,-3.79 -8.4,-8.44 0.01,-4.66 3.8,-8.42 8.45,-8.41 2.87,0.01 5.53,1.48 7.08,3.9 1.59,2.53 1.76,5.7 0.44,8.39 -0.75,1.62 -2.06,2.93 -3.68,3.68 -1.22,0.58 -2.55,0.88 -3.9,0.88l0.01 0zm-18.14 7.55c-0.93,2.14 -2.64,3.84 -4.78,4.76 -1.34,0.58 -2.78,0.89 -4.24,0.89 -5.45,0 -9.87,-4.42 -9.88,-9.87 -0.02,-5.47 4.4,-9.91 9.86,-9.93 3.35,-0.01 6.48,1.67 8.32,4.48 1.07,1.61 1.64,3.5 1.64,5.43 -0.02,1.46 -0.33,2.91 -0.92,4.24z"/>
    <path class="fil0" d="M75.86 30.4c0.62,1.4 1.75,2.51 3.15,3.12 1.26,0.56 2.64,0.77 4,0.61 -0.83,-4.48 -2.39,-8.78 -4.61,-12.75 -1.19,0.75 -2.12,1.85 -2.68,3.15 -0.78,1.89 -0.73,4.02 0.14,5.87z"/>
    <path class="fil0" d="M63 32.3c-1.36,-0.03 -2.48,1.05 -2.51,2.4 -0.02,0.91 0.47,1.76 1.26,2.2 0.86,0.48 1.92,0.45 2.74,-0.08 0.23,-0.13 0.43,-0.31 0.56,-0.54 0.53,-0.83 0.56,-1.88 0.08,-2.74 -0.44,-0.76 -1.25,-1.23 -2.13,-1.24z"/>
    <path class="fil0" d="M60.34 13.36c-1.45,-2.35 -4.52,-3.07 -6.87,-1.62 -2.34,1.45 -3.06,4.52 -1.61,6.87 0.41,0.65 0.96,1.2 1.61,1.61 1.55,0.96 3.48,1.04 5.1,0.22 0.89,-0.41 1.61,-1.12 2.02,-2.01 0.79,-1.62 0.7,-3.54 -0.25,-5.07z"/>
    <path class="fil0" d="M51.49 66.69l0 0 0 0c-0.1,-0.01 -0.2,-0.02 -0.3,-0.04l0 -0.01 -0.07 0c-0.07,-0.01 -0.15,-0.02 -0.22,-0.04l0 -0.01 -0.06 0c-0.14,-0.03 -0.29,-0.06 -0.43,-0.09l0 -0.01 -0.01 0c-0.11,-0.02 -0.22,-0.05 -0.33,-0.09l0 0 -0.02 0c-0.04,-0.02 -0.09,-0.03 -0.13,-0.04l0 -0.01 -0.03 0c-0.04,-0.02 -0.08,-0.03 -0.12,-0.04l0 -0.01 -0.03 0c-0.08,-0.03 -0.17,-0.07 -0.26,-0.1l0 0 0 0c-0.09,-0.03 -0.17,-0.06 -0.25,-0.1l0 0 0 0 -0.09 -0.04 0 -0.01 -0.02 0 -0.08 -0.03 0 -0.02 -0.03 0c-0.19,-0.08 -0.38,-0.18 -0.56,-0.28l0 -0.01 -0.02 0 -0.08 -0.05 0 0 0 0c-0.05,-0.03 -0.1,-0.06 -0.15,-0.08l0 -0.02 -0.02 0 -0.07 -0.04 0 -0.01 -0.01 0c-0.05,-0.03 -0.09,-0.06 -0.14,-0.09l0 0 -0.01 0c-0.05,-0.04 -0.1,-0.07 -0.14,-0.1 -0.07,-0.05 -0.13,-0.09 -0.2,-0.14l0 -0.01 -0.01 0c-0.06,-0.05 -0.12,-0.09 -0.18,-0.14l0 -0.01 -0.01 0 -0.04 -0.03 0 -0.02 -0.02 0c-0.08,-0.06 -0.15,-0.12 -0.23,-0.19l0 0 0 0c-0.26,-0.23 -0.51,-0.48 -0.73,-0.74l0 0 0 0c-0.07,-0.07 -0.13,-0.15 -0.2,-0.23l0 -0.01 -0.01 0c-0.04,-0.06 -0.09,-0.12 -0.13,-0.18l0 -0.02 -0.02 0 -0.03 -0.05 0 0 0 0c-0.11,-0.14 -0.2,-0.28 -0.3,-0.42l0 -0.02 -0.01 0c-0.03,-0.05 -0.06,-0.09 -0.09,-0.14l0 -0.01 0 0 -0.04 -0.07 0 -0.02 -0.02 0c-0.04,-0.08 -0.09,-0.16 -0.13,-0.24l0 -0.01 -0.01 0c-0.05,-0.09 -0.09,-0.18 -0.14,-0.28l0 -0.01 -0.01 0 -0.04 -0.09 0 -0.01 0 0 -0.05 -0.1 0 0 0 0c-0.03,-0.07 -0.06,-0.15 -0.09,-0.22l0 -0.03 -0.02 0 -0.03 -0.09 0 0 -0.01 0c-0.07,-0.18 -0.13,-0.37 -0.19,-0.55l0 -0.04 -0.01 0 -0.04 -0.12 0 -0.03 -0.01 0c-0.03,-0.11 -0.06,-0.23 -0.09,-0.34l0 0 0 0c-0.01,-0.07 -0.03,-0.15 -0.05,-0.22l0 -0.03 0 0c-0.02,-0.07 -0.03,-0.15 -0.05,-0.22l0 -0.07 -0.01 0c-0.04,-0.24 -0.07,-0.48 -0.08,-0.72l0 -0.21 -0.02 0c0,-0.12 0,-0.24 0,-0.36 0,-0.14 0,-0.29 0.01,-0.43l0.01 0 0 -0.15c0.01,-0.15 0.02,-0.29 0.04,-0.44l0.01 0 0 -0.04c0.01,-0.1 0.02,-0.2 0.04,-0.3l0 0 0 -0.02c0.03,-0.16 0.07,-0.32 0.1,-0.47l0 0 0 0c0.08,-0.32 0.17,-0.63 0.29,-0.93l0.01 0 0 -0.03c0.01,-0.04 0.03,-0.08 0.04,-0.12l0.01 0 0 0c0.04,-0.12 0.09,-0.23 0.14,-0.34l0 0 0 -0.01 0.05 -0.09 0 0 0 -0.01 0.04 -0.09 0.01 0 0 -0.01 0.04 -0.09 0.01 0 0 -0.01c0.09,-0.18 0.19,-0.35 0.29,-0.53l0 0 0 0c0.03,-0.05 0.06,-0.09 0.1,-0.14l0 0 0 -0.01c0.06,-0.1 0.13,-0.19 0.19,-0.29l0.01 0 0 0c0.04,-0.07 0.09,-0.13 0.14,-0.19l0.01 0 0 -0.02c0.04,-0.06 0.09,-0.12 0.14,-0.18l0 0 0 0c0.08,-0.1 0.16,-0.2 0.25,-0.29l0 0 0 0 0.04 -0.05 0.01 0 0 -0.01 0.04 -0.04 0.01 0 0 -0.01c0.15,-0.17 0.31,-0.33 0.48,-0.48l0.01 0 0 -0.01 0.04 -0.04 0.01 0 0 -0.01c0.11,-0.1 0.22,-0.19 0.34,-0.29l0 0 0 0c0.06,-0.05 0.12,-0.09 0.19,-0.14l0 0 0 -0.01c0.07,-0.05 0.13,-0.09 0.2,-0.14l0 0 0 0c0.1,-0.07 0.19,-0.13 0.29,-0.2l0.01 0 0 0c0.07,-0.05 0.15,-0.1 0.23,-0.14l0.01 0 0 -0.01c0.14,-0.08 0.29,-0.16 0.44,-0.24l0 0 0 0c0.18,-0.09 0.35,-0.17 0.54,-0.24l0 0 0 0c0.08,-0.04 0.16,-0.07 0.25,-0.1l0 0 0 0c0.04,-0.02 0.09,-0.03 0.13,-0.05l0.01 0 0 0c0.21,-0.08 0.42,-0.14 0.63,-0.2l0.01 0 0 0c0.06,-0.02 0.13,-0.03 0.19,-0.05l0.01 0 0 0c0.16,-0.03 0.32,-0.07 0.49,-0.09l0.05 0 0 -0.01c0.3,-0.05 0.61,-0.08 0.92,-0.09l0.16 0 0 -0.01c0.05,0 0.1,0 0.15,0 0.04,0 0.09,0 0.14,0l0 0.01 0.19 0c0.3,0.01 0.59,0.04 0.89,0.09l0 0.01 0.06 0c0.08,0.01 0.16,0.02 0.23,0.04l0 0.01 0.04 0c0.07,0.01 0.14,0.02 0.21,0.04l0 0 0.02 0c0.12,0.03 0.25,0.07 0.37,0.1l0 0 0.01 0c0.05,0.02 0.09,0.03 0.14,0.04l0 0.01 0.03 0 0.11 0.04 0 0.01 0.04 0c0.14,0.05 0.27,0.09 0.41,0.15l0 0 0 0 0.09 0.04 0 0.01 0.03 0c0.07,0.03 0.15,0.06 0.22,0.09l0 0 0.01 0 0.09 0.05 0 0 0.01 0 0.09 0.04 0 0.01 0.02 0c0.12,0.06 0.25,0.13 0.37,0.2l0 0 0 0c0.08,0.04 0.16,0.09 0.24,0.14l0 0.01 0.02 0c0.08,0.04 0.15,0.09 0.23,0.14l0 0 0 0c0.12,0.08 0.23,0.16 0.34,0.24l0 0.01 0.02 0c0.06,0.04 0.12,0.09 0.18,0.13l0 0.02 0.01 0c0.06,0.04 0.12,0.09 0.18,0.14l0 0 0 0c0.36,0.3 0.68,0.62 0.98,0.97l0 0.01 0.01 0c0.07,0.08 0.13,0.16 0.19,0.24l0 0.01 0.01 0c0.08,0.1 0.15,0.19 0.22,0.3l0.06 0.09 0 0 0.01 0c0.05,0.08 0.09,0.15 0.14,0.23l0 0.02 0.01 0c0.03,0.04 0.06,0.09 0.09,0.14l0 0 0 0 0.05 0.09 0 0.01 0.01 0c0.12,0.22 0.23,0.43 0.33,0.66l0 0.03 0.02 0 0.03 0.08 0 0.02 0.01 0 0.04 0.09 0 0 0 0c0.03,0.08 0.07,0.17 0.1,0.25l0 0 0 0c0.02,0.04 0.03,0.09 0.05,0.13l0 0.02 0 0 0.05 0.12 0 0.02 0 0 0.05 0.13 0 0.02 0 0c0.02,0.05 0.03,0.09 0.04,0.14l0 0.01 0.01 0c0.01,0.05 0.03,0.11 0.04,0.16l0 0.03 0.01 0c0.03,0.13 0.06,0.25 0.09,0.37l0 0.03 0.01 0c0.01,0.07 0.03,0.14 0.04,0.22l0 0.07 0.01 0c0.02,0.07 0.03,0.15 0.04,0.22l0 0.03 0 0c0.02,0.12 0.04,0.25 0.05,0.37l0 0.12 0.01 0c0.03,0.44 0.04,0.88 0,1.32l-0.01 0 0 0.12c-0.01,0.13 -0.03,0.25 -0.05,0.37l0 0 0 0.03c-0.01,0.09 -0.03,0.18 -0.04,0.26l-0.01 0 0 0.04c-0.01,0.07 -0.03,0.14 -0.04,0.21l-0.01 0 0 0.03c-0.04,0.19 -0.09,0.37 -0.14,0.56l-0.01 0 0 0.02c-0.01,0.04 -0.02,0.08 -0.03,0.13l-0.01 0 0 0.03 -0.04 0.11 -0.01 0 0 0.03 -0.04 0.12 -0.01 0 0 0.03c-0.02,0.05 -0.04,0.1 -0.06,0.15 -0.03,0.07 -0.05,0.14 -0.08,0.21l-0.01 0 0 0.02c-0.03,0.08 -0.06,0.15 -0.1,0.23l0 0 0 0 -0.04 0.1 -0.01 0 0 0.01c-0.06,0.13 -0.12,0.25 -0.19,0.38l0 0 0 0.01 -0.05 0.09 0 0 0 0c-0.05,0.08 -0.09,0.16 -0.14,0.24l-0.01 0 0 0.01c-0.09,0.15 -0.18,0.29 -0.28,0.43l-0.01 0 0 0.02c-0.04,0.04 -0.07,0.09 -0.1,0.13l0 0 0 0c-0.16,0.2 -0.32,0.4 -0.49,0.59l0 0 0 0 -0.05 0.05 0 0 0 0 -0.04 0.05 -0.01 0 0 0c-0.06,0.07 -0.13,0.13 -0.19,0.19l-0.01 0 0 0.01 -0.04 0.04 -0.01 0 0 0c-0.2,0.19 -0.41,0.37 -0.63,0.54l0 0 0 0c-0.05,0.03 -0.09,0.07 -0.14,0.1l-0.01 0 0 0.01c-0.14,0.1 -0.28,0.19 -0.43,0.28l-0.01 0 0 0.01c-0.08,0.05 -0.16,0.09 -0.24,0.14l-0.01 0 0 0 -0.08 0.05 -0.01 0 0 0.01c-0.13,0.06 -0.25,0.13 -0.38,0.18l-0.02 0 0 0.01 -0.09 0.04 0 0 0 0.01c-0.08,0.03 -0.15,0.06 -0.23,0.09l-0.02 0 0 0.01c-0.07,0.03 -0.14,0.06 -0.22,0.08 -0.09,0.04 -0.19,0.07 -0.28,0.11l-0.04 0 0 0.01 -0.11 0.04 -0.04 0 0 0.01 -0.12 0.04 -0.02 0 0 0c-0.05,0.02 -0.1,0.03 -0.14,0.05l-0.01 0 0 0c-0.13,0.03 -0.26,0.06 -0.39,0.09l0 0 0 0c-0.08,0.02 -0.15,0.04 -0.23,0.05l-0.07 0 0 0.02c-0.07,0.01 -0.14,0.02 -0.21,0.03l-0.03 0 0 0.01c-0.11,0.01 -0.22,0.03 -0.33,0.04l-0.06 0 0 0.01c-0.27,0.02 -0.53,0.04 -0.79,0.04l-0.05 0c-0.29,0 -0.59,-0.02 -0.88,-0.05z"/>
    <path class="fil0" d="M34.18 8.54l0 -0.01 -0.05 0c-0.13,-0.01 -0.26,-0.02 -0.39,-0.04l0 -0.01 -0.06 0c-0.09,-0.01 -0.19,-0.03 -0.29,-0.05l0 0 0 0c-0.06,-0.01 -0.13,-0.02 -0.19,-0.04l0 0 -0.04 0c-0.05,-0.02 -0.1,-0.03 -0.16,-0.04l0 -0.01 -0.03 0c-0.06,-0.02 -0.11,-0.03 -0.16,-0.05l0 0 -0.01 0c-0.1,-0.03 -0.19,-0.06 -0.29,-0.1l0 0 -0.01 0c-0.05,-0.02 -0.09,-0.03 -0.14,-0.05l0 0 0 0 -0.09 -0.04 0 -0.01 -0.03 0c-0.08,-0.03 -0.16,-0.06 -0.23,-0.1 -0.06,-0.03 -0.13,-0.05 -0.18,-0.08l0 -0.01 -0.03 0 -0.07 -0.04 0 -0.01 -0.03 0 -0.07 -0.04 0 -0.01 -0.03 0 -0.07 -0.04 0 -0.01 -0.02 0 -0.08 -0.05 0 0 0 0c-0.05,-0.03 -0.1,-0.06 -0.14,-0.09l0 -0.01 -0.02 0c-0.1,-0.06 -0.19,-0.12 -0.28,-0.18l0 -0.02 -0.01 0c-0.06,-0.04 -0.13,-0.09 -0.18,-0.13l0 -0.01 -0.02 0 -0.03 -0.03 0 -0.02 -0.03 0 -0.02 -0.02 0 -0.03 -0.03 0c-0.06,-0.05 -0.11,-0.1 -0.17,-0.15l0 0 0 0 -0.05 -0.04 0 -0.01 0 0c-0.03,-0.03 -0.06,-0.06 -0.1,-0.09l0 0 0 0 -0.04 -0.05 0 0 -0.01 0 -0.04 -0.05 0 0 -0.01 0c-0.06,-0.07 -0.13,-0.15 -0.19,-0.22l0 -0.03 -0.02 0 -0.03 -0.03 0 -0.02 -0.01 0 -0.04 -0.04 0 -0.01 0 0c-0.05,-0.06 -0.1,-0.12 -0.15,-0.18l0 -0.01 0 0c-0.07,-0.09 -0.13,-0.19 -0.19,-0.28l0 -0.02 -0.01 0 -0.04 -0.06 0 -0.03 -0.02 0 -0.03 -0.06 0 -0.04 -0.02 0 -0.03 -0.05 0 0 0 0 -0.05 -0.09 0 -0.01 0 0 -0.05 -0.08 0 -0.02 0 0 -0.05 -0.08 0 -0.02 0 0c-0.02,-0.03 -0.03,-0.07 -0.05,-0.1 -0.03,-0.07 -0.06,-0.14 -0.09,-0.21l0 -0.03 -0.01 0 -0.04 -0.1 0 0 0 0c-0.02,-0.04 -0.04,-0.08 -0.05,-0.13l0 -0.01 -0.01 0c-0.05,-0.15 -0.1,-0.29 -0.14,-0.43l0 -0.02 0 0c-0.02,-0.05 -0.03,-0.11 -0.05,-0.16l0 -0.03 0 0c-0.02,-0.06 -0.03,-0.12 -0.05,-0.18l0 -0.02 0 0c-0.04,-0.17 -0.07,-0.35 -0.09,-0.52l0 -0.07 -0.01 0c-0.02,-0.14 -0.03,-0.29 -0.04,-0.43l0 -0.01 0 0c-0.01,-0.11 -0.01,-0.23 -0.02,-0.34l0.02 0 0 -0.44 0 -0.08 0.22 -0.07 0.02 0 0 -0.01 0.13 -0.04 0.02 0 0 0 0.13 -0.05 0.02 0 0 0 0.14 -0.05 0.05 0 0 -0.01 0.11 -0.04 0.04 0 0 -0.01 0.12 -0.03 0.08 0 0 -0.03 0.08 -0.02 0.06 0 0 -0.02 0.1 -0.03 0.05 0 0 -0.02 0.12 -0.03 0.08 0 0 -0.02 0.09 -0.03 0.05 0 0 -0.02 0.12 -0.03 0.08 0 0 -0.02 0.1 -0.03 0.05 0 0 -0.01 0.12 -0.04 0.02 0 0 0 0.16 -0.05 0.04 0 0 -0.01c0.11,-0.03 0.22,-0.06 0.34,-0.08l0 0 0 -0.01 0.19 -0.04 0.01 0 0 -0.01 0.19 -0.04 0.01 0 0 -0.01 0.19 -0.04 0.05 0 0 -0.02 0.15 -0.03 0.05 0 0 -0.01 0.16 -0.04 0.08 0 0 -0.02 0.13 -0.03 0.07 0 0 -0.01 0.15 -0.04 0.09 0 0 -0.02 0.14 -0.03 0.11 0 0 -0.02 0.12 -0.03 0.07 0 0 -0.01 0.17 -0.04 0.08 0 0 -0.01 0.16 -0.03 0.04 0 0 -0.01 0.22 -0.04 0.02 0 0 -0.01c0.17,-0.03 0.34,-0.06 0.51,-0.09l0.03 0 0 -0.01 0.25 -0.04 0.09 0 0 -0.02 0.21 -0.03 0.14 0 0 -0.02 0.17 -0.03 0.12 0 0 -0.02 0.21 -0.03 0.13 0 0 -0.02 0.21 -0.03 0.14 0 0 -0.01 0.23 -0.04 0.11 0 0 -0.01 0.29 -0.03 0 0 0 -0.01c0.15,-0.01 0.29,-0.03 0.43,-0.04l0.07 0 0 -0.01c0.13,-0.02 0.27,-0.03 0.41,-0.04l0.22 0 0 -0.02c0.11,-0.01 0.22,-0.02 0.33,-0.03l0.31 0 0 -0.03c0.11,-0.01 0.23,-0.01 0.34,-0.02l0.25 0 0 -0.02c0.2,-0.01 0.41,-0.02 0.61,-0.03l0.15 0 0.02 0.05 0 0 0 0c0.04,0.07 0.07,0.14 0.1,0.21l0 0.03 0.01 0 0.04 0.09 0 0.06 0.02 0 0.03 0.07 0 0.03 0.01 0 0.04 0.11 0 0.04 0.01 0 0.04 0.11 0 0.03 0.01 0c0.03,0.11 0.06,0.21 0.09,0.31l0 0.04 0 0c0.02,0.06 0.03,0.12 0.04,0.18l0 0.11 0.03 0c0.01,0.05 0.02,0.1 0.02,0.15l0 0.1 0.02 0c0.01,0.09 0.02,0.18 0.03,0.26l0 0.03 0.01 0c0.04,0.48 0.03,0.95 -0.04,1.42l-0.02 0 0 0.12c-0.01,0.06 -0.02,0.12 -0.03,0.18l-0.02 0 0 0.08c-0.01,0.05 -0.02,0.11 -0.03,0.16l-0.01 0 0 0.05c-0.03,0.12 -0.07,0.23 -0.1,0.34l0 0 0 0.01 -0.03 0.09 -0.02 0 0 0.06 -0.03 0.09 -0.02 0 0 0.05 -0.04 0.1 -0.01 0 0 0.02 -0.03 0.07 -0.02 0 0 0.05 -0.04 0.1 -0.01 0 0 0.02c-0.04,0.09 -0.09,0.18 -0.13,0.28l-0.01 0 0 0.02 -0.04 0.07 -0.01 0 0 0.02 -0.05 0.08 0 0 0 0.01c-0.03,0.05 -0.06,0.09 -0.08,0.14l-0.02 0 0 0.03 -0.04 0.07 -0.01 0 0 0.01c-0.03,0.05 -0.06,0.09 -0.09,0.13l-0.01 0 0 0.02c-0.07,0.11 -0.15,0.22 -0.23,0.33l-0.01 0 0 0.01 -0.03 0.04 -0.02 0 0 0.02c-0.05,0.06 -0.1,0.12 -0.14,0.17l-0.01 0 0 0.01 -0.04 0.04 -0.01 0 0 0.01 -0.03 0.04 -0.02 0 0 0.02 -0.03 0.03 -0.02 0 0 0.02 -0.02 0.03 -0.03 0 0 0.02c-0.1,0.11 -0.21,0.22 -0.33,0.32l-0.01 0 0 0.01 -0.04 0.04 -0.01 0 0 0.01c-0.05,0.05 -0.11,0.09 -0.17,0.14l-0.02 0 0 0.02 -0.04 0.03 -0.01 0 0 0.01 -0.05 0.04 0 0 0 0 -0.07 0.05 -0.03 0 0 0.02 -0.03 0.02 -0.02 0 0 0.02c-0.07,0.04 -0.13,0.09 -0.2,0.13 -0.08,0.05 -0.16,0.1 -0.24,0.15l0 0 0 0 -0.08 0.05 -0.02 0 0 0.01c-0.19,0.1 -0.38,0.2 -0.57,0.28l-0.02 0 0 0.01c-0.07,0.03 -0.15,0.06 -0.23,0.09l-0.01 0 0 0.01c-0.14,0.05 -0.28,0.1 -0.42,0.14l-0.02 0 0 0c-0.12,0.04 -0.23,0.07 -0.35,0.1l0 0 0 0c-0.17,0.04 -0.34,0.07 -0.52,0.09l-0.07 0 0 0.01c-0.12,0.02 -0.25,0.03 -0.38,0.04l-0.01 0 0 0c-0.27,0.02 -0.55,0.02 -0.83,0.01z"/>
    <path class="fil0" d="M28.99 21.32c-3.57,0 -6.47,2.9 -6.47,6.47 0,2.17 1.09,4.2 2.91,5.39 1.93,1.25 4.36,1.42 6.44,0.46 1.33,-0.58 2.38,-1.65 2.95,-2.97 0.96,-2.08 0.79,-4.51 -0.45,-6.44 -1.19,-1.81 -3.22,-2.9 -5.38,-2.91z"/>
    <path class="fil0" d="M28.59 52.89c-3.3,0 -5.97,2.68 -5.97,5.98 0,1.95 0.95,3.77 2.54,4.89 1.67,1.15 3.8,1.41 5.69,0.68 1.54,-0.57 2.75,-1.78 3.31,-3.31 0.73,-1.89 0.47,-4.02 -0.68,-5.69 -1.12,-1.6 -2.94,-2.55 -4.89,-2.55z"/>
    <path class="fil0" d="M10.57 21.57c1.32,-0.59 2.37,-1.65 2.94,-2.98 1.06,-2.26 0.8,-4.91 -0.67,-6.93 -3.07,2.96 -5.68,6.38 -7.73,10.13 1.77,0.67 3.75,0.59 5.46,-0.22z"/>
   </g>
   <path class="fil1" d="M184.62 44.65l0 -9.17c0,-1.55 -0.38,-2.98 -1.2,-4.28 -0.8,-1.29 -1.86,-2.3 -3.18,-3.03 -1.32,-0.72 -2.72,-1.09 -4.22,-1.09 -1.37,0 -2.68,0.32 -3.91,0.93l-1.05 0.52 0 -7.08c0,-0.51 -0.18,-0.93 -0.54,-1.3 -0.36,-0.36 -0.77,-0.54 -1.28,-0.54 -0.51,0 -0.92,0.18 -1.28,0.54 -0.36,0.37 -0.54,0.79 -0.54,1.3l0 23.2c0,0.51 0.17,0.93 0.53,1.29 0.36,0.36 0.78,0.53 1.29,0.53 0.51,0 0.93,-0.17 1.29,-0.53 0.36,-0.36 0.53,-0.78 0.53,-1.29l0 -9.15c0,-0.63 0.13,-1.25 0.38,-1.83 0.4,-0.92 1.03,-1.66 1.89,-2.18 0.82,-0.48 1.72,-0.73 2.67,-0.73 0.83,0 1.63,0.19 2.38,0.56 0.76,0.37 1.39,0.92 1.86,1.63 0.51,0.77 0.73,1.64 0.73,2.55l0 9.15c0,0.52 0.17,0.93 0.53,1.29 0.37,0.36 0.79,0.53 1.31,0.53 0.5,0 0.92,-0.18 1.28,-0.53 0.36,-0.36 0.53,-0.77 0.53,-1.29z"/>
   <path class="fil0" d="M213.67 46.88c0.51,0 0.92,-0.18 1.28,-0.54 0.36,-0.37 0.54,-0.79 0.54,-1.31 0,-0.51 -0.17,-0.92 -0.53,-1.28 -0.37,-0.36 -0.78,-0.53 -1.29,-0.53 -0.51,0 -0.93,0.17 -1.29,0.53 -0.36,0.36 -0.53,0.77 -0.53,1.28 0,0.52 0.17,0.94 0.54,1.31 0.35,0.36 0.77,0.54 1.28,0.54z"/>
   <path class="fil1" d="M208.4 33.29c-0.79,-1.83 -2.01,-3.28 -3.65,-4.38 -0.84,-0.53 -1.74,-0.96 -2.67,-1.26 -0.98,-0.3 -1.99,-0.45 -3.02,-0.45 -1.36,0 -2.68,0.26 -3.93,0.78 -0.9,0.37 -1.73,0.88 -2.48,1.49 -0.75,0.61 -1.41,1.32 -1.97,2.11 -0.56,0.81 -0.98,1.7 -1.29,2.64 -0.32,0.96 -0.44,1.98 -0.44,3 0,1.77 0.44,3.43 1.36,4.95 0.91,1.53 2.14,2.73 3.68,3.62 1.57,0.9 3.26,1.34 5.07,1.34 1.81,0 3.51,-0.44 5.08,-1.34 1.55,-0.89 2.79,-2.1 3.7,-3.64 0.91,-1.54 1.36,-3.2 1.36,-4.99 0,-1.34 -0.26,-2.63 -0.8,-3.87zm-9.34 10.18c-1.15,0 -2.24,-0.27 -3.24,-0.84 -0.99,-0.55 -1.79,-1.32 -2.37,-2.29 -0.58,-0.98 -0.87,-2.04 -0.87,-3.18 0,-0.83 0.19,-1.65 0.52,-2.43 0.5,-1.15 1.29,-2.07 2.32,-2.78l0.01 -0.01c0.53,-0.34 1.1,-0.6 1.69,-0.79l0.03 -0.01c0.62,-0.18 1.26,-0.28 1.91,-0.28 0.88,0 1.73,0.18 2.55,0.51 1.18,0.48 2.15,1.25 2.84,2.3 0.35,0.5 0.63,1.05 0.8,1.62 0.2,0.61 0.32,1.24 0.32,1.87 0,1.14 -0.3,2.21 -0.89,3.18 -0.59,0.97 -1.39,1.74 -2.37,2.29 -1.01,0.57 -2.1,0.84 -3.25,0.84z"/>
   <path class="fil1" d="M148.51 28.92c-0.04,-0.46 -0.23,-0.84 -0.58,-1.16 -0.35,-0.33 -0.76,-0.48 -1.24,-0.48 -0.48,0 -0.89,0.15 -1.24,0.48 -0.35,0.32 -0.54,0.7 -0.58,1.16l0 9.33c0,1.55 0.38,2.99 1.19,4.3 0.8,1.29 1.86,2.3 3.19,3.03 1.32,0.73 2.74,1.09 4.25,1.09 1.5,0 2.9,-0.38 4.22,-1.09l0.59 -0.33 0.37 0.58c0.18,0.27 0.4,0.49 0.69,0.65 0.27,0.17 0.57,0.24 0.89,0.24 0.51,0 0.92,-0.17 1.28,-0.53 0.36,-0.36 0.53,-0.77 0.53,-1.28l0 -15.79c0,-0.51 -0.17,-0.94 -0.53,-1.3 -0.36,-0.37 -0.77,-0.54 -1.28,-0.54 -0.52,0 -0.94,0.18 -1.3,0.54 -0.37,0.37 -0.54,0.78 -0.54,1.3l0 9.13c0,0.92 -0.23,1.79 -0.75,2.55 -0.48,0.71 -1.11,1.26 -1.88,1.64 -0.76,0.37 -1.57,0.55 -2.42,0.55 -1.02,0 -1.97,-0.28 -2.82,-0.84 -0.91,-0.6 -1.49,-1.47 -1.8,-2.48 -0.16,-0.46 -0.24,-0.94 -0.24,-1.42l0 -9.33z"/>
   <path class="fil1" d="M140.12 44.65l0 -9.15c0,-1.51 -0.38,-2.91 -1.15,-4.2 -0.77,-1.31 -1.82,-2.33 -3.13,-3.09 -1.34,-0.77 -2.78,-1.13 -4.32,-1.13 -1.19,0 -2.33,0.23 -3.42,0.69 -1.08,0.46 -2.03,1.11 -2.84,1.96l-0.53 0.54 -0.52 -0.54c-0.81,-0.84 -1.76,-1.49 -2.83,-1.96 -1.09,-0.47 -2.23,-0.69 -3.41,-0.69 -1.51,0 -2.93,0.38 -4.27,1.1l-0.59 0.31 -0.37 -0.57c-0.17,-0.27 -0.4,-0.49 -0.68,-0.65 -0.28,-0.17 -0.57,-0.24 -0.9,-0.24 -0.51,0 -0.92,0.17 -1.28,0.53 -0.36,0.37 -0.53,0.79 -0.53,1.31l0 15.78c0,0.51 0.17,0.93 0.53,1.29 0.36,0.36 0.77,0.53 1.28,0.53 0.51,0 0.93,-0.17 1.29,-0.53 0.36,-0.36 0.53,-0.78 0.53,-1.29l0 -9.15c0,-0.92 0.23,-1.79 0.75,-2.55 0.48,-0.71 1.11,-1.26 1.88,-1.64 0.76,-0.37 1.57,-0.55 2.41,-0.55 1.03,0 1.98,0.28 2.83,0.84 0.9,0.6 1.49,1.46 1.83,2.49 0.15,0.45 0.21,0.93 0.21,1.41l0 9.15c0,0.52 0.17,0.93 0.54,1.29 0.37,0.36 0.79,0.53 1.3,0.53 0.51,0 0.92,-0.18 1.28,-0.53 0.36,-0.36 0.54,-0.77 0.54,-1.29l0 -9.15c0,-0.91 0.23,-1.78 0.74,-2.54 0.48,-0.72 1.12,-1.27 1.9,-1.66 0.75,-0.37 1.56,-0.56 2.4,-0.56 1.03,0 1.98,0.28 2.83,0.85 0.9,0.61 1.49,1.47 1.83,2.5l0 0.02 0.01 0.02c0.12,0.44 0.2,0.91 0.2,1.37l0 9.15c0,0.51 0.17,0.93 0.53,1.29 0.36,0.36 0.77,0.53 1.28,0.53 0.51,0 0.93,-0.17 1.29,-0.53 0.37,-0.36 0.54,-0.79 0.56,-1.29z"/>
   <path class="fil2" d="M291.64 43.96c0.82,0.62 1.71,1.1 2.64,1.42 1.08,0.35 2.19,0.5 3.32,0.5 1.13,0 2.23,-0.24 3.28,-0.64 0.93,-0.36 1.78,-0.86 2.55,-1.48l0.33 -0.28c0.09,-0.09 0.16,-0.18 0.21,-0.29 0.05,-0.11 0.07,-0.22 0.07,-0.34 0,-0.25 -0.07,-0.43 -0.25,-0.61 -0.18,-0.18 -0.36,-0.25 -0.61,-0.25 -0.24,0 -0.42,0.06 -0.59,0.22l-0.04 0.03c-0.68,0.59 -1.45,1.06 -2.29,1.37 -0.85,0.35 -1.74,0.52 -2.66,0.52 -1.09,0 -2.17,-0.17 -3.19,-0.57 -0.63,-0.25 -1.21,-0.61 -1.74,-1.03l-0.02 -0.02 -0.02 -0.01c-0.77,-0.65 -1.34,-1.47 -1.76,-2.38l-0.01 -0.03 -0.01 -0.03c-0.42,-1 -0.61,-2.07 -0.61,-3.16 0,-1.28 0.3,-2.49 0.92,-3.61 0.59,-1.09 1.42,-1.99 2.47,-2.65 1.05,-0.65 2.21,-1 3.44,-1 1.36,0 2.67,0.33 3.82,1.06 1.13,0.72 1.97,1.73 2.5,2.96 0.35,0.76 0.46,1.55 0.48,2.35l-7.81 0c-0.25,0 -0.42,0.07 -0.6,0.26 -0.18,0.18 -0.26,0.37 -0.26,0.63 0,0.26 0.07,0.43 0.25,0.61 0.18,0.18 0.36,0.25 0.61,0.25l8.86 0c0.25,0 0.43,-0.07 0.61,-0.25 0.18,-0.18 0.25,-0.35 0.25,-0.61 0,-1.63 -0.35,-3.18 -1.13,-4.61 -0.74,-1.36 -1.76,-2.43 -3.08,-3.23 -1.37,-0.82 -2.88,-1.17 -4.47,-1.17l-0.03 0c-1.52,0 -2.92,0.4 -4.23,1.19 -1.34,0.82 -2.38,1.92 -3.15,3.29 -0.8,1.41 -1.17,2.92 -1.17,4.53 0,1.19 0.18,2.35 0.58,3.47 0.29,0.79 0.68,1.53 1.2,2.2 0.4,0.51 0.85,0.97 1.34,1.39z"/>
   <path class="fil2" d="M286.09 29.19l-0.18 -0.07c-1.33,-0.45 -2.76,-0.79 -4.17,-0.79 -1.15,0 -2.27,0.22 -3.29,0.76 -0.7,0.4 -1.43,1.02 -1.95,1.6 -0.01,-0.62 0.06,-1.77 -0.17,-2.05 -0.09,-0.11 -0.19,-0.18 -0.31,-0.24 -0.12,-0.07 -0.25,-0.09 -0.38,-0.09 -0.26,0 -0.43,0.07 -0.61,0.25 -0.19,0.18 -0.26,0.35 -0.26,0.61l0 15.54c0,0.25 0.07,0.43 0.26,0.61 0.18,0.18 0.35,0.25 0.61,0.25 0.25,0 0.43,-0.07 0.61,-0.25 0.18,-0.18 0.25,-0.36 0.25,-0.61l0 -8.88c0,-0.57 0.11,-1.17 0.25,-1.72 0.19,-0.77 0.53,-1.48 0.98,-2.12 0.57,-0.83 1.37,-1.41 2.33,-1.71l0.03 -0.01c0.53,-0.15 1.08,-0.21 1.63,-0.21 1.24,0 2.51,0.31 3.68,0.72l0.03 0.02c0.09,0.03 0.18,0.04 0.27,0.04 0.26,0 0.45,-0.07 0.63,-0.26 0.19,-0.18 0.26,-0.35 0.26,-0.6 0,-0.19 -0.06,-0.34 -0.17,-0.5 -0.09,-0.13 -0.2,-0.23 -0.33,-0.29z"/>
   <path class="fil2" d="M265.25 29.7c-0.76,-0.48 -1.58,-0.87 -2.41,-1.14 -0.9,-0.27 -1.81,-0.4 -2.75,-0.4 -1.23,0 -2.42,0.23 -3.57,0.7 -0.81,0.34 -1.55,0.8 -2.23,1.35 -0.69,0.56 -1.29,1.19 -1.79,1.92 -0.51,0.73 -0.89,1.54 -1.17,2.39 -0.29,0.86 -0.4,1.78 -0.4,2.7 0,1.6 0.4,3.09 1.23,4.46 0.83,1.39 1.94,2.47 3.34,3.28 1.42,0.82 2.95,1.21 4.59,1.21 1.65,0 3.18,-0.39 4.61,-1.21 1.41,-0.81 2.52,-1.9 3.35,-3.3 0.83,-1.39 1.23,-2.88 1.23,-4.5 0,-1.21 -0.24,-2.37 -0.72,-3.49 -0.72,-1.65 -1.81,-2.96 -3.31,-3.97zm1.03 3.44c0.4,0.58 0.71,1.21 0.92,1.88 0.23,0.69 0.35,1.41 0.35,2.14 0,1.32 -0.34,2.56 -1.02,3.68 -0.68,1.11 -1.59,1.99 -2.72,2.62 -1.15,0.65 -2.4,0.96 -3.72,0.96 -1.31,0 -2.56,-0.31 -3.71,-0.96 -1.13,-0.63 -2.05,-1.52 -2.71,-2.63 -0.67,-1.12 -1.01,-2.36 -1.01,-3.67 0,-0.96 0.21,-1.9 0.58,-2.79l0.02 -0.03c0.57,-1.3 1.48,-2.36 2.64,-3.17l0.02 -0.02 0.02 -0.01c0.6,-0.39 1.25,-0.68 1.92,-0.9l0.03 -0.01 0.03 -0.01c0.71,-0.2 1.44,-0.31 2.17,-0.31 1.01,0 1.98,0.2 2.91,0.58 1.36,0.55 2.47,1.43 3.28,2.65z"/>
   <path class="fil2" d="M246.43 43.67l-0.02 0 -0.06 0.01c-0.42,0.05 -0.89,0.11 -1.32,0.11 -1.01,0 -2,-0.24 -2.77,-0.94 -0.82,-0.75 -1.1,-1.81 -1.1,-2.89l0 -10.53 5.21 0c0.26,0 0.44,-0.08 0.63,-0.27 0.18,-0.18 0.26,-0.36 0.26,-0.62 0,-0.25 -0.07,-0.42 -0.25,-0.6 -0.19,-0.19 -0.37,-0.26 -0.64,-0.26l-5.21 0 0 -6.53c0,-0.26 -0.07,-0.43 -0.25,-0.61 -0.19,-0.18 -0.36,-0.25 -0.62,-0.25 -0.25,0 -0.43,0.07 -0.61,0.25 -0.18,0.18 -0.25,0.35 -0.25,0.61l0 6.53 -3.25 0c-0.25,0 -0.43,0.07 -0.61,0.25 -0.18,0.18 -0.25,0.35 -0.25,0.61 0,0.26 0.08,0.45 0.26,0.64 0.18,0.18 0.35,0.25 0.6,0.25l3.25 0 0 10.38c0,1.06 0.19,2.11 0.67,3.06 0.43,0.83 1.04,1.46 1.86,1.92 0.95,0.55 2.06,0.73 3.15,0.73 0.32,0 0.64,-0.02 0.95,-0.06l0.62 -0.08c0.21,-0.03 0.35,-0.11 0.49,-0.27 0.16,-0.18 0.21,-0.35 0.21,-0.58 0,-0.26 -0.06,-0.43 -0.25,-0.61 -0.18,-0.18 -0.35,-0.25 -0.61,-0.25 -0.03,0 -0.06,0 -0.09,0z"/>
   <path class="fil2" d="M225.79 35.91c-0.45,-0.09 -0.95,-0.19 -1.38,-0.36 -0.37,-0.13 -0.74,-0.3 -1.09,-0.48 -0.57,-0.32 -1.08,-0.74 -1.33,-1.36l-0.12 -0.31 0 -0.14c-0.02,-0.11 -0.02,-0.22 -0.02,-0.33 0,-0.49 0.07,-0.97 0.26,-1.42 0.29,-0.67 0.87,-1.11 1.53,-1.37 0.64,-0.25 1.38,-0.31 2.06,-0.31 0.71,0 1.44,0.08 2.12,0.29 0.58,0.19 1.15,0.43 1.71,0.69 0.14,0.05 0.28,0.12 0.41,0.19 0.05,0.03 0.1,0.05 0.16,0.07l0.1 0.04 0.1 0.05c0.07,0.04 0.2,0.06 0.27,0.07l0.03 0 0.11 0.01c0.22,-0.01 0.37,-0.08 0.53,-0.25 0.19,-0.19 0.26,-0.37 0.26,-0.63 0,-0.17 -0.03,-0.31 -0.12,-0.45 -0.09,-0.14 -0.2,-0.25 -0.35,-0.33 -0.7,-0.36 -1.43,-0.7 -2.17,-0.96 -1.04,-0.36 -2.11,-0.56 -3.21,-0.56 -1.02,0 -2.02,0.17 -2.95,0.6 -0.79,0.36 -1.42,0.88 -1.9,1.61 -0.51,0.78 -0.68,1.69 -0.68,2.61l0 0.05c0,1.16 0.34,2.11 1.25,2.86 1.19,0.99 2.74,1.56 4.19,1.89 0.87,0.19 1.72,0.42 2.56,0.7 0.99,0.34 1.99,0.89 2.38,1.92l0.11 0.29 0 0.17c0.02,0.12 0.03,0.24 0.03,0.36 0,1.2 -0.64,2.17 -1.73,2.64 -0.76,0.34 -1.6,0.46 -2.43,0.46 -1.02,0 -2.03,-0.15 -2.99,-0.51 -0.76,-0.28 -1.5,-0.65 -2.19,-1.08l-0.01 0 -0.41 -0.25c-0.16,-0.1 -0.32,-0.15 -0.5,-0.15 -0.26,0 -0.43,0.07 -0.61,0.25 -0.19,0.18 -0.25,0.36 -0.25,0.61 0,0.18 0.03,0.33 0.13,0.48 0.09,0.15 0.21,0.25 0.37,0.33l0.08 0.04 0.07 0.05c0.97,0.62 2,1.13 3.09,1.48 1.04,0.33 2.13,0.48 3.22,0.48 1.13,0 2.27,-0.18 3.29,-0.69 0.8,-0.41 1.49,-0.96 1.96,-1.73 0.45,-0.74 0.66,-1.54 0.66,-2.41 0,-0.93 -0.21,-1.82 -0.86,-2.51 -0.65,-0.7 -1.41,-1.27 -2.3,-1.62 -1.12,-0.44 -2.28,-0.78 -3.44,-1.08z"/>
  </g>
 </g>
</svg>
