<?xml version="1.0" encoding="UTF-8"?>
<!DOCTYPE svg PUBLIC "-//W3C//DTD SVG 1.0//EN" "http://www.w3.org/TR/2001/REC-SVG-20010904/DTD/svg10.dtd">
<!-- Creator: CorelDRAW 2020 (64-Bit) -->
<svg xmlns="http://www.w3.org/2000/svg" xml:space="preserve" width="200px" height="47px" version="1.0" style="shape-rendering:geometricPrecision; text-rendering:geometricPrecision; image-rendering:optimizeQuality; fill-rule:evenodd; clip-rule:evenodd"
viewBox="0 0 81.05 18.93"
 xmlns:xlink="http://www.w3.org/1999/xlink"
 xmlns:xodm="http://www.corel.com/coreldraw/odm/2003">
 <defs>
  <style type="text/css">
   <![CDATA[
    .fil1 {fill:none}
    .fil0 {fill:#FA370F}
   ]]>
  </style>
 </defs>
 <g id="Слой_x0020_1">
  <metadata id="CorelCorpID_0Corel-Layer"/>
  <path class="fil0" d="M14.91 17.76l0 0 0 0c-0.03,0 -0.05,-0.01 -0.08,-0.01l0 0 -0.02 0c-0.01,-0.01 -0.03,-0.01 -0.05,-0.01l0 -0.01 -0.02 0c-0.03,0 -0.07,-0.01 -0.1,-0.02l0 0 -0.01 0c-0.02,-0.01 -0.05,-0.01 -0.08,-0.02l0 0 0 0c-0.01,-0.01 -0.03,-0.01 -0.04,-0.01l0 -0.01 0 0c-0.01,0 -0.02,0 -0.03,-0.01l0 0 -0.01 0c-0.02,-0.01 -0.04,-0.01 -0.07,-0.02l0 0 0 0c-0.02,-0.01 -0.04,-0.02 -0.06,-0.03l0 0 0 0 -0.02 -0.01 0 0 -0.01 0 -0.02 -0.01 0 0 0 0c-0.05,-0.02 -0.1,-0.05 -0.14,-0.07l0 -0.01 -0.01 0 -0.02 -0.01 0 0 0 0c-0.01,-0.01 -0.02,-0.01 -0.03,-0.02l0 0 -0.01 0 -0.02 -0.01 0 0 0 0c-0.01,-0.01 -0.02,-0.02 -0.04,-0.03l0 0 0 0c-0.01,-0.01 -0.02,-0.02 -0.03,-0.02 -0.02,-0.01 -0.04,-0.03 -0.05,-0.04l0 0 -0.01 0c-0.01,-0.01 -0.03,-0.02 -0.04,-0.04l0 0 0 0 -0.01 -0.01 0 0 -0.01 0c-0.02,-0.02 -0.04,-0.03 -0.05,-0.05l0 0 -0.01 0c-0.06,-0.06 -0.12,-0.12 -0.18,-0.18l0 0 0 0c-0.02,-0.02 -0.03,-0.04 -0.05,-0.06l0 0 0 0c-0.01,-0.02 -0.02,-0.03 -0.03,-0.05l0 0 -0.01 0 -0.01 -0.01 0 -0.01 0 0c-0.02,-0.03 -0.05,-0.07 -0.07,-0.1l0 -0.01 0 0c-0.01,-0.01 -0.02,-0.02 -0.02,-0.03l0 0 -0.01 0 -0.01 -0.02 0 -0.01 0 0c-0.01,-0.02 -0.02,-0.04 -0.03,-0.06l0 0 0 0c-0.02,-0.02 -0.03,-0.04 -0.04,-0.07l0 0 0 0 -0.01 -0.02 0 -0.01 0 0 -0.01 -0.02 0 0 -0.01 0c0,-0.02 -0.01,-0.04 -0.02,-0.06l0 0 0 0 -0.01 -0.03 0 0 0 0c-0.02,-0.04 -0.04,-0.09 -0.05,-0.13l0 -0.01 0 0 -0.01 -0.03 0 -0.01 0 0c-0.01,-0.03 -0.02,-0.06 -0.03,-0.09l0 0 0 0c0,-0.01 -0.01,-0.03 -0.01,-0.05l0 -0.01 0 0c0,-0.02 -0.01,-0.03 -0.01,-0.05l0 -0.02 0 0c-0.01,-0.06 -0.02,-0.12 -0.03,-0.18l0 -0.05 0 0c0,-0.03 0,-0.06 0,-0.09 0,-0.04 0,-0.07 0,-0.11l0 0 0 -0.04c0.01,-0.03 0.01,-0.07 0.01,-0.11l0.01 0 0 -0.01c0,-0.02 0,-0.05 0.01,-0.07l0 0 0 -0.01c0.01,-0.04 0.01,-0.08 0.02,-0.11l0 0 0 0c0.02,-0.08 0.05,-0.16 0.07,-0.24l0.01 0 0 0c0,-0.01 0,-0.02 0.01,-0.03l0 0 0 0c0.01,-0.03 0.02,-0.06 0.03,-0.09l0.01 0 0 0 0.01 -0.02 0 0 0 -0.01 0.01 -0.02 0 0 0 0 0.01 -0.02 0 0 0 -0.01c0.02,-0.04 0.05,-0.09 0.08,-0.13l0 0 0 0c0,-0.01 0.01,-0.02 0.02,-0.04l0 0 0 0c0.02,-0.02 0.03,-0.05 0.05,-0.07l0 0 0 0c0.01,-0.02 0.02,-0.03 0.03,-0.05l0.01 0 0 0c0.01,-0.02 0.02,-0.03 0.03,-0.05l0 0 0 0c0.02,-0.02 0.04,-0.05 0.06,-0.07l0 0 0 0 0.01 -0.01 0.01 0 0 0 0.01 -0.01 0 0 0 -0.01c0.04,-0.04 0.08,-0.08 0.12,-0.12l0 0 0 0 0.01 -0.01 0 0 0 0c0.03,-0.03 0.06,-0.05 0.09,-0.07l0 0 0 0c0.01,-0.02 0.03,-0.03 0.05,-0.04l0 0 0 0c0.01,-0.01 0.03,-0.02 0.05,-0.04l0 0 0 0c0.02,-0.01 0.05,-0.03 0.07,-0.05l0 0 0 0c0.02,-0.01 0.04,-0.02 0.06,-0.03l0 0 0 0c0.04,-0.02 0.07,-0.04 0.11,-0.06l0 0 0 0c0.05,-0.03 0.09,-0.05 0.14,-0.06l0 0 0 -0.01c0.02,0 0.04,-0.01 0.06,-0.02l0 0 0 0c0.01,0 0.02,-0.01 0.03,-0.01l0 0 0 0c0.06,-0.02 0.11,-0.04 0.16,-0.05l0 0 0 0c0.02,-0.01 0.04,-0.01 0.05,-0.01l0 0 0 0c0.04,-0.01 0.08,-0.02 0.13,-0.03l0.01 0 0 0c0.07,-0.01 0.15,-0.02 0.23,-0.02l0.04 0 0 0c0.01,0 0.02,0 0.04,0 0.01,0 0.02,0 0.03,0l0 0 0.05 0c0.07,0 0.15,0.01 0.22,0.02l0 0 0.02 0c0.02,0.01 0.04,0.01 0.05,0.01l0 0.01 0.01 0c0.02,0 0.04,0 0.06,0.01l0 0 0 0c0.03,0 0.06,0.01 0.09,0.02l0 0 0.01 0c0.01,0.01 0.02,0.01 0.03,0.01l0 0 0.01 0 0.03 0.01 0 0.01 0.01 0c0.03,0.01 0.06,0.02 0.1,0.03l0 0 0 0 0.02 0.01 0 0.01 0.01 0c0.02,0 0.03,0.01 0.05,0.02l0 0 0 0 0.03 0.01 0 0 0 0 0.02 0.01 0 0 0.01 0c0.03,0.02 0.06,0.04 0.09,0.05l0 0 0 0c0.02,0.01 0.04,0.03 0.06,0.04l0 0 0.01 0c0.01,0.01 0.03,0.02 0.05,0.04l0 0 0 0c0.03,0.02 0.06,0.04 0.09,0.06l0 0 0 0c0.02,0.01 0.03,0.02 0.05,0.03l0 0 0 0c0.02,0.02 0.03,0.03 0.05,0.04l0 0 0 0c0.08,0.07 0.17,0.16 0.24,0.24l0 0.01 0 0c0.02,0.02 0.03,0.03 0.05,0.05l0 0.01 0 0c0.02,0.02 0.04,0.05 0.06,0.07l0.01 0.03 0 0 0 0c0.02,0.01 0.03,0.03 0.04,0.05l0 0.01 0 0c0.01,0.01 0.02,0.02 0.03,0.03l0 0 0 0 0.01 0.02 0 0.01 0 0c0.03,0.05 0.06,0.11 0.08,0.16l0 0.01 0.01 0 0.01 0.02 0 0 0 0 0.01 0.03 0 0 0 0c0.01,0.02 0.01,0.04 0.02,0.06l0 0 0 0c0.01,0.01 0.01,0.02 0.01,0.03l0 0.01 0.01 0 0.01 0.03 0 0 0 0 0.01 0.04 0 0 0 0c0,0.01 0.01,0.02 0.01,0.04l0 0 0 0c0.01,0.01 0.01,0.02 0.01,0.04l0 0.01 0.01 0c0,0.03 0.01,0.06 0.02,0.09l0 0 0 0c0,0.02 0.01,0.04 0.01,0.06l0 0.02 0 0c0.01,0.02 0.01,0.03 0.01,0.05l0 0.01 0 0c0.01,0.03 0.01,0.06 0.01,0.09l0 0.03 0.01 0c0.01,0.11 0.01,0.22 0,0.33l-0.01 0 0 0.03c0,0.03 0,0.06 -0.01,0.1l0 0 0 0c0,0.03 0,0.05 -0.01,0.07l0 0 0 0.01c0,0.01 -0.01,0.03 -0.01,0.05l0 0 0 0.01c-0.01,0.04 -0.02,0.09 -0.04,0.14l0 0 0 0c0,0.01 -0.01,0.02 -0.01,0.03l0 0 0 0.01 -0.01 0.03 0 0 0 0.01 -0.01 0.03 -0.01 0 0 0c0,0.02 -0.01,0.03 -0.01,0.04 -0.01,0.02 -0.01,0.04 -0.02,0.06l0 0 0 0c-0.01,0.02 -0.02,0.04 -0.03,0.06l0 0 0 0 -0.01 0.02 0 0 0 0c-0.01,0.04 -0.03,0.07 -0.05,0.1l0 0 0 0 -0.01 0.02 0 0 0 0c-0.01,0.02 -0.02,0.04 -0.04,0.06l0 0 0 0.01c-0.02,0.03 -0.04,0.07 -0.07,0.1l0 0 0 0.01c-0.01,0.01 -0.02,0.02 -0.02,0.03l-0.01 0 0 0c-0.03,0.05 -0.07,0.1 -0.12,0.15l0 0 0 0 -0.01 0.01 0 0 0 0 -0.01 0.01 0 0 0 0c-0.02,0.02 -0.03,0.04 -0.05,0.05l0 0 0 0 -0.01 0.01 0 0 0 0.01c-0.05,0.04 -0.11,0.09 -0.16,0.13l0 0 0 0c-0.01,0.01 -0.02,0.02 -0.04,0.02l0 0 0 0.01c-0.03,0.02 -0.07,0.04 -0.11,0.07l0 0 0 0c-0.02,0.01 -0.04,0.02 -0.06,0.03l0 0 0 0 -0.02 0.02 -0.01 0 0 0c-0.03,0.01 -0.06,0.03 -0.09,0.05l0 0 0 0 -0.03 0.01 0 0 0 0c-0.02,0.01 -0.04,0.01 -0.05,0.02l-0.01 0 0 0c-0.02,0.01 -0.04,0.02 -0.05,0.02 -0.03,0.01 -0.05,0.02 -0.07,0.03l-0.01 0 0 0 -0.03 0.01 -0.01 0 0 0.01 -0.03 0.01 -0.01 0 0 0c-0.01,0 -0.02,0 -0.03,0.01l0 0 0 0c-0.04,0.01 -0.07,0.02 -0.1,0.02l0 0 0 0c-0.02,0.01 -0.04,0.01 -0.06,0.01l-0.02 0 0 0.01c-0.01,0 -0.03,0 -0.05,0.01l-0.01 0 0 0c-0.02,0 -0.05,0.01 -0.08,0.01l-0.02 0 0 0c-0.06,0.01 -0.13,0.01 -0.19,0.01l-0.01 0c-0.08,0 -0.15,0 -0.22,-0.01z"/>
  <rect class="fil1" width="81.05" height="18.93"/>
 </g>
</svg>
