<?xml version="1.0" encoding="UTF-8"?>
<!DOCTYPE svg PUBLIC "-//W3C//DTD SVG 1.0//EN" "http://www.w3.org/TR/2001/REC-SVG-20010904/DTD/svg10.dtd">
<!-- Creator: CorelDRAW 2020 (64-Bit) -->
<svg xmlns="http://www.w3.org/2000/svg" xml:space="preserve" width="201px" height="47px" version="1.0" style="shape-rendering:geometricPrecision; text-rendering:geometricPrecision; image-rendering:optimizeQuality; fill-rule:evenodd; clip-rule:evenodd"
viewBox="0 0 81.46 19.03"
 xmlns:xlink="http://www.w3.org/1999/xlink"
 xmlns:xodm="http://www.corel.com/coreldraw/odm/2003">
 <defs>
  <style type="text/css">
   <![CDATA[
    .fil3 {fill:none}
    .fil1 {fill:#333333}
    .fil2 {fill:#666666}
    .fil0 {fill:#FA370F}
   ]]>
  </style>
 </defs>
 <g id="Слой_x0020_1">
  <metadata id="CorelCorpID_0Corel-Layer"/>
  <path class="fil0" d="M19.14 10.63c-0.11,0.2 -0.27,0.36 -0.47,0.47 -0.24,0.14 -0.52,0.21 -0.8,0.21 -0.26,0 -0.52,-0.07 -0.75,-0.2 -0.7,-0.42 -0.93,-1.32 -0.52,-2.02 0.42,-0.71 1.32,-0.94 2.03,-0.53 0.44,0.27 0.72,0.75 0.72,1.27 0,0.28 -0.07,0.55 -0.21,0.8l0 0zm-15.29 2.84l0 -0.01 -0.07 0c-0.04,0 -0.09,0 -0.13,-0.01l0 0 0 0c-0.02,0 -0.04,0 -0.06,-0.01l0 0 -0.02 0c-0.02,0 -0.04,-0.01 -0.05,-0.01l0 0 -0.01 0c-0.02,-0.01 -0.04,-0.01 -0.06,-0.01l0 -0.01 0 0c-0.02,0 -0.05,-0.01 -0.08,-0.02l0 0 -0.01 0c-0.01,0 -0.02,-0.01 -0.03,-0.01l0 0 -0.01 0c-0.01,-0.01 -0.02,-0.01 -0.03,-0.01l0 0 0 0 -0.03 -0.02 0 0 -0.01 0c-0.04,-0.01 -0.08,-0.03 -0.12,-0.05l0 0 0 0 -0.02 -0.01 0 0 0 0 -0.02 -0.01 0 0 -0.01 0 -0.02 -0.01 0 0 0 0 -0.02 -0.01 0 -0.01 -0.01 0 -0.02 -0.01 0 0 0 0c-0.01,0 -0.02,-0.01 -0.03,-0.02 -0.01,0 -0.02,-0.01 -0.03,-0.01l0 0 -0.01 0 -0.01 -0.02 0 0 -0.01 0 -0.01 0 0 -0.01 -0.01 0 -0.01 -0.01 0 0 -0.01 0 0 -0.01 0 0 -0.01 0 -0.02 -0.01 0 -0.01 0 0 -0.01 0 0 -0.01 -0.01 0 -0.02 -0.01 0 0 0 0 -0.01 -0.01 0 0 -0.01 0 -0.01 -0.02 0 0 0 0 -0.01 0 0 -0.01 -0.01 0c-0.04,-0.03 -0.09,-0.07 -0.13,-0.11l0 0 0 0 -0.01 -0.01 0 0 0 0 -0.02 -0.01 0 0 0 0 -0.01 -0.01 0 -0.01 0 0 -0.01 -0.01 0 0 0 0 -0.01 -0.01 0 0 0 0 -0.01 -0.01 0 0 -0.01 0 -0.01 -0.01 0 0 0 0 -0.01 -0.02 0 0 0 0c-0.02,-0.02 -0.04,-0.04 -0.06,-0.07l0 0 0 0 -0.01 -0.01 0 0 0 0c-0.01,-0.01 -0.02,-0.02 -0.03,-0.03l0 -0.01 0 0 -0.01 -0.01 0 0 0 0 -0.01 -0.01 0 0 0 0 -0.01 -0.02 0 -0.01 -0.01 0 -0.01 -0.01 0 0 0 0c-0.01,-0.01 -0.01,-0.02 -0.02,-0.03l0 -0.01 0 0c-0.01,-0.01 -0.02,-0.02 -0.03,-0.03l0 -0.01 0 0c-0.02,-0.03 -0.04,-0.06 -0.06,-0.09l0 -0.02 0 0 -0.01 -0.01 0 -0.01 -0.01 0 0 -0.01 0 -0.02 -0.01 0 0 -0.01 0 -0.01 -0.01 0 -0.01 -0.01 0 -0.01 0 0 -0.01 -0.02 0 -0.01 0 0 -0.01 -0.02 0 0 -0.01 0 0 -0.02 0 -0.01 -0.01 0 -0.01 -0.03c0,-0.01 0,-0.02 -0.01,-0.03l0 0 0 0c0,-0.01 -0.01,-0.02 -0.01,-0.03l0 -0.02 -0.01 0 0 -0.02 0 -0.02 -0.01 0 -0.01 -0.02 0 -0.03 0 0 -0.01 -0.02 0 -0.01 0 0c0,-0.01 -0.01,-0.02 -0.01,-0.03l0 -0.02 0 0c-0.01,-0.04 -0.02,-0.07 -0.02,-0.11l0 -0.03 -0.01 0c0,-0.02 0,-0.04 -0.01,-0.06l0 -0.07 0 0c-0.01,-0.05 -0.01,-0.09 -0.01,-0.14l0 -0.04c0,-0.16 0,-0.33 0.01,-0.49l0 0 0 -0.02c0.01,-0.06 0.01,-0.12 0.01,-0.17l0.01 0 0 -0.04c0,-0.04 0,-0.08 0,-0.12l0.01 0 0 -0.05c0,-0.04 0,-0.08 0.01,-0.11l0 0 0 -0.02c0.01,-0.07 0.01,-0.14 0.02,-0.21l0 0 0 -0.02 0.01 -0.08 0.01 0 0 -0.02 0.01 -0.07 0 0 0 -0.02 0.01 -0.07 0 0 0 -0.02c0.01,-0.05 0.02,-0.1 0.03,-0.15l0 0 0 0 0.01 -0.08 0 0 0 0 0.01 -0.06 0 0 0 -0.01 0.01 -0.05 0 0 0 -0.02 0.01 -0.05 0.01 0 0 -0.01 0.01 -0.05 0 0 0 -0.02 0.01 -0.06 0 0 0 0c0.01,-0.06 0.02,-0.11 0.04,-0.17l0 0 0 0 0.01 -0.05 0 0 0 -0.01 0.01 -0.04 0 0 0 -0.01 0.01 -0.05 0 0 0 0 0.02 -0.05 0 0 0 -0.01 0.01 -0.04 0 0 0 -0.01 0.01 -0.04 0 0 0 0 0.01 -0.05 0 0 0 0 0.01 -0.05 0.01 0 0 0c0.01,-0.04 0.02,-0.09 0.03,-0.13l0 0 0 -0.01c0.01,-0.02 0.02,-0.05 0.03,-0.08l0 0 0 0 0.01 -0.04 0 0 0 -0.01 0.01 -0.04 0 0 0 0 0.01 -0.03 0 0 0 -0.01 0.01 -0.03 0.01 0 0 -0.01 0.01 -0.04 0 0 0 0 0.01 -0.04 0 0 0 0c0.03,-0.08 0.06,-0.17 0.08,-0.25l0.01 0 0 -0.01 0.01 -0.03 0 0 0 -0.01 0.01 -0.03 0 0 0 0 0.01 -0.03 0 0 0 -0.01 0.02 -0.03 0 0 0 0 0.02 -0.06 0 0 0 -0.01 0.01 -0.03 0 0 0 0c0.03,-0.08 0.06,-0.15 0.09,-0.22l0 0 0 -0.01 0.02 -0.05 0 0 0 -0.01 0.03 -0.05 0 0 0 -0.01 0.02 -0.06 0 0 0 0 0.01 -0.02 0.01 0 0 -0.01 0.02 -0.05 0 0 0 -0.01c0.01,-0.02 0.02,-0.05 0.04,-0.08l0 0 0 0 0.01 -0.03c0.68,0.28 1.44,0.27 2.1,-0.04 0.53,-0.23 0.96,-0.66 1.19,-1.2 0.4,-0.87 0.28,-1.9 -0.32,-2.65 0.03,-0.02 0.05,-0.04 0.07,-0.06l0 0 0 0 0.05 -0.03 0 0 0 -0.01 0.01 -0.01 0 0 0 0 0.03 -0.02 0.01 0 0 -0.01 0.01 0 0 0 0 -0.01 0.01 0 0 0 0 -0.01 0.02 -0.01 0.01 0 0 0 0.01 -0.01 0 0 0 0 0.01 -0.01 0 0 0 0 0.03 -0.03 0.01 0 0 0 0.01 -0.01 0 0 0 0 0.03 -0.02 0.01 0 0 -0.01 0.01 -0.01 0 0 0 0 0.03 -0.02 0.01 0 0 -0.01 0.01 0 0 0 0 -0.01 0.03 -0.02 0.01 0 0 0 0.01 -0.01 0 0 0 0 0.03 -0.02 0.01 0 0 -0.01 0.01 -0.01 0 0 0 0c0.07,-0.05 0.14,-0.1 0.21,-0.14l0 0 0 -0.01 0.02 -0.01 0 0 0 0 0.01 -0.01 0.01 0 0 0 0.01 -0.01 0.01 0 0 -0.01 0.01 0 0 0 0 -0.01 0.02 -0.01 0.01 0 0 0 0.01 -0.01 0 0 0 0 0.02 -0.01 0 0 0 -0.01 0.01 0 0.01 0 0 0 0.01 -0.02 0.01 0 0 0 0.01 -0.01 0 0 0 0 0.02 -0.01 0.01 0 0 -0.01 0.01 0 0 0 0 0 0.02 -0.01 0.01 0 0 -0.01 0.01 -0.01 0 0 0 0 0.02 -0.01 0 0 0 0 0.03 -0.02 0.01 0 0 -0.01 0.03 -0.02 0.01 0 0 0 0.03 -0.02 0 0 0 0 0.06 -0.04 0 0 0 0c0.04,-0.03 0.08,-0.05 0.12,-0.07l0.01 0 0 -0.01 0.06 -0.03 0 0 0 0 0.02 -0.01 0 0 0 -0.01 0.02 -0.01 0.01 0 0 0 0.01 -0.01 0 0 0 0 0.02 -0.01 0.01 0 0 0 0.01 -0.01 0.01 0 0 -0.01 0.01 0 0.02 0 0 -0.01 0.01 -0.01 0 0 0 0 0.02 -0.01 0 0 0 0 0.02 -0.01 0.01 0 0 0 0.01 -0.01 0.01 0 0 -0.01 0.01 -0.01 0.02 0 0 0 0.01 -0.01 0 0 0 0 0.02 -0.01 0 0 0 0 0.02 -0.01 0.01 0 0 -0.01 0.01 -0.01 0.01 0 0 0c0.03,-0.01 0.06,-0.03 0.09,-0.04l0 0 0 -0.01 0.02 -0.01 0 0 0 0c0.04,-0.02 0.08,-0.04 0.12,-0.06l0.01 0 0 0 0.01 -0.01 0.01 0 0 0 0.02 -0.01 0.01 0 0 -0.01 0.01 -0.01 0.01 0 0 0 0.02 -0.01 0 0 0 0 0.02 -0.01 0.01 0 0 0 0.02 -0.01 0 0 0 0 0.02 -0.01 0.01 0 0 -0.01 0.02 -0.01 0 0 0 0 0.03 -0.01 0 0 0 0 0.02 -0.01 0.01 0 0 -0.01 0.02 0 0.01 0 0 -0.01 0.01 -0.01 0.01 0 0 0 0.02 -0.01 0.01 0 0 0 0.02 -0.01 0 0 0 0 0.02 -0.01 0.01 0 0 -0.01 0.02 -0.01 0 0 0 0c0.03,-0.01 0.06,-0.02 0.08,-0.03l0.01 0 0 -0.01 0.02 0 0 0 0 -0.01 0.06 -0.02c0.02,0.29 0.09,0.57 0.21,0.83 0.22,0.5 0.63,0.91 1.14,1.12 0.75,0.34 1.62,0.27 2.31,-0.18 0.86,-0.57 1.25,-1.63 0.97,-2.62l0.13 0c0.05,0 0.1,0.01 0.15,0.01l0 0 0.03 0c0.04,0.01 0.08,0.01 0.11,0.01l0 0.01 0.04 0c0.04,0 0.08,0 0.11,0.01l0 0 0.02 0c0.08,0.01 0.15,0.01 0.22,0.02l0 0 0 0c0.03,0.01 0.05,0.01 0.08,0.01l0 0 0.02 0c0.02,0.01 0.05,0.01 0.07,0.01l0 0.01 0.02 0c0.02,0 0.04,0 0.06,0.01l0 0 0.02 0 0.07 0.01 0 0 0.01 0 0.08 0.01 0 0 0 0c0.07,0.02 0.14,0.03 0.21,0.04l0 0 0 0c0.02,0 0.04,0.01 0.06,0.01l0 0 0.01 0c0.01,0.01 0.03,0.01 0.05,0.01l0 0.01 0.01 0 0.05 0.01 0 0 0.01 0c0.02,0 0.03,0.01 0.05,0.01l0 0 0.01 0 0.04 0.01 0 0 0.02 0 0.04 0.01 0 0 0.01 0 0.05 0.02 0 0 0.01 0c0.07,0.01 0.13,0.03 0.2,0.05l0 0 0 0 0.04 0.01 0 0 0.01 0 0.04 0.01 0 0 0.01 0 0.04 0.01 0 0 0.01 0 0.04 0.01 0 0.01 0 0 0.04 0 0 0.01 0.01 0 0.03 0.01 0 0 0.01 0 0.04 0.01 0 0 0.01 0c0.07,0.02 0.13,0.04 0.2,0.06l0 0 0.01 0 0.03 0.01 0 0.01 0.01 0 0.03 0.01 0 0 0.01 0 0.02 0.01 0 0 0.01 0 0.03 0.01 0 0 0.01 0 0.03 0.01 0 0.01 0.01 0 0.04 0.01 0 0 0 0 0.03 0.01 0 0 0 0c0.09,0.03 0.17,0.06 0.25,0.09l0 0 0 0c0.03,0.01 0.07,0.02 0.1,0.03l0 0 0 0 0.06 0.03 0 0 0.01 0 0.03 0.01 0 0 0 0 0.02 0.01 0 0 0.01 0 0.03 0.01 0 0.01 0 0 0.02 0 0 0.01 0.01 0 0.03 0.01 0 0 0 0 0.03 0.01 0 0 0 0 0.03 0.01 0 0 0 0 0.06 0.03 0 0 0 0c0.06,0.02 0.12,0.05 0.18,0.07l0 0 0 0 0.02 0.01 0 0.01 0.01 0c0.02,0.01 0.05,0.02 0.08,0.03l0 0 0 0 0.02 0.01 0 0 0.01 0 0.02 0.01 0 0.01 0 0 0.02 0.01 0 0 0.01 0c0.03,0.01 0.05,0.02 0.08,0.04l0 0 0 0 0.02 0.01 0 0 0 0 0.03 0.01 0 0 0 0 0.02 0.01 0 0 0.01 0c0.09,0.05 0.17,0.09 0.26,0.14l0 0 0.01 0 0.02 0.01 0 0 0 0 0.02 0.01 0 0 0 0 0.03 0.01 0 0.01 0 0 0.02 0.01 0 0 0 0 0.02 0.01 0 0 0.01 0c0.02,0.01 0.04,0.02 0.06,0.03l0 0.01 0 0 0.02 0.01 0 0 0.01 0 0.02 0.01 0 0 0 0 0.02 0.01 0 0 0 0c0.08,0.05 0.16,0.09 0.23,0.14l0 0 0.01 0 0.02 0.01 0 0 0 0 0.04 0.02 0 0.01 0 0 0.02 0.01 0 0 0 0 0.04 0.02 0 0 0 0 0.02 0.01 0 0.01 0 0 0.04 0.02 0 0 0 0 0.06 0.04 0 0 0 0 0.04 0.02 0 0 0 0c0.02,0.01 0.04,0.03 0.06,0.04l0 0 0 0c0.06,0.04 0.12,0.08 0.18,0.12l0 0 0.01 0 0.03 0.02 0 0.01 0.01 0 0.03 0.02 0 0 0 0 0.03 0.02 0 0.01 0.01 0 0.03 0.02 0 0 0 0 0.04 0.02 0 0 0 0 0.01 0.01 0 0.01 0.01 0 0.03 0.02 0 0 0 0 0.03 0.03 0 0 0.01 0c0.02,0.02 0.05,0.04 0.08,0.06l0 0 0 0 0.05 0.03 0 0.01 0 0 0.05 0.03 0 0 0 0c0.02,0.01 0.03,0.03 0.05,0.04l0 0 0 0 0.01 0.01 0 0 0.01 0 0.03 0.03 0 0 0 0 0.01 0.01 0 0 0 0c0.02,0.01 0.03,0.02 0.05,0.03l0 0.01 0 0 0.01 0 0 0.01 0.01 0 0.03 0.02 0 0 0 0 0.01 0.01 0 0 0 0c0.02,0.02 0.04,0.03 0.05,0.04l0 0 0 0 0.01 0.01 0 0 0.01 0c0.01,0.02 0.03,0.03 0.04,0.04l0 0 0 0c0.05,0.04 0.1,0.08 0.15,0.12l0 0 0 0 0.01 0.01 0 0.01 0.01 0c0.02,0.02 0.04,0.04 0.07,0.06l0 0 0 0 0.01 0.01 0 0 0 0 0.01 0.01 0 0 0.01 0c0.01,0.02 0.03,0.03 0.05,0.05l0 0 0 0 0.01 0.01 0 0 0.01 0 0.01 0.01 0 0.01 0 0 0.01 0 0 0.01 0 0c0.03,0.02 0.06,0.05 0.09,0.07l0 0 0 0 0.01 0.01 0 0 0 0c0.05,0.05 0.11,0.1 0.16,0.15l0 0 0 0 0.01 0.01 0 0 0 0 0.01 0.02 0 0 0 0 0.01 0.01 0 0 0.01 0 0.01 0.01 0 0 0 0 0.01 0.01 0 0 0 0 0.01 0.01 0 0.01 0 0 0.01 0.01 0 0 0.01 0 0.01 0.01 0 0 0 0 0.01 0.01 0 0 0 0 0.01 0.01 0 0.01 0.01 0 0 0 0 0.01 0.01 0 0.01 0.01 0 0 0 0 0.01 0.01 0 0 0 0 0.01 0.01 0 0 0 0 0.01 0.01 0 0.01 0.01 0 0 0 0 0.01 0.01 0c0.05,0.05 0.1,0.11 0.15,0.16l0 0 0.01 0 0.01 0.01 0 0 0 0c0.03,0.04 0.07,0.08 0.11,0.12l0 0.01 0 0 0.01 0 0 0.01 0 0 0.01 0.01 0 0 0 0 0.01 0.01 0 0 0.01 0 0.01 0.01 0 0 0 0c0.02,0.03 0.05,0.06 0.07,0.09l0 0 0 0 0.01 0.01 0 0 0.01 0 0.01 0.01 0 0.01 0 0 0.01 0.01 0 0 0 0c0.02,0.03 0.05,0.05 0.07,0.08l0 0 0 0c0.03,0.03 0.05,0.06 0.08,0.09l0 0 0 0c0.01,0.02 0.03,0.04 0.04,0.06l0 0 0.01 0 0.01 0.01 0 0 0 0c0.01,0.02 0.02,0.03 0.03,0.05l0 0 0.01 0 0.01 0.01 0 0.01 0 0c0.01,0.01 0.02,0.02 0.03,0.04l0 0 0.01 0 0.01 0.01 0 0.01 0 0 0.01 0.01 0 0 0 0 0.02 0.03 0 0.01 0.01 0 0 0.01 0 0 0.01 0c0.01,0.02 0.03,0.04 0.04,0.06l0 0 0.01 0c0.02,0.04 0.05,0.07 0.08,0.11l0 0 0 0c0.01,0.02 0.03,0.03 0.04,0.05l0 0 0 0 0.02 0.03 0 0.01 0.01 0 0 0.01 0 0 0 0 0.03 0.03 0 0.01 0 0 0.02 0.03 0 0 0.01 0 0.01 0.01 0 0.01 0 0 0.02 0.03 0 0 0 0 0.01 0.01 0 0 0 0 0.02 0.02 0 0.01 0 0 0.01 0.01 0 0 0 0 0.02 0.03 0 0.01 0.01 0 0.02 0.03 0 0.01 0 0 0.01 0.01 0 0 0 0c0.01,0.01 0.02,0.02 0.02,0.03l0 0 0 0 0.03 0.04 0 0 0 0c0.01,0.02 0.03,0.04 0.04,0.06 -0.45,0.28 -0.81,0.7 -1.01,1.19 -0.29,0.69 -0.28,1.47 0.03,2.15 0.24,0.56 0.69,1 1.24,1.24 0.46,0.2 0.97,0.27 1.47,0.21 0.01,0.04 0.01,0.08 0.01,0.12l0 0.02 0.01 0c0,0.04 0,0.08 0.01,0.12l0 0.04 0 0c0,0.05 0.01,0.09 0.01,0.14l0 0.02 0 0c0,0.07 0.01,0.14 0.01,0.2l0 0.05 0 0c0.01,0.1 0.01,0.2 0.01,0.3l0 0.16c0,0.05 0,0.1 -0.01,0.15l0 0 0 0.01c0,0.02 -0.01,0.05 -0.01,0.08l0 0 0 0c0,0.02 -0.01,0.04 -0.01,0.06l0 0 0 0.01c-0.01,0.01 -0.01,0.02 -0.01,0.04l-0.01 0 0 0.01c0,0.02 0,0.03 -0.01,0.05l0 0 0 0c0,0.01 -0.01,0.02 -0.01,0.04l0 0 0 0 -0.01 0.03 0 0 0 0.01 -0.01 0.03 -0.01 0 0 0.01 -0.01 0.03 0 0 0 0 -0.01 0.03 0 0 0 0.01c-0.01,0.02 -0.02,0.05 -0.04,0.08l0 0 0 0 -0.01 0.03 0 0 0 0 -0.01 0.02 0 0 0 0.01 -0.01 0.01 0 0 0 0.01 -0.01 0.02 -0.01 0 0 0 -0.01 0.02 0 0 0 0.01c-0.01,0.02 -0.03,0.05 -0.05,0.08l0 0 0 0c-0.01,0.01 -0.01,0.02 -0.02,0.04l0 0 0 0c-0.01,0.01 -0.02,0.02 -0.03,0.03l0 0 0 0.01c-0.01,0.01 -0.02,0.03 -0.03,0.04l0 0 0 0.01c-0.03,0.04 -0.07,0.08 -0.1,0.12l0 0 0 0 -0.01 0.01 0 0 0 0 -0.01 0.01 -0.01 0 0 0 -0.01 0.01 0 0 0 0.01c-0.03,0.03 -0.05,0.05 -0.08,0.08l-0.01 0 0 0 -0.01 0.01 0 0 0 0 -0.01 0.01 0 0 0 0c-0.02,0.02 -0.04,0.04 -0.06,0.05l0 0 0 0.01 -0.01 0.01 0 0 0 0c-0.04,0.02 -0.07,0.05 -0.1,0.07l0 0 0 0c-0.01,0.01 -0.03,0.02 -0.04,0.02l0 0 0 0 -0.02 0.02 0 0 0 0c-0.02,0.01 -0.03,0.01 -0.04,0.02l0 0 0 0c-0.02,0.01 -0.04,0.02 -0.05,0.03l-0.01 0.01 0 0 0 0 -0.02 0.01 -0.01 0 0 0 -0.02 0.01 0 0 0 0 -0.02 0.01 -0.01 0 0 0.01 -0.02 0.01 0 0 0 0 -0.02 0.01 -0.01 0 0 0 -0.02 0.01 0 0 0 0c-0.02,0.01 -0.04,0.02 -0.07,0.03l-0.02 0.01 0 0 0 0 -0.03 0.01 0 0 0 0 -0.03 0.01 -0.01 0 0 0.01 -0.03 0.01 -0.01 0 0 0c-0.01,0 -0.02,0 -0.03,0.01l0 0 0 0c-0.03,0.01 -0.06,0.02 -0.09,0.02l-0.01 0 0 0.01c-0.02,0 -0.03,0 -0.05,0l0 0 0 0.01c-0.02,0 -0.04,0 -0.06,0.01l0 0 0 0c-0.03,0 -0.06,0.01 -0.08,0.01l-0.02 0 0 0c-0.04,0.01 -0.08,0.01 -0.13,0.01l-0.01 0 0 0c-0.02,0 -0.05,0 -0.07,0l0 0 -0.1 0c-0.04,0 -0.08,0 -0.12,-0.01l0 0 -0.02 0c-0.02,0 -0.05,-0.01 -0.07,-0.01l0 0 -0.01 0c-0.02,-0.01 -0.04,-0.01 -0.06,-0.01l0 -0.01 -0.01 0c-0.01,0 -0.03,0 -0.04,-0.01l0 0 -0.01 0c-0.01,0 -0.03,0 -0.04,-0.01l0 0 -0.01 0c-0.01,0 -0.03,-0.01 -0.04,-0.01l0 0 0 0c-0.03,-0.01 -0.05,-0.02 -0.08,-0.03l0 0 0 0c-0.01,0 -0.02,0 -0.03,-0.01l0 0 0 0c-0.02,-0.01 -0.04,-0.01 -0.06,-0.02l0 0 -0.01 0c-0.03,-0.02 -0.07,-0.03 -0.1,-0.05l0 0 -0.01 0 -0.02 -0.01 0 -0.01 0 0 -0.02 -0.01 0 0 -0.01 0 -0.02 -0.01 0 0 0 0c-0.03,-0.01 -0.05,-0.03 -0.08,-0.05 -0.08,-0.04 -0.16,-0.09 -0.24,-0.13 -0.05,-0.03 -0.1,-0.06 -0.15,-0.09 -0.08,-0.04 -0.17,-0.09 -0.23,-0.12 -0.06,-0.03 -0.12,-0.06 -0.19,-0.1 -0.06,-0.03 -0.13,-0.06 -0.21,-0.1 -0.07,-0.03 -0.15,-0.07 -0.21,-0.1 -0.07,-0.03 -0.13,-0.05 -0.19,-0.08 -0.08,-0.03 -0.17,-0.07 -0.25,-0.1l-0.17 -0.07c-0.09,-0.03 -0.19,-0.07 -0.29,-0.11l-0.07 -0.02 0 0 0 0 -0.05 -0.02c-0.11,-0.04 -0.23,-0.08 -0.34,-0.12 -0.03,-0.01 -0.07,-0.02 -0.1,-0.03 -0.12,-0.03 -0.25,-0.07 -0.38,-0.11l-0.06 -0.02c-0.14,-0.04 -0.28,-0.07 -0.42,-0.11l-0.05 -0.01c-0.15,-0.04 -0.29,-0.07 -0.45,-0.11l-0.01 0c-0.17,-0.03 -0.33,-0.06 -0.5,-0.09l-0.01 0c-0.16,-0.03 -0.33,-0.06 -0.49,-0.09l-0.04 0c-0.16,-0.02 -0.32,-0.04 -0.48,-0.06l-0.08 -0.01c-0.15,-0.02 -0.3,-0.03 -0.45,-0.05 -0.04,0 -0.09,-0.01 -0.14,-0.01 -0.13,-0.01 -0.26,-0.02 -0.39,-0.03 -0.09,0 -0.19,-0.01 -0.29,-0.01l-0.25 -0.01c-0.18,-0.01 -0.36,-0.01 -0.54,-0.01 -0.18,0 -0.36,0.01 -0.54,0.01 -0.09,0 -0.2,0.01 -0.29,0.01 -0.08,0.01 -0.16,0.01 -0.24,0.01 -0.12,0.01 -0.23,0.02 -0.35,0.03l-0.19 0.01 -0.34 0.04 -0.18 0.02c-0.12,0.01 -0.22,0.03 -0.33,0.04 -0.07,0.01 -0.13,0.02 -0.19,0.03 -0.11,0.01 -0.2,0.03 -0.3,0.05l-0.22 0.03c-0.08,0.02 -0.16,0.04 -0.24,0.05l-0.26 0.05c-0.07,0.02 -0.13,0.03 -0.19,0.05l-0.3 0.07 -0.15 0.04c-0.11,0.03 -0.23,0.06 -0.33,0.09l-0.13 0.04c-0.12,0.04 -0.23,0.07 -0.35,0.11l-0.12 0.04c-0.11,0.04 -0.23,0.08 -0.35,0.12l-0.09 0.03c-0.11,0.05 -0.24,0.1 -0.36,0.14 -0.02,0.01 -0.04,0.02 -0.06,0.03 -0.13,0.05 -0.26,0.1 -0.38,0.16l-0.06 0.03c-0.12,0.05 -0.25,0.11 -0.37,0.17l-0.06 0.03c-0.12,0.06 -0.24,0.12 -0.35,0.19 -0.03,0.01 -0.05,0.03 -0.08,0.04 -0.11,0.06 -0.21,0.12 -0.32,0.18 -0.03,0.02 -0.06,0.04 -0.09,0.05l0 0 0 0.01 -0.02 0.01 -0.01 0 0 0 -0.02 0.01 0 0 0 0 -0.02 0.01 -0.01 0 0 0c-0.02,0.02 -0.05,0.03 -0.08,0.04l0 0 0 0c-0.02,0.01 -0.04,0.02 -0.06,0.02l0 0 0 0 -0.04 0.02 0 0 0 0c-0.01,0 -0.02,0 -0.03,0.01l-0.01 0 0 0c-0.01,0 -0.02,0.01 -0.03,0.01l0 0 0 0c-0.03,0.01 -0.06,0.02 -0.09,0.02l-0.01 0 0 0.01c-0.02,0 -0.03,0 -0.05,0.01l0 0 0 0c-0.02,0 -0.04,0.01 -0.06,0.01l0 0 0 0c-0.03,0 -0.05,0.01 -0.08,0.01l-0.01 0 0 0c-0.04,0.01 -0.08,0.01 -0.12,0.01l-0.04 0 0 0.01c-0.04,0 -0.07,0 -0.11,0zm12.3 -6.23c-1.17,0 -2.12,-0.95 -2.11,-2.12 0,-1.17 0.95,-2.11 2.12,-2.11 0.72,0 1.39,0.37 1.78,0.98 0.4,0.64 0.44,1.43 0.11,2.11 -0.19,0.41 -0.52,0.73 -0.93,0.92 -0.3,0.15 -0.64,0.22 -0.98,0.22l0.01 0zm-4.56 1.9c-0.23,0.54 -0.66,0.96 -1.2,1.19 -0.34,0.15 -0.7,0.23 -1.06,0.23 -1.37,0 -2.48,-1.11 -2.49,-2.48 0,-1.37 1.11,-2.49 2.48,-2.49 0.84,-0.01 1.63,0.42 2.09,1.12 0.27,0.4 0.41,0.88 0.41,1.37 0,0.36 -0.08,0.72 -0.23,1.06z"/>
  <path class="fil0" d="M21.1 8.73c0.16,0.36 0.44,0.64 0.79,0.79 0.32,0.14 0.66,0.19 1.01,0.15 -0.21,-1.12 -0.6,-2.2 -1.16,-3.2 -0.3,0.19 -0.54,0.47 -0.67,0.79 -0.2,0.47 -0.19,1.01 0.03,1.47z"/>
  <path class="fil0" d="M17.87 9.21c-0.34,0 -0.62,0.26 -0.63,0.6 0,0.23 0.12,0.45 0.32,0.56 0.21,0.12 0.48,0.11 0.69,-0.02 0.05,-0.04 0.1,-0.08 0.14,-0.14 0.13,-0.21 0.14,-0.47 0.01,-0.69 -0.11,-0.19 -0.31,-0.31 -0.53,-0.31z"/>
  <path class="fil0" d="M17.2 4.45c-0.36,-0.58 -1.13,-0.76 -1.72,-0.4 -0.59,0.36 -0.77,1.13 -0.41,1.72 0.11,0.17 0.24,0.31 0.41,0.41 0.39,0.24 0.87,0.26 1.28,0.05 0.22,-0.1 0.4,-0.28 0.5,-0.5 0.21,-0.41 0.18,-0.89 -0.06,-1.28z"/>
  <path class="fil0" d="M10.63 3.24l0 0 -0.01 0c-0.03,0 -0.06,0 -0.1,-0.01l0 0 -0.01 0c-0.03,0 -0.05,-0.01 -0.07,-0.01l0 0 0 0c-0.02,0 -0.04,-0.01 -0.05,-0.01l0 0 -0.01 0c-0.01,-0.01 -0.03,-0.01 -0.04,-0.01l0 -0.01 -0.01 0c-0.01,0 -0.03,0 -0.04,-0.01l0 0 0 0c-0.03,-0.01 -0.05,-0.01 -0.07,-0.02l0 0 -0.01 0c-0.01,-0.01 -0.02,-0.01 -0.03,-0.01l0 0 0 0 -0.03 -0.01 0 -0.01 0 0c-0.02,-0.01 -0.04,-0.01 -0.06,-0.02 -0.02,-0.01 -0.03,-0.02 -0.05,-0.02l0 -0.01 0 0 -0.02 0 0 -0.01 -0.01 0 -0.02 -0.01 0 0 0 0 -0.02 -0.01 0 0 -0.01 0 -0.02 -0.01 0 -0.01 0 0c-0.01,0 -0.02,-0.01 -0.03,-0.02l0 0 -0.01 0c-0.02,-0.02 -0.04,-0.03 -0.07,-0.05l0 0 0 0c-0.02,-0.01 -0.03,-0.02 -0.05,-0.03l0 -0.01 0 0 -0.01 0 0 -0.01 0 0 -0.01 0 0 -0.01 -0.01 0c-0.01,-0.01 -0.03,-0.03 -0.04,-0.04l0 0 0 0 -0.01 -0.01 0 0 0 0c-0.01,-0.01 -0.02,-0.02 -0.03,-0.02l0 -0.01 0 0 -0.01 -0.01 0 0 0 0 -0.01 -0.01 0 0 0 0c-0.02,-0.02 -0.03,-0.04 -0.05,-0.05l0 -0.01 -0.01 0 0 -0.01 0 0 -0.01 0 -0.01 -0.01 0 -0.01 0 0c-0.01,-0.01 -0.02,-0.03 -0.03,-0.04l0 -0.01 0 0c-0.02,-0.02 -0.04,-0.04 -0.05,-0.07l0 0 0 0 -0.01 -0.02 0 0 -0.01 0 -0.01 -0.02 0 -0.01 0 0 -0.01 -0.01 0 0 0 0 -0.01 -0.02 0 -0.01 0 0 -0.01 -0.02 0 0 -0.01 0 -0.01 -0.02 0 0 0 0c0,-0.01 -0.01,-0.02 -0.01,-0.03 -0.01,-0.02 -0.01,-0.04 -0.02,-0.05l0 -0.01 0 0 -0.01 -0.03 0 0 0 0c-0.01,-0.01 -0.01,-0.02 -0.02,-0.03l0 0 0 0c-0.01,-0.04 -0.02,-0.07 -0.03,-0.11l0 0 0 0c-0.01,-0.02 -0.01,-0.03 -0.02,-0.05l0 0 0 0c0,-0.02 -0.01,-0.03 -0.01,-0.05l0 0 0 0c-0.01,-0.05 -0.02,-0.09 -0.02,-0.13l0 -0.02 -0.01 0c0,-0.04 0,-0.07 -0.01,-0.11l0 0 0 0c0,-0.03 0,-0.06 0,-0.09l0 0 0 -0.11 0.01 -0.02 0.05 -0.01 0.01 0 0 -0.01 0.03 -0.01 0 0 0 0 0.04 -0.01 0 0 0 0 0.04 -0.01 0.01 0 0 -0.01 0.03 0 0.01 0 0 -0.01 0.03 -0.01 0.02 0 0 0 0.02 -0.01 0.01 0 0 0 0.03 -0.01 0.01 0 0 0 0.03 -0.01 0.02 0 0 -0.01 0.02 0 0.02 0 0 -0.01 0.02 -0.01 0.02 0 0 0 0.03 -0.01 0.01 0 0 0 0.03 -0.01 0.01 0 0 0 0.04 -0.01 0.01 0 0 -0.01c0.03,0 0.05,-0.01 0.08,-0.02l0 0 0 0 0.05 -0.01 0 0 0 0 0.05 -0.01 0 0 0 0 0.05 -0.02 0.01 0 0 0 0.04 -0.01 0.01 0 0 0 0.04 -0.01 0.03 0 0 -0.01 0.03 0 0.01 0 0 -0.01 0.04 -0.01 0.03 0 0 0 0.03 -0.01 0.03 0 0 0 0.03 -0.01 0.02 0 0 0 0.04 -0.01 0.02 0 0 -0.01 0.04 0 0.01 0 0 -0.01 0.05 -0.01 0.01 0 0 0c0.04,-0.01 0.08,-0.01 0.13,-0.02l0 0 0 0 0.07 -0.01 0.02 0 0 -0.01 0.05 -0.01 0.04 0 0 0 0.04 -0.01 0.03 0 0 0 0.05 -0.01 0.04 0 0 -0.01 0.05 0 0.03 0 0 -0.01 0.06 -0.01 0.03 0 0 0 0.07 -0.01 0 0 0 0c0.04,0 0.07,-0.01 0.11,-0.01l0.02 0 0 0c0.03,-0.01 0.07,-0.01 0.1,-0.01l0.06 0 0 -0.01c0.02,0 0.05,0 0.08,0l0.08 0 0 -0.01c0.02,0 0.05,0 0.08,-0.01l0.06 0 0 0c0.06,0 0.11,-0.01 0.16,-0.01l0.04 0 0 0.01 0 0 0 0c0.01,0.02 0.02,0.04 0.03,0.06l0 0 0 0 0.01 0.03 0 0.01 0 0 0.01 0.02 0 0.01 0 0 0.01 0.02 0 0.01 0.01 0 0.01 0.03 0 0.01 0 0c0.01,0.03 0.01,0.05 0.02,0.08l0 0.01 0 0c0.01,0.01 0.01,0.03 0.01,0.04l0 0.03 0.01 0c0,0.01 0,0.02 0,0.04l0 0.02 0.01 0c0,0.02 0,0.05 0.01,0.07l0 0.01 0 0c0.01,0.12 0.01,0.24 -0.01,0.35l-0.01 0 0 0.03c0,0.02 0,0.03 0,0.05l-0.01 0 0 0.02c0,0.01 0,0.02 -0.01,0.04l0 0 0 0.01c-0.01,0.03 -0.02,0.06 -0.02,0.09l0 0 0 0 -0.01 0.02 -0.01 0 0 0.02 -0.01 0.02 0 0 0 0.01 -0.01 0.03 0 0 0 0 -0.01 0.02 0 0 0 0.01 -0.01 0.03 -0.01 0 0 0c-0.01,0.02 -0.02,0.05 -0.03,0.07l0 0 0 0.01 -0.01 0.02 -0.01 0 0 0 -0.01 0.02 0 0 0 0c0,0.01 -0.01,0.03 -0.02,0.04l0 0 0 0 -0.01 0.02 0 0 0 0c-0.01,0.02 -0.02,0.03 -0.03,0.04l0 0 0 0c-0.02,0.03 -0.04,0.06 -0.06,0.08l0 0 0 0.01 -0.01 0.01 0 0 0 0c-0.02,0.02 -0.03,0.03 -0.04,0.05l0 0 0 0 -0.01 0.01 0 0 0 0 -0.01 0.01 0 0 0 0.01 -0.01 0 -0.01 0 0 0.01 0 0.01 -0.01 0 0 0c-0.03,0.03 -0.05,0.06 -0.08,0.08l-0.01 0 0 0 -0.01 0.01 0 0 0 0.01c-0.01,0.01 -0.03,0.02 -0.04,0.03l-0.01 0 0 0.01 -0.01 0 0 0 0 0.01 -0.01 0.01 0 0 0 0 -0.02 0.01 -0.01 0 0 0 0 0.01 -0.01 0 0 0c-0.02,0.02 -0.03,0.03 -0.05,0.04 -0.02,0.01 -0.04,0.02 -0.06,0.03l0 0 0 0.01 -0.02 0.01 0 0 0 0c-0.05,0.03 -0.1,0.05 -0.15,0.07l0 0 0 0c-0.02,0.01 -0.04,0.02 -0.06,0.03l0 0 0 0c-0.04,0.01 -0.07,0.02 -0.11,0.03l0 0 0 0c-0.03,0.01 -0.06,0.02 -0.09,0.03l0 0 0 0c-0.04,0.01 -0.09,0.01 -0.13,0.02l-0.02 0 0 0c-0.03,0.01 -0.06,0.01 -0.09,0.01l-0.01 0 0 0c-0.07,0.01 -0.14,0.01 -0.21,0z"/>
  <path class="fil0" d="M9.33 6.46c-0.9,0 -1.62,0.72 -1.62,1.62 0,0.54 0.27,1.05 0.73,1.35 0.48,0.32 1.09,0.36 1.61,0.12 0.34,-0.15 0.6,-0.42 0.74,-0.75 0.25,-0.52 0.2,-1.13 -0.11,-1.61 -0.3,-0.46 -0.81,-0.73 -1.35,-0.73z"/>
  <path class="fil0" d="M4.71 6.52c0.33,-0.15 0.59,-0.42 0.73,-0.75 0.27,-0.57 0.2,-1.23 -0.16,-1.74 -0.78,0.74 -1.43,1.6 -1.95,2.54 0.45,0.17 0.94,0.15 1.38,-0.05z"/>
  <path class="fil1" d="M48.41 12.31l0 -2.3c0,-0.39 -0.09,-0.75 -0.3,-1.07 -0.2,-0.33 -0.47,-0.58 -0.8,-0.76 -0.33,-0.19 -0.68,-0.28 -1.06,-0.28 -0.34,0 -0.67,0.08 -0.98,0.23l-0.26 0.14 0 -1.78c0,-0.13 -0.05,-0.24 -0.14,-0.33 -0.09,-0.09 -0.19,-0.13 -0.32,-0.13 -0.13,0 -0.23,0.04 -0.32,0.13 -0.09,0.09 -0.14,0.2 -0.14,0.33l0 5.82c0,0.13 0.05,0.24 0.14,0.33 0.09,0.09 0.19,0.13 0.32,0.13 0.13,0 0.23,-0.04 0.32,-0.13 0.09,-0.09 0.14,-0.2 0.14,-0.33l0 -2.29c0,-0.16 0.03,-0.32 0.09,-0.46 0.1,-0.23 0.26,-0.42 0.48,-0.55 0.2,-0.12 0.43,-0.18 0.67,-0.18 0.21,0 0.41,0.04 0.59,0.13 0.2,0.1 0.35,0.24 0.47,0.42 0.13,0.19 0.18,0.41 0.18,0.64l0 2.29c0,0.13 0.05,0.24 0.14,0.33 0.09,0.09 0.2,0.13 0.33,0.13 0.12,0 0.23,-0.04 0.32,-0.13 0.09,-0.09 0.13,-0.2 0.13,-0.33z"/>
  <path class="fil0" d="M55.71 12.87c0.12,0 0.23,-0.04 0.32,-0.13 0.09,-0.1 0.13,-0.2 0.13,-0.33 0,-0.13 -0.04,-0.23 -0.13,-0.32 -0.09,-0.09 -0.2,-0.14 -0.32,-0.14 -0.13,0 -0.24,0.05 -0.33,0.14 -0.09,0.09 -0.13,0.19 -0.13,0.32 0,0.13 0.04,0.23 0.13,0.33 0.09,0.09 0.2,0.13 0.33,0.13z"/>
  <path class="fil1" d="M54.38 9.46c-0.19,-0.46 -0.5,-0.82 -0.91,-1.1 -0.21,-0.13 -0.44,-0.24 -0.67,-0.32 -0.25,-0.07 -0.5,-0.11 -0.76,-0.11 -0.34,0 -0.67,0.07 -0.99,0.2 -0.23,0.09 -0.43,0.22 -0.62,0.37 -0.19,0.16 -0.36,0.33 -0.5,0.53 -0.14,0.2 -0.24,0.43 -0.32,0.66 -0.08,0.25 -0.11,0.5 -0.11,0.76 0,0.44 0.11,0.86 0.34,1.24 0.23,0.38 0.54,0.69 0.93,0.91 0.39,0.23 0.81,0.34 1.27,0.34 0.45,0 0.88,-0.11 1.27,-0.34 0.39,-0.23 0.7,-0.53 0.93,-0.91 0.23,-0.39 0.34,-0.81 0.34,-1.26 0,-0.33 -0.06,-0.66 -0.2,-0.97zm-2.34 2.56c-0.29,0 -0.56,-0.07 -0.82,-0.21 -0.24,-0.14 -0.44,-0.34 -0.59,-0.58 -0.15,-0.24 -0.22,-0.51 -0.22,-0.8 0,-0.21 0.05,-0.41 0.13,-0.61 0.13,-0.29 0.33,-0.52 0.58,-0.7l0.01 0c0.13,-0.08 0.27,-0.15 0.42,-0.2l0.01 0c0.15,-0.04 0.32,-0.07 0.48,-0.07 0.22,0 0.43,0.05 0.64,0.13 0.29,0.12 0.54,0.31 0.71,0.58 0.09,0.12 0.16,0.26 0.2,0.4 0.05,0.16 0.08,0.31 0.08,0.47 0,0.29 -0.07,0.56 -0.22,0.8 -0.15,0.24 -0.35,0.44 -0.6,0.58 -0.25,0.14 -0.52,0.21 -0.81,0.21z"/>
  <path class="fil1" d="M39.34 8.36c-0.01,-0.11 -0.05,-0.21 -0.14,-0.29 -0.09,-0.08 -0.19,-0.12 -0.31,-0.12 -0.12,0 -0.23,0.04 -0.32,0.12 -0.08,0.08 -0.13,0.18 -0.14,0.29l0 2.35c0,0.38 0.09,0.75 0.3,1.08 0.2,0.32 0.47,0.57 0.8,0.76 0.33,0.18 0.69,0.27 1.07,0.27 0.37,0 0.73,-0.1 1.06,-0.27l0.15 -0.09 0.09 0.15c0.04,0.07 0.1,0.12 0.17,0.16 0.07,0.04 0.14,0.06 0.22,0.06 0.13,0 0.24,-0.04 0.33,-0.13 0.09,-0.09 0.13,-0.19 0.13,-0.32l0 -3.97c0,-0.13 -0.04,-0.23 -0.13,-0.32 -0.09,-0.1 -0.2,-0.14 -0.33,-0.14 -0.13,0 -0.23,0.05 -0.32,0.14 -0.09,0.09 -0.14,0.19 -0.14,0.32l0 2.3c0,0.23 -0.06,0.45 -0.19,0.64 -0.12,0.18 -0.28,0.31 -0.47,0.41 -0.19,0.09 -0.39,0.14 -0.6,0.14 -0.26,0 -0.5,-0.07 -0.71,-0.21 -0.23,-0.16 -0.38,-0.37 -0.46,-0.63 -0.04,-0.11 -0.06,-0.23 -0.06,-0.35l0 -2.35z"/>
  <path class="fil1" d="M37.24 12.31l0 -2.29c0,-0.38 -0.1,-0.73 -0.29,-1.06 -0.2,-0.33 -0.46,-0.58 -0.79,-0.77 -0.33,-0.2 -0.7,-0.29 -1.08,-0.29 -0.3,0 -0.59,0.06 -0.86,0.18 -0.27,0.11 -0.51,0.27 -0.71,0.49l-0.14 0.13 -0.13 -0.13c-0.2,-0.22 -0.44,-0.38 -0.71,-0.49 -0.27,-0.12 -0.56,-0.18 -0.85,-0.18 -0.38,0 -0.74,0.1 -1.08,0.28l-0.15 0.08 -0.09 -0.15c-0.04,-0.07 -0.1,-0.12 -0.17,-0.16 -0.07,-0.04 -0.14,-0.06 -0.22,-0.06 -0.13,0 -0.24,0.04 -0.33,0.13 -0.09,0.1 -0.13,0.2 -0.13,0.33l0 3.96c0,0.13 0.04,0.24 0.13,0.33 0.09,0.09 0.2,0.13 0.33,0.13 0.12,0 0.23,-0.04 0.32,-0.13 0.09,-0.09 0.13,-0.2 0.13,-0.33l0 -2.29c0,-0.24 0.06,-0.45 0.19,-0.65 0.12,-0.17 0.28,-0.31 0.47,-0.41 0.19,-0.09 0.4,-0.13 0.61,-0.13 0.26,0 0.49,0.06 0.71,0.21 0.22,0.15 0.37,0.36 0.46,0.62 0.03,0.12 0.05,0.24 0.05,0.36l0 2.29c0,0.13 0.04,0.24 0.14,0.33 0.09,0.09 0.19,0.13 0.32,0.13 0.13,0 0.23,-0.04 0.32,-0.13 0.1,-0.09 0.14,-0.2 0.14,-0.33l0 -2.29c0,-0.23 0.06,-0.45 0.19,-0.64 0.12,-0.18 0.28,-0.32 0.47,-0.42 0.19,-0.09 0.39,-0.14 0.61,-0.14 0.25,0 0.49,0.07 0.71,0.21 0.22,0.16 0.37,0.37 0.45,0.63l0.01 0.01 0 0c0.03,0.11 0.05,0.23 0.05,0.35l0 2.29c0,0.13 0.04,0.24 0.13,0.33 0.09,0.09 0.2,0.13 0.32,0.13 0.13,0 0.24,-0.04 0.33,-0.13 0.09,-0.09 0.13,-0.2 0.14,-0.33z"/>
  <path class="fil2" d="M75.29 12.14c0.2,0.16 0.43,0.28 0.66,0.36 0.27,0.08 0.55,0.12 0.83,0.12 0.29,0 0.56,-0.06 0.83,-0.16 0.23,-0.09 0.44,-0.21 0.64,-0.37l0.08 -0.07c0.02,-0.02 0.04,-0.04 0.05,-0.07 0.01,-0.03 0.02,-0.06 0.02,-0.09 0,-0.06 -0.02,-0.11 -0.06,-0.15 -0.05,-0.05 -0.09,-0.07 -0.16,-0.07 -0.06,0 -0.1,0.02 -0.15,0.06l0 0.01c-0.18,0.15 -0.37,0.26 -0.58,0.34 -0.21,0.09 -0.44,0.13 -0.67,0.13 -0.27,0 -0.54,-0.04 -0.8,-0.14 -0.16,-0.06 -0.3,-0.15 -0.44,-0.26l0 0 0 -0.01c-0.2,-0.16 -0.34,-0.37 -0.45,-0.59l0 -0.01 0 -0.01c-0.11,-0.25 -0.15,-0.52 -0.15,-0.79 0,-0.32 0.07,-0.63 0.23,-0.91 0.15,-0.27 0.35,-0.5 0.62,-0.66 0.26,-0.17 0.55,-0.26 0.86,-0.26 0.34,0 0.67,0.09 0.96,0.27 0.28,0.18 0.49,0.43 0.63,0.74 0.08,0.2 0.11,0.39 0.12,0.59l-1.96 0c-0.07,0 -0.11,0.02 -0.15,0.07 -0.05,0.05 -0.07,0.09 -0.07,0.16 0,0.06 0.02,0.11 0.06,0.15 0.05,0.05 0.09,0.06 0.16,0.06l2.22 0c0.06,0 0.11,-0.01 0.15,-0.06 0.05,-0.04 0.07,-0.09 0.07,-0.15 0,-0.41 -0.09,-0.8 -0.29,-1.16 -0.18,-0.34 -0.44,-0.61 -0.77,-0.81 -0.35,-0.21 -0.72,-0.29 -1.12,-0.29l-0.01 0c-0.38,0 -0.73,0.09 -1.06,0.29 -0.34,0.21 -0.6,0.49 -0.79,0.83 -0.2,0.35 -0.3,0.73 -0.3,1.14 0,0.3 0.05,0.59 0.15,0.87 0.07,0.2 0.17,0.38 0.3,0.55 0.1,0.13 0.21,0.25 0.34,0.35z"/>
  <path class="fil2" d="M73.89 8.43l-0.04 -0.02c-0.34,-0.11 -0.7,-0.19 -1.05,-0.19 -0.29,0 -0.57,0.05 -0.83,0.19 -0.17,0.1 -0.36,0.25 -0.49,0.4 0,-0.16 0.02,-0.45 -0.04,-0.52 -0.02,-0.02 -0.05,-0.04 -0.08,-0.06 -0.03,-0.01 -0.06,-0.02 -0.09,-0.02 -0.07,0 -0.11,0.02 -0.16,0.06 -0.04,0.05 -0.06,0.09 -0.06,0.16l0 3.9c0,0.06 0.02,0.11 0.06,0.15 0.05,0.05 0.09,0.06 0.16,0.06 0.06,0 0.11,-0.01 0.15,-0.06 0.05,-0.04 0.06,-0.09 0.06,-0.15l0 -2.23c0,-0.15 0.03,-0.29 0.07,-0.43 0.05,-0.2 0.13,-0.37 0.24,-0.54 0.15,-0.21 0.35,-0.35 0.59,-0.42l0.01 -0.01c0.13,-0.03 0.27,-0.05 0.4,-0.05 0.32,0 0.64,0.08 0.93,0.18l0.01 0c0.02,0.01 0.04,0.02 0.06,0.02 0.07,0 0.12,-0.02 0.16,-0.07 0.05,-0.04 0.07,-0.09 0.07,-0.15 0,-0.05 -0.02,-0.09 -0.04,-0.13 -0.03,-0.03 -0.05,-0.05 -0.09,-0.07z"/>
  <path class="fil2" d="M68.66 8.56c-0.19,-0.12 -0.4,-0.22 -0.61,-0.29 -0.22,-0.06 -0.45,-0.1 -0.69,-0.1 -0.31,0 -0.61,0.06 -0.89,0.18 -0.21,0.08 -0.39,0.2 -0.56,0.34 -0.18,0.14 -0.33,0.3 -0.45,0.48 -0.13,0.18 -0.23,0.39 -0.3,0.6 -0.07,0.22 -0.1,0.45 -0.1,0.68 0,0.4 0.1,0.77 0.31,1.12 0.21,0.35 0.49,0.62 0.84,0.82 0.36,0.21 0.74,0.31 1.15,0.31 0.42,0 0.8,-0.1 1.16,-0.31 0.35,-0.2 0.63,-0.48 0.84,-0.83 0.21,-0.35 0.31,-0.72 0.31,-1.13 0,-0.3 -0.06,-0.59 -0.18,-0.87 -0.18,-0.42 -0.46,-0.75 -0.83,-1zm0.26 0.86c0.1,0.15 0.18,0.31 0.23,0.47 0.06,0.18 0.09,0.36 0.09,0.54 0,0.33 -0.09,0.64 -0.26,0.93 -0.17,0.27 -0.4,0.5 -0.68,0.66 -0.29,0.16 -0.61,0.24 -0.94,0.24 -0.33,0 -0.64,-0.08 -0.93,-0.24 -0.28,-0.16 -0.51,-0.39 -0.68,-0.67 -0.17,-0.28 -0.25,-0.59 -0.25,-0.92 0,-0.24 0.05,-0.47 0.14,-0.7l0.01 -0.01c0.14,-0.32 0.37,-0.59 0.66,-0.79l0.01 -0.01 0 0c0.15,-0.1 0.31,-0.17 0.48,-0.22l0.01 -0.01 0.01 0c0.18,-0.05 0.36,-0.08 0.54,-0.08 0.26,0 0.5,0.05 0.73,0.15 0.34,0.14 0.63,0.36 0.83,0.66z"/>
  <path class="fil2" d="M63.93 12.07l0 0 -0.02 0c-0.1,0.01 -0.22,0.03 -0.33,0.03 -0.25,0 -0.5,-0.06 -0.69,-0.24 -0.21,-0.19 -0.28,-0.45 -0.28,-0.72l0 -2.65 1.31 0c0.06,0 0.11,-0.02 0.16,-0.07 0.04,-0.04 0.06,-0.09 0.06,-0.15 0,-0.07 -0.02,-0.11 -0.06,-0.15 -0.05,-0.05 -0.1,-0.07 -0.16,-0.07l-1.31 0 0 -1.64c0,-0.06 -0.02,-0.11 -0.06,-0.15 -0.05,-0.05 -0.09,-0.06 -0.16,-0.06 -0.06,0 -0.11,0.01 -0.15,0.06 -0.05,0.04 -0.06,0.09 -0.06,0.15l0 1.64 -0.82 0c-0.06,0 -0.11,0.02 -0.15,0.06 -0.05,0.05 -0.07,0.09 -0.07,0.16 0,0.06 0.02,0.11 0.07,0.16 0.04,0.04 0.09,0.06 0.15,0.06l0.82 0 0 2.61c0,0.27 0.04,0.53 0.16,0.77 0.11,0.2 0.27,0.36 0.47,0.48 0.24,0.14 0.52,0.18 0.79,0.18 0.08,0 0.16,0 0.24,-0.01l0.15 -0.02c0.06,-0.01 0.09,-0.03 0.13,-0.07 0.04,-0.05 0.05,-0.09 0.05,-0.15 0,-0.06 -0.01,-0.11 -0.06,-0.15 -0.05,-0.05 -0.09,-0.06 -0.15,-0.06 -0.01,0 -0.02,0 -0.03,0z"/>
  <path class="fil2" d="M58.75 10.12c-0.11,-0.02 -0.24,-0.05 -0.35,-0.09 -0.09,-0.03 -0.18,-0.08 -0.27,-0.12 -0.14,-0.08 -0.27,-0.19 -0.33,-0.35l-0.03 -0.07 0 -0.04c-0.01,-0.02 -0.01,-0.05 -0.01,-0.08 0,-0.12 0.02,-0.24 0.07,-0.36 0.07,-0.16 0.21,-0.27 0.38,-0.34 0.16,-0.06 0.35,-0.08 0.52,-0.08 0.18,0 0.36,0.02 0.53,0.08 0.15,0.04 0.29,0.1 0.43,0.17 0.03,0.01 0.07,0.03 0.1,0.05 0.01,0 0.03,0.01 0.04,0.01l0.03 0.01 0.02 0.02c0.02,0.01 0.05,0.01 0.07,0.01l0.01 0 0.03 0.01c0.05,-0.01 0.09,-0.03 0.13,-0.07 0.05,-0.04 0.07,-0.09 0.07,-0.16 0,-0.04 -0.01,-0.07 -0.04,-0.11 -0.02,-0.03 -0.05,-0.06 -0.09,-0.08 -0.17,-0.09 -0.35,-0.18 -0.54,-0.24 -0.26,-0.09 -0.53,-0.14 -0.81,-0.14 -0.25,0 -0.5,0.04 -0.74,0.15 -0.19,0.09 -0.35,0.22 -0.47,0.4 -0.13,0.2 -0.17,0.43 -0.17,0.66l0 0.01c0,0.29 0.08,0.53 0.31,0.72 0.3,0.25 0.69,0.39 1.05,0.47 0.22,0.05 0.44,0.11 0.65,0.18 0.24,0.08 0.49,0.22 0.59,0.48l0.03 0.07 0 0.05c0.01,0.03 0.01,0.06 0.01,0.09 0,0.3 -0.16,0.54 -0.44,0.66 -0.19,0.08 -0.4,0.12 -0.61,0.12 -0.25,0 -0.51,-0.04 -0.75,-0.13 -0.19,-0.07 -0.37,-0.17 -0.55,-0.27l0 0 -0.1 -0.07c-0.04,-0.02 -0.08,-0.03 -0.13,-0.03 -0.06,0 -0.11,0.01 -0.15,0.06 -0.05,0.04 -0.07,0.09 -0.07,0.15 0,0.05 0.01,0.08 0.04,0.12 0.02,0.04 0.05,0.07 0.09,0.09l0.02 0.01 0.02 0.01c0.24,0.15 0.5,0.28 0.77,0.37 0.27,0.08 0.54,0.12 0.81,0.12 0.29,0 0.57,-0.05 0.83,-0.17 0.2,-0.11 0.37,-0.24 0.49,-0.44 0.12,-0.18 0.17,-0.38 0.17,-0.6 0,-0.24 -0.05,-0.46 -0.22,-0.63 -0.16,-0.18 -0.35,-0.32 -0.58,-0.41 -0.28,-0.11 -0.57,-0.2 -0.86,-0.27z"/>
  <rect class="fil3" width="81.46" height="19.03"/>
 </g>
</svg>
