<?xml version="1.0" encoding="UTF-8"?>
<!DOCTYPE svg PUBLIC "-//W3C//DTD SVG 1.0//EN" "http://www.w3.org/TR/2001/REC-SVG-20010904/DTD/svg10.dtd">
<!-- Creator: CorelDRAW 2020 (64-Bit) -->
<svg xmlns="http://www.w3.org/2000/svg" xml:space="preserve" width="200px" height="28px" version="1.0" style="shape-rendering:geometricPrecision; text-rendering:geometricPrecision; image-rendering:optimizeQuality; fill-rule:evenodd; clip-rule:evenodd"
viewBox="0 0 49.89 6.99"
 xmlns:xlink="http://www.w3.org/1999/xlink"
 xmlns:xodm="http://www.corel.com/coreldraw/odm/2003">
 <defs>
  <style type="text/css">
   <![CDATA[
    .fil0 {fill:#333333}
    .fil2 {fill:#666666}
    .fil1 {fill:#FA370F}
   ]]>
  </style>
 </defs>
 <g id="Слой_x0020_1">
  <metadata id="CorelCorpID_0Corel-Layer"/>
  <path class="fil0" d="M19.12 6.36l0 -2.33c0,-0.39 -0.1,-0.76 -0.3,-1.09 -0.21,-0.32 -0.48,-0.58 -0.81,-0.77 -0.34,-0.18 -0.69,-0.27 -1.07,-0.27 -0.35,0 -0.68,0.08 -1,0.23l-0.27 0.14 0 -1.8c0,-0.13 -0.04,-0.24 -0.13,-0.33 -0.09,-0.1 -0.2,-0.14 -0.33,-0.14 -0.13,0 -0.23,0.04 -0.32,0.14 -0.09,0.09 -0.14,0.2 -0.14,0.33l0 5.89c0,0.13 0.04,0.24 0.14,0.33 0.09,0.09 0.19,0.13 0.32,0.13 0.13,0 0.24,-0.04 0.33,-0.13 0.09,-0.09 0.13,-0.2 0.13,-0.33l0 -2.32c0,-0.17 0.04,-0.32 0.1,-0.47 0.1,-0.23 0.26,-0.42 0.48,-0.55 0.21,-0.13 0.44,-0.19 0.68,-0.19 0.21,0 0.41,0.05 0.6,0.14 0.2,0.1 0.36,0.24 0.48,0.42 0.13,0.19 0.18,0.41 0.18,0.65l0 2.32c0,0.13 0.05,0.24 0.14,0.33 0.09,0.09 0.2,0.13 0.33,0.13 0.13,0 0.23,-0.04 0.32,-0.13 0.1,-0.09 0.14,-0.2 0.14,-0.33z"/>
  <path class="fil1" d="M26.5 6.92c0.13,0 0.23,-0.04 0.32,-0.13 0.09,-0.1 0.14,-0.2 0.14,-0.33 0,-0.13 -0.04,-0.24 -0.14,-0.33 -0.09,-0.09 -0.19,-0.13 -0.32,-0.13 -0.13,0 -0.24,0.04 -0.33,0.13 -0.09,0.09 -0.13,0.2 -0.13,0.33 0,0.13 0.04,0.23 0.13,0.33 0.09,0.09 0.2,0.13 0.33,0.13z"/>
  <path class="fil0" d="M25.16 3.48c-0.2,-0.47 -0.51,-0.84 -0.93,-1.12 -0.21,-0.13 -0.44,-0.24 -0.68,-0.32 -0.25,-0.07 -0.5,-0.11 -0.76,-0.11 -0.35,0 -0.68,0.06 -1,0.2 -0.23,0.09 -0.44,0.22 -0.63,0.37 -0.19,0.16 -0.36,0.34 -0.5,0.54 -0.14,0.21 -0.25,0.43 -0.33,0.67 -0.08,0.24 -0.11,0.5 -0.11,0.76 0,0.45 0.11,0.87 0.34,1.26 0.24,0.39 0.55,0.69 0.94,0.92 0.4,0.23 0.83,0.34 1.29,0.34 0.46,0 0.89,-0.11 1.29,-0.34 0.39,-0.23 0.7,-0.54 0.94,-0.93 0.23,-0.39 0.34,-0.81 0.34,-1.26 0,-0.34 -0.06,-0.67 -0.2,-0.98zm-2.37 2.58c-0.3,0 -0.57,-0.07 -0.83,-0.21 -0.25,-0.14 -0.45,-0.34 -0.6,-0.59 -0.15,-0.24 -0.22,-0.51 -0.22,-0.8 0,-0.21 0.05,-0.42 0.13,-0.62 0.13,-0.29 0.33,-0.52 0.59,-0.71l0.01 0c0.13,-0.09 0.27,-0.15 0.42,-0.2l0.01 0c0.16,-0.05 0.32,-0.07 0.49,-0.07 0.22,0 0.44,0.04 0.64,0.13 0.3,0.12 0.55,0.31 0.73,0.58 0.09,0.13 0.16,0.27 0.2,0.41 0.05,0.16 0.08,0.32 0.08,0.48 0,0.29 -0.08,0.56 -0.23,0.81 -0.15,0.24 -0.35,0.44 -0.6,0.58 -0.25,0.14 -0.53,0.21 -0.82,0.21z"/>
  <path class="fil0" d="M9.95 2.37c-0.01,-0.12 -0.06,-0.22 -0.15,-0.3 -0.09,-0.08 -0.19,-0.12 -0.32,-0.12 -0.12,0 -0.22,0.04 -0.31,0.12 -0.09,0.08 -0.14,0.18 -0.15,0.3l0 2.36c0,0.4 0.1,0.76 0.31,1.1 0.2,0.32 0.47,0.58 0.8,0.77 0.34,0.18 0.7,0.27 1.08,0.27 0.38,0 0.74,-0.09 1.08,-0.28l0.15 -0.08 0.09 0.15c0.04,0.07 0.1,0.12 0.17,0.17 0.07,0.04 0.15,0.06 0.23,0.06 0.13,0 0.24,-0.05 0.33,-0.14 0.09,-0.09 0.13,-0.2 0.13,-0.33l0 -4c0,-0.14 -0.04,-0.24 -0.13,-0.34 -0.09,-0.09 -0.2,-0.13 -0.33,-0.13 -0.13,0 -0.24,0.04 -0.33,0.14 -0.09,0.09 -0.14,0.19 -0.14,0.33l0 2.31c0,0.24 -0.05,0.46 -0.19,0.65 -0.12,0.18 -0.28,0.32 -0.47,0.42 -0.2,0.09 -0.4,0.14 -0.62,0.14 -0.26,0 -0.5,-0.07 -0.72,-0.22 -0.22,-0.15 -0.37,-0.37 -0.45,-0.63 -0.04,-0.11 -0.06,-0.23 -0.06,-0.36l0 -2.36z"/>
  <path class="fil0" d="M7.82 6.36l0 -2.32c0,-0.39 -0.1,-0.74 -0.3,-1.07 -0.19,-0.33 -0.46,-0.59 -0.79,-0.78 -0.34,-0.2 -0.71,-0.29 -1.1,-0.29 -0.3,0 -0.59,0.05 -0.87,0.17 -0.27,0.12 -0.51,0.29 -0.72,0.5l-0.13 0.14 -0.14 -0.14c-0.2,-0.21 -0.44,-0.38 -0.71,-0.5 -0.28,-0.12 -0.57,-0.17 -0.87,-0.17 -0.38,0 -0.75,0.09 -1.08,0.28l-0.16 0.08 -0.09 -0.15c-0.04,-0.07 -0.1,-0.12 -0.17,-0.17 -0.07,-0.04 -0.15,-0.06 -0.23,-0.06 -0.13,0 -0.23,0.05 -0.32,0.14 -0.1,0.09 -0.14,0.2 -0.14,0.33l0 4.01c0,0.13 0.04,0.24 0.13,0.33 0.1,0.09 0.2,0.13 0.33,0.13 0.13,0 0.24,-0.04 0.33,-0.13 0.09,-0.09 0.13,-0.2 0.13,-0.33l0 -2.32c0,-0.24 0.06,-0.46 0.19,-0.65 0.12,-0.18 0.29,-0.32 0.48,-0.42 0.19,-0.09 0.4,-0.14 0.61,-0.14 0.26,0 0.5,0.07 0.72,0.22 0.23,0.15 0.38,0.37 0.47,0.63 0.03,0.11 0.05,0.23 0.05,0.36l0 2.32c0,0.13 0.04,0.24 0.14,0.33 0.09,0.09 0.2,0.13 0.33,0.13 0.13,0 0.23,-0.04 0.32,-0.13 0.09,-0.09 0.14,-0.2 0.14,-0.33l0 -2.32c0,-0.24 0.06,-0.46 0.19,-0.65 0.12,-0.18 0.28,-0.32 0.48,-0.42 0.19,-0.1 0.4,-0.14 0.61,-0.14 0.26,0 0.5,0.07 0.72,0.21 0.23,0.16 0.38,0.38 0.46,0.64l0 0 0 0.01c0.04,0.11 0.06,0.23 0.06,0.35l0 2.32c0,0.13 0.04,0.24 0.13,0.33 0.09,0.09 0.2,0.13 0.33,0.13 0.13,0 0.23,-0.04 0.32,-0.13 0.1,-0.09 0.14,-0.2 0.15,-0.33z"/>
  <path class="fil2" d="M46.3 6.18c0.21,0.16 0.44,0.28 0.67,0.37 0.28,0.08 0.56,0.12 0.85,0.12 0.28,0 0.56,-0.06 0.83,-0.16 0.24,-0.09 0.45,-0.22 0.65,-0.38l0.08 -0.07c0.02,-0.02 0.04,-0.04 0.05,-0.07 0.02,-0.03 0.02,-0.06 0.02,-0.09 0,-0.06 -0.02,-0.11 -0.06,-0.15 -0.05,-0.05 -0.09,-0.07 -0.16,-0.07 -0.06,0 -0.1,0.02 -0.15,0.06l-0.01 0.01c-0.17,0.15 -0.36,0.27 -0.58,0.35 -0.21,0.08 -0.44,0.13 -0.67,0.13 -0.28,0 -0.56,-0.04 -0.81,-0.15 -0.17,-0.06 -0.31,-0.15 -0.45,-0.26l0 0 -0.01 -0.01c-0.19,-0.16 -0.34,-0.37 -0.44,-0.6l-0.01 -0.01 0 0c-0.1,-0.26 -0.15,-0.53 -0.15,-0.81 0,-0.32 0.07,-0.63 0.23,-0.92 0.15,-0.27 0.36,-0.5 0.63,-0.67 0.26,-0.16 0.56,-0.25 0.87,-0.25 0.35,0 0.68,0.08 0.97,0.27 0.29,0.18 0.5,0.44 0.64,0.75 0.08,0.19 0.11,0.39 0.12,0.6l-1.98 0c-0.07,0 -0.11,0.01 -0.16,0.06 -0.04,0.05 -0.06,0.09 -0.06,0.16 0,0.07 0.01,0.11 0.06,0.16 0.05,0.04 0.09,0.06 0.16,0.06l2.24 0c0.07,0 0.11,-0.02 0.16,-0.06 0.05,-0.05 0.06,-0.09 0.06,-0.16 0,-0.41 -0.09,-0.81 -0.28,-1.17 -0.19,-0.35 -0.45,-0.62 -0.79,-0.82 -0.34,-0.21 -0.73,-0.3 -1.13,-0.3l-0.01 0c-0.39,0 -0.74,0.1 -1.07,0.31 -0.34,0.2 -0.61,0.48 -0.8,0.83 -0.21,0.36 -0.3,0.74 -0.3,1.15 0,0.3 0.05,0.6 0.15,0.88 0.07,0.2 0.17,0.39 0.3,0.56 0.1,0.13 0.22,0.25 0.34,0.35z"/>
  <path class="fil2" d="M44.89 2.43l-0.04 -0.01c-0.34,-0.12 -0.7,-0.2 -1.06,-0.2 -0.29,0 -0.58,0.05 -0.84,0.19 -0.18,0.1 -0.36,0.26 -0.49,0.4 -0.01,-0.15 0.01,-0.44 -0.05,-0.52 -0.02,-0.02 -0.04,-0.04 -0.08,-0.06 -0.03,-0.01 -0.06,-0.02 -0.09,-0.02 -0.07,0 -0.11,0.02 -0.16,0.06 -0.04,0.05 -0.06,0.09 -0.06,0.16l0 3.94c0,0.07 0.02,0.11 0.06,0.16 0.05,0.05 0.09,0.06 0.16,0.06 0.06,0 0.11,-0.01 0.15,-0.06 0.05,-0.05 0.07,-0.09 0.07,-0.16l0 -2.25c0,-0.15 0.03,-0.3 0.06,-0.44 0.05,-0.19 0.14,-0.37 0.25,-0.54 0.14,-0.21 0.35,-0.35 0.59,-0.43l0.01 0c0.13,-0.04 0.27,-0.06 0.41,-0.06 0.32,0 0.64,0.08 0.94,0.19l0.01 0c0.02,0.01 0.04,0.01 0.06,0.01 0.07,0 0.12,-0.02 0.16,-0.06 0.05,-0.05 0.07,-0.09 0.07,-0.16 0,-0.05 -0.01,-0.08 -0.04,-0.12 -0.03,-0.04 -0.05,-0.06 -0.09,-0.08z"/>
  <path class="fil2" d="M39.6 2.56c-0.2,-0.12 -0.4,-0.22 -0.61,-0.29 -0.23,-0.06 -0.46,-0.1 -0.7,-0.1 -0.31,0 -0.62,0.06 -0.91,0.18 -0.2,0.08 -0.39,0.2 -0.57,0.34 -0.17,0.14 -0.32,0.31 -0.45,0.49 -0.13,0.18 -0.23,0.39 -0.3,0.61 -0.07,0.22 -0.1,0.45 -0.1,0.68 0,0.41 0.1,0.79 0.31,1.14 0.21,0.35 0.5,0.62 0.85,0.83 0.36,0.21 0.75,0.31 1.17,0.31 0.42,0 0.81,-0.1 1.17,-0.31 0.36,-0.21 0.64,-0.48 0.85,-0.84 0.21,-0.35 0.31,-0.73 0.31,-1.14 0,-0.31 -0.06,-0.61 -0.18,-0.89 -0.18,-0.42 -0.46,-0.75 -0.84,-1.01zm0.26 0.88c0.1,0.14 0.18,0.3 0.23,0.47 0.06,0.18 0.09,0.36 0.09,0.55 0,0.33 -0.08,0.65 -0.26,0.93 -0.17,0.28 -0.4,0.51 -0.69,0.67 -0.29,0.16 -0.61,0.24 -0.94,0.24 -0.33,0 -0.65,-0.08 -0.94,-0.24 -0.29,-0.16 -0.52,-0.39 -0.69,-0.67 -0.17,-0.29 -0.26,-0.6 -0.26,-0.93 0,-0.25 0.06,-0.49 0.15,-0.71l0 -0.01c0.15,-0.33 0.38,-0.6 0.68,-0.8l0 -0.01 0.01 0c0.15,-0.1 0.31,-0.17 0.48,-0.23l0.01 0 0.01 0c0.18,-0.06 0.36,-0.08 0.55,-0.08 0.25,0 0.5,0.05 0.74,0.14 0.34,0.14 0.63,0.37 0.83,0.68z"/>
  <path class="fil2" d="M34.82 6.11l-0.01 0 -0.01 0c-0.11,0.02 -0.23,0.03 -0.34,0.03 -0.25,0 -0.51,-0.06 -0.7,-0.24 -0.21,-0.19 -0.28,-0.46 -0.28,-0.73l0 -2.68 1.32 0c0.07,0 0.12,-0.02 0.16,-0.06 0.05,-0.05 0.07,-0.1 0.07,-0.16 0,-0.07 -0.02,-0.11 -0.07,-0.16 -0.04,-0.04 -0.09,-0.06 -0.16,-0.06l-1.32 0 0 -1.66c0,-0.06 -0.02,-0.11 -0.06,-0.15 -0.05,-0.05 -0.09,-0.07 -0.16,-0.07 -0.07,0 -0.11,0.02 -0.16,0.07 -0.04,0.04 -0.06,0.09 -0.06,0.15l0 1.66 -0.82 0c-0.07,0 -0.11,0.02 -0.16,0.06 -0.05,0.05 -0.06,0.09 -0.06,0.16 0,0.06 0.02,0.11 0.06,0.16 0.05,0.05 0.09,0.06 0.16,0.06l0.82 0 0 2.64c0,0.27 0.05,0.54 0.17,0.78 0.11,0.21 0.27,0.37 0.47,0.49 0.25,0.13 0.53,0.18 0.8,0.18 0.08,0 0.17,-0.01 0.25,-0.01l0.15 -0.02c0.06,-0.01 0.09,-0.03 0.13,-0.07 0.04,-0.05 0.05,-0.09 0.05,-0.15 0,-0.07 -0.02,-0.11 -0.06,-0.16 -0.05,-0.04 -0.09,-0.06 -0.16,-0.06 -0.01,0 -0.01,0 -0.02,0z"/>
  <path class="fil2" d="M29.58 4.14c-0.12,-0.02 -0.24,-0.05 -0.35,-0.09 -0.1,-0.03 -0.19,-0.08 -0.28,-0.12 -0.15,-0.08 -0.28,-0.19 -0.34,-0.35l-0.03 -0.08 0 -0.03c0,-0.03 -0.01,-0.06 -0.01,-0.09 0,-0.12 0.02,-0.24 0.07,-0.36 0.08,-0.17 0.22,-0.28 0.39,-0.35 0.16,-0.06 0.35,-0.07 0.52,-0.07 0.18,0 0.37,0.02 0.54,0.07 0.15,0.05 0.3,0.11 0.44,0.17 0.03,0.02 0.07,0.04 0.1,0.05 0.01,0.01 0.03,0.02 0.04,0.02l0.03 0.01 0.02 0.01c0.02,0.01 0.05,0.02 0.07,0.02l0.01 0 0.03 0c0.05,0 0.09,-0.02 0.13,-0.06 0.05,-0.05 0.07,-0.09 0.07,-0.16 0,-0.04 -0.01,-0.08 -0.03,-0.11 -0.03,-0.04 -0.05,-0.07 -0.09,-0.09 -0.18,-0.09 -0.37,-0.18 -0.55,-0.24 -0.27,-0.09 -0.54,-0.15 -0.82,-0.15 -0.26,0 -0.51,0.05 -0.75,0.16 -0.2,0.09 -0.36,0.22 -0.48,0.41 -0.13,0.19 -0.17,0.43 -0.17,0.66l0 0.01c0,0.3 0.08,0.54 0.31,0.73 0.3,0.25 0.7,0.4 1.07,0.48 0.22,0.05 0.44,0.11 0.65,0.18 0.25,0.08 0.5,0.22 0.6,0.48l0.03 0.08 0 0.04c0.01,0.03 0.01,0.06 0.01,0.09 0,0.31 -0.16,0.55 -0.44,0.67 -0.2,0.09 -0.41,0.12 -0.62,0.12 -0.26,0 -0.51,-0.04 -0.76,-0.13 -0.19,-0.07 -0.38,-0.16 -0.55,-0.27l-0.01 0 -0.1 -0.07c-0.04,-0.02 -0.08,-0.04 -0.13,-0.04 -0.06,0 -0.11,0.02 -0.15,0.07 -0.05,0.04 -0.07,0.09 -0.07,0.15 0,0.05 0.01,0.09 0.04,0.12 0.02,0.04 0.05,0.07 0.09,0.09l0.02 0.01 0.02 0.01c0.24,0.16 0.51,0.29 0.78,0.38 0.27,0.08 0.54,0.12 0.82,0.12 0.29,0 0.58,-0.05 0.84,-0.18 0.2,-0.1 0.37,-0.24 0.49,-0.43 0.12,-0.19 0.17,-0.4 0.17,-0.62 0,-0.23 -0.05,-0.46 -0.22,-0.64 -0.16,-0.17 -0.35,-0.32 -0.58,-0.41 -0.28,-0.11 -0.58,-0.2 -0.87,-0.27z"/>
 </g>
</svg>
