<?xml version="1.0" encoding="UTF-8"?>
<svg id="_Слой_2" data-name="Слой 2" xmlns="http://www.w3.org/2000/svg" width="834.39263916015625" height="264.147938603940929" xmlns:xlink="http://www.w3.org/1999/xlink" viewBox="0 0 834.39263916015625 264.147938603940929">
  <defs>
    <style>
      .cls-1, .cls-2, .cls-3, .cls-4 {
        fill-rule: evenodd;
      }

      .cls-1, .cls-5 {
        fill: #1559ba;
      }

      .cls-2 {
        fill: url(#_Новый_образец_градиента_3-3);
      }

      .cls-3 {
        fill: url(#_Новый_образец_градиента_3-2);
      }

      .cls-4 {
        fill: url(#_Новый_образец_градиента_3);
      }
    </style>
    <linearGradient id="_Новый_образец_градиента_3" data-name="Новый образец градиента 3" x1="9.809016075640102" y1="192.907785006655104" x2="199.982929119127789" y2="10.559958919709118" gradientUnits="userSpaceOnUse">
      <stop offset="0" stop-color="#1350a6"/>
      <stop offset=".5" stop-color="#1559ba"/>
      <stop offset="1" stop-color="#1764cf"/>
    </linearGradient>
    <linearGradient id="_Новый_образец_градиента_3-2" data-name="Новый образец градиента 3" x1="46.406589490123224" y1="231.076069726486821" x2="236.580502533611167" y2="48.728243639540608" xlink:href="#_Новый_образец_градиента_3"/>
    <linearGradient id="_Новый_образец_градиента_3-3" data-name="Новый образец градиента 3" x1="-49.835286500509028" y1="130.703641118218002" x2="140.338626542977835" y2="-51.644184968727188" xlink:href="#_Новый_образец_градиента_3"/>
  </defs>
  <g id="_Слой_1-2" data-name="Слой 1">
    <g>
      <path class="cls-1" d="m169.84765625,199.704823369565929c-13.434814453125,0-24.32568359375,10.890869140625-24.32568359375,24.325439453125s10.890869140625,24.32568359375,24.32568359375,24.32568359375,24.325439453125-10.89111328125,24.325439453125-24.32568359375-10.890625-24.325439453125-24.325439453125-24.325439453125h0Z"/>
      <g>
        <path class="cls-5" d="m346.437255859375,197.068837041440929c7.44482421875,0,14.18603515625,3.01806640625,19.065185546875,7.897216796875,4.87890625,4.879150390625,7.896728515625,11.619384765625,7.896728515625,19.064208984375s-3.01806640625,14.18603515625-7.896728515625,19.06494140625c-4.879150390625,4.87890625-11.620361328125,7.897216796875-19.065185546875,7.897216796875s-14.185546875-3.01806640625-19.064208984375-7.897216796875c-4.87890625-4.87890625-7.897216796875-11.6201171875-7.897216796875-19.06494140625s3.01806640625-14.18505859375,7.897216796875-19.064208984375c4.878662109375-4.879150390625,11.619384765625-7.897216796875,19.064208984375-7.897216796875h0Zm14.429443359375,12.5322265625c-3.6923828125-3.6923828125-8.79443359375-5.9765625-14.429443359375-5.9765625-5.634765625,0-10.736572265625,2.2841796875-14.42919921875,5.9765625-3.6923828125,3.69287109375-5.9765625,8.79443359375-5.9765625,14.42919921875s2.2841796875,10.7373046875,5.9765625,14.4296875c3.692626953125,3.6923828125,8.79443359375,5.9765625,14.42919921875,5.9765625,5.635009765625,0,10.737060546875-2.2841796875,14.429443359375-5.9765625,3.69287109375-3.6923828125,5.976806640625-8.794921875,5.976806640625-14.4296875s-2.283935546875-10.736328125-5.976806640625-14.42919921875h0Z"/>
        <path class="cls-5" d="m382.92529296875,245.581532353940929c-2.430419921875-1.8798828125-4.423095703125-4.2685546875-5.568115234375-7.171875l-.03515625-.0888671875v-2.54296875h6.0146484375l.126953125.312255859375c.74560546875,1.833251953125,2.11279296875,3.349365234375,3.761962890625,4.555908203125,2.0166015625,1.4755859375,4.45361328125,2.48828125,6.70556640625,3.055419921875,2.0791015625.523193359375,4.344482421875.76904296875,6.603271484375.73974609375s4.513916015625-.33447265625,6.573486328125909-.911865234375c.979248046875-.27392578125,1.94921875-.622314453125,2.880126953125-1.055908203125.854736328125-.398193359375,1.672607421875-.866943359375,2.429931640625-1.41455078125,1.229248046875-.887451171875,2.230712890625-1.934814453125,2.907470703125-3.148681640625.62060546875-1.11279296875.971435546875-2.370849609375.97607421875-3.77880859375.00390625-1.1142578125-.2265625-1.9453125-.68896484375-2.61572265625-.4716796875-.68408203125-1.19970703125-1.230224609375-2.175048828125-1.760009765625-.7939453125-.43115234375-1.657470703125-.805908203125-2.543701171875-1.131103515625-.88818359375-.32666015625-1.799072265625-.603515625-2.6845703125-.8408203125-2.389892578125909-.639892578125-5.354980468750909-1.0986328125-8.434082031250909-1.5751953125-4.102294921875-.634033203125-8.407470703125-1.30029296875-11.865478515625-2.462158203125-2.9775390625-1.000244140625-5.6533203125-2.487060546875-7.49853515625-4.640625-1.602294921875-1.869384765625-2.57470703125-4.228271484375-2.57470703125-7.186279296875,0-2.4306640625.677978515625-4.634521484375,1.85693359375-6.544921875,1.25537109375-2.03466796875,3.079345703125-3.73095703125,5.255615234375-5.00927734375.971435546875-.57080078125,1.9873046875-1.0498046875,3.02783203125-1.44921875,1.11328125-.42724609375,2.26708984375-.76708984375,3.435778035630392-1.03271484375,2.281018839369608-.517578125,4.750501261244608-.78466796875,7.226819620619608-.815185546875,2.54443359375-.031494140625,5.09423828125.184326171875,7.451904296875909.630126953125,2.725830078125.515625,5.6044921875,1.45703125,8.03369140625,3.000732421875,2.020263671875,1.283447265625,3.732910156249091,2.9833984375,4.799560546874091,5.200439453125l.05078125.10546875v2.886962890625h-5.855957031249091l-.1396484375-.273681640625c-.576904296875-1.132080078125-1.612060546875-2.0166015625-2.8212890625-2.69970703125-1.658447265625-.93603515625-3.64501953125-1.49560546875-5.268066406250909-1.802001953125-1.891357421875-.357421875-4.024658203125-.533203125-6.1474609375-.509765625-2.049072265625.02294921875-4.0908203125.232666015625-5.8994140625.6435546875-.79736328125.18115234375-1.5966796875.410400390625-2.376953125.699462890625-.7734375.28662109375-1.521240234375.6298828125-2.2197265625,1.0400390625-1.189208984375.698486328125-2.208251953125,1.58251953125-2.89892578125,2.651123046875-.607177734375.940673828125-.964599609375,2.032470703125-.964599609375,3.278564453125,0,1.612060546875.676513671875,2.8154296875,1.693115234375,3.72998046875,1.057861328125.95166015625,2.487548828125,1.60791015625,3.92626953125,2.0908203125,3.195068359375,1.0732421875,8.291015625,1.874267578125,12.66748046875,2.56201171875,2.937744140625.461669921875,5.556884765625909.87353515625,7.088867187500909,1.2841796875,1.14306640625.30615234375,2.30517578125.6259765625,3.4501953125,1.013671875,1.149658203125.389404296875,2.279296875.84765625,3.34814453125,1.42822265625,2.007324218749091,1.09033203125,3.573486328124091,2.441162109375,4.639892578124091,4.10693359375,1.071044921875,1.67333984375,1.63232421875,3.653564453125,1.62353515625,5.99462890625-.009521484375,2.481689453125-.613525390625,4.761474609375-1.703369140625,6.78515625-1.136962890625,2.111328125-2.800048828125,3.9443359375-4.863525390624091,5.436767578125-1.07470703125.77734375-2.22705078125,1.443603515625-3.4306640625,2.008544921875-1.27490234375.598876953125-2.60205078125,1.0810546875-3.951171875,1.45947265625-2.625244140625.7353515625-5.435546875000909,1.124267578125-8.252197265625909,1.162109375-2.81396484375.038330078125-5.631591796875-.27392578125-8.273193359375-.93896484375-3.30224609375-.831298828125-6.648193359375-2.31591796875-9.42138671875-4.46142578125h0Z"/>
        <path class="cls-5" d="m477.97393798828125,250.233876103940929c0-23.050537109375-.0242919921875-46.1025390625.00048828125-69.15234375h6.2586669921875v69.15234375h-6.2591552734375Z"/>
        <polygon class="cls-5" points="496.65289306640625 218.947255010190929 520.91851806640625 197.827870244565929 525.69720458984375 197.827870244565929 525.69720458984375 201.746571416440929 501.03778076171875 223.208973760190929 526.67169189453125 246.732411260190929 526.67169189453125 250.233876103940929 521.43194580078125 250.233876103940929 496.65289306640625 227.495106572690929 496.65289306640625 250.233876103940929 490.38592529296875 250.233876103940929 490.38592529296875 181.081532353940929 496.65289306640625 181.081532353940929 496.65289306640625 218.947255010190929 496.65289306640625 218.947255010190929"/>
        <path class="cls-5" d="m587.79119873046875,241.650135869565929v22.497802734375l-6.555419921875-.89453125c0-4.3486328125,0-37.98193359375-.000244140625-39.22314453125,0-7.44482421875,3.01806640625-14.18505859375,7.89697265625-19.064208984375,4.8790283203125-4.879150390625,11.6195068359375-7.897216796875,19.064453125-7.897216796875s14.18603515625,3.01806640625,19.0650634765625,7.897216796875c4.8787841796875,4.879150390625,7.89697265625,11.619384765625,7.89697265625,19.064208984375s-3.0184326171875,14.18603515625-7.89697265625,19.06494140625c-4.8790283203125,4.87890625-11.6201171875,7.897216796875-19.0650634765625,7.897216796875-4.2451171875,0-8.26416015625-.98388671875-11.8409423828125-2.73583984375-3.28759765625-1.610107421875-6.1981201171875-3.868408203125-8.5648193359375-6.6064453125h0Zm34.835205078125-32.049072265625c-3.6923828125-3.6923828125-8.79443359375-5.9765625-14.429443359375-5.9765625-5.6348876953125,0-10.736572265625,2.2841796875-14.42919921875,5.9765625-3.6922607421875,3.69287109375-5.9765625,8.79443359375-5.9765625,14.42919921875s2.2843017578125,10.7373046875,5.9765625,14.4296875c3.692626953125,3.6923828125,8.7943115234375,5.9765625,14.42919921875,5.9765625,5.635009765625,0,10.737060546875-2.2841796875,14.429443359375-5.9765625,3.6927490234375-3.6923828125,5.9769287109375-8.794921875,5.9769287109375-14.4296875s-2.2841796875-10.736328125-5.9769287109375-14.42919921875h0Z"/>
        <path class="cls-5" d="m725.22711181640625,224.052723760190929l.0008544921875,26.18115234375h-6.555419921875v-8.583984375c-2.366455078125,2.738037109375-5.27734375,4.99609375-8.56494140625,6.606689453125-3.5767822265625,1.751953125-7.5960693359375,2.73583984375-11.84130859375,2.73583984375-7.445068359375,0-14.185546875-3.01806640625-19.0645751953125-7.897216796875-4.878662109375-4.87890625-7.8970947265625-11.6201171875-7.8970947265625-19.06494140625s3.01806640625-14.18505859375,7.8970947265625-19.064208984375,11.6195068359375-7.897216796875,19.0645751953125-7.897216796875c7.4447021484375,0,14.185791015625,3.01806640625,19.0648193359375,7.897216796875,4.879150390625,4.879150390625,7.8970947265625,11.619384765625,7.8970947265625,19.064208984375l-.0010986328125.0224609375h0Zm-12.5316162109375-14.45166015625c-3.6922607421875-3.6923828125-8.79443359375-5.9765625-14.42919921875-5.9765625-5.6351318359375,0-10.7366943359375,2.2841796875-14.4293212890625,5.9765625-3.6923828125,3.69287109375-5.9765625,8.79443359375-5.9765625,14.42919921875s2.2841796875,10.7373046875,5.9765625,14.4296875c3.692626953125,3.6923828125,8.794189453125,5.9765625,14.4293212890625,5.9765625,5.634765625,0,10.7369384765625-2.2841796875,14.42919921875-5.9765625,3.69287109375-3.6923828125,5.97705078125-8.794921875,5.97705078125-14.4296875s-2.2841796875-10.736328125-5.97705078125-14.42919921875h0Z"/>
        <path class="cls-5" d="m731.02984619140625,250.234120244565929v-69.152587890625h7.04296875v23.2685546875c1.9122314453125-2.12451171875,4.1688232421875-3.865966796875,6.668212890625-5.1123046875,2.7952880859375-1.3935546875,5.8944091796875-2.1689453125,9.15625-2.1689453125,6.1895751953125,0,11.79150390625,2.78955078125,15.843017578125,7.298828125,4.0390625,4.4951171875,6.5379638671875,10.70166015625,6.5379638671875,17.55322265625v28.31298828125h-6.55615234375v-28.31298828125c0-5.06689453125-1.7803955078125-9.65087890625-4.658447265625-12.964599609375-2.860595703125-3.2939453125-6.8089599609375-5.331298828125-11.1661376953125-5.331298828125s-8.3055419921875,2.037353515625-11.166259765625,5.331298828125c-2.8779296875,3.313720703125-4.658447265625,7.897705078125-4.658447265625,12.964599609375v28.31298828125l-7.04296875.000244140625h0Z"/>
        <path class="cls-5" d="m646.17645263671875,250.233876103940929h-6.54296875v-52.40625h7.04296875v6.5224609375c1.9122314453125-2.12451171875,4.1689453125-3.865966796875,6.668212890625-5.1123046875,2.7952880859375-1.3935546875,5.8944091796875-2.1689453125,9.1561279296875-2.1689453125,1.677001953125,0,3.3148193359375.20654296875,4.8922119140625.59765625,1.6185302734375.4013671875,3.1732177734375.9990234375,4.6422119140625,1.76806640625l.26953125.14111328125v5.326904296875h-3.9813232421875l-.099609375-.045166015625c-.896728515625-.40234375-1.8349609375-.7138671875-2.8050537109375-.922607421875-.943359375-.203369140625-1.9189453125-.309814453125-2.917724609375-.309814453125-4.35693359375,0-8.3055419921875,2.037353515625-11.1661376953125,5.331298828125-2.8780517578125,3.313720703125-4.658447265625,7.897705078125-4.658447265625,12.964599609375v28.31298828125h-.5Z"/>
        <path class="cls-5" d="m443.75726318359375,250.000721807065929l-21.38079833984375-48.254150390625v-3.916015625l5.721435546875-.0009765625,19.38824462890625,43.75634765625,19.3892822265625-43.75830078125h5.7205810546875v3.91845703125c-9.2127685546875,20.78955078125-18.444091796875,41.57275390625-27.6361083984375,62.3720703125l-7.06365966796875-.88916015625,5.86102294921875-13.228271484375h0Z"/>
        <path class="cls-5" d="m551.23565673828125,250.000721807065929l-21.3809814453125-48.254150390625v-3.916015625l5.7215576171875-.0009765625,19.388427734375,43.75634765625,19.38916015625-43.75830078125h5.7205810546875v3.91845703125c-9.2127685546875,20.78955078125-18.444091796875,41.57275390625-27.6361083984375,62.3720703125l-7.0635986328125-.88916015625,5.8609619140625-13.228271484375h0Z"/>
        <path class="cls-5" d="m268.92919921875,241.650135869565929v22.497802734375l-6.55517578125-.89453125c0-4.3486328125,0-37.98193359375-.00048828125-39.22314453125,0-7.44482421875,3.018310546875-14.18505859375,7.897216796875-19.064208984375s11.619384765625-7.897216796875,19.064208984375-7.897216796875c7.445068359375,0,14.18603515625,3.01806640625,19.065185546875,7.897216796875,4.87890625,4.879150390625,7.89697265625,11.619384765625,7.89697265625,19.064208984375s-3.018310546875,14.18603515625-7.89697265625,19.06494140625c-4.879150390625,4.87890625-11.6201171875,7.897216796875-19.065185546875,7.897216796875-4.2451171875,0-8.26416015625-.98388671875-11.8408203125-2.73583984375-3.28759765625-1.610107421875-6.1982421875-3.868408203125-8.56494140625-6.6064453125h0Zm34.83544921875-32.049072265625c-3.692626953125-3.6923828125-8.79443359375-5.9765625-14.4296875-5.9765625-5.634765625,0-10.736328125,2.2841796875-14.42919921875,5.9765625-3.692138671875,3.69287109375-5.9765625,8.79443359375-5.9765625,14.42919921875s2.284423828125,10.7373046875,5.9765625,14.4296875c3.69287109375,3.6923828125,8.79443359375,5.9765625,14.42919921875,5.9765625,5.63525390625,0,10.737060546875-2.2841796875,14.4296875-5.9765625s5.976806640625-8.794921875,5.976806640625-14.4296875-2.2841796875-10.736328125-5.976806640625-14.42919921875h0Z"/>
        <path class="cls-5" d="m834.39154052734375,224.052723760190929l.0008544921875,26.18115234375h-6.555419921875v-8.583984375c-2.3663330078125,2.738037109375-5.2772216796875,4.99609375-8.5648193359375,6.606689453125-3.5767822265625,1.751953125-7.5960693359375,2.73583984375-11.841552734375,2.73583984375-7.4449462890625,0-14.185302734375-3.01806640625-19.064453125-7.897216796875-4.8785400390625-4.87890625-7.89697265625-11.6201171875-7.89697265625-19.06494140625s3.01806640625-14.18505859375,7.89697265625-19.064208984375c4.879150390625-4.879150390625,11.6195068359375-7.897216796875,19.064453125-7.897216796875s14.18603515625,3.01806640625,19.0650634765625,7.897216796875c4.87890625,4.879150390625,7.89697265625,11.619384765625,7.89697265625,19.064208984375l-.0010986328125.0224609375h0Zm-12.5313720703125-14.45166015625c-3.6923828125-3.6923828125-8.79443359375-5.9765625-14.4295654296875-5.9765625-5.6348876953125,0-10.7364501953125,2.2841796875-14.4293212890625,5.9765625-3.6922607421875,3.69287109375-5.9765625,8.79443359375-5.9765625,14.42919921875s2.2843017578125,10.7373046875,5.9765625,14.4296875c3.69287109375,3.6923828125,8.79443359375,5.9765625,14.4293212890625,5.9765625,5.6351318359375,0,10.7371826171875-2.2841796875,14.4295654296875-5.9765625,3.6925048828125-3.6923828125,5.976806640625-8.794921875,5.976806640625-14.4296875s-2.2843017578125-10.736328125-5.976806640625-14.42919921875h0Z"/>
      </g>
      <g>
        <path class="cls-4" d="m91.90283203125,185.525390625001819c-13.466796875-8.7294921875-29.0849609375-13.33984375-45.21484375-13.33984375-16.00146484375,0-31.52392578125,4.560546875-44.95947265625,13.19970703125,10.5849609375-44.91357421875,34.0048828125-87.242187500001819,66.01806640625-119.284179687501819C98.95068359375,34.86767578125,137.81689453125,12.548828125,180.23681640625,1.4833984375c-25.6328125,22.0771484375-46.32861328125,48.67138671875-61.52587890625,79.068359375-16.5087890625,33.0205078125-25.52685546875,68.333496093751819-26.80810546875,104.973632812501819Z"/>
        <path class="cls-3" d="m190.25927734375,185.531250000001819c-5.88916015625-3.74951171875-12.2197265625-6.7646484375-18.82763671875-8.966796875-8.7177734375-2.9052734375-17.814453125-4.37841796875-27.037109375-4.37841796875-9.21923828125,0-18.3125,1.47216796875-27.0283203125,4.37548828125-6.3984375,2.13134765625-12.68212890625,5.142578125-18.68798828125,8.9541015625,1.29443359375-35.13525390625,10.31005859375-70.367187500001819,26.09228515625-101.934082031251819,15.9140625-31.83056640625,37.9453125-59.29150390625,65.48876953125-81.630859375v183.580566406251819Z"/>
        <path class="cls-2" d="m0,0h161.48193359375c-36.84521484375,12.455078125-70.87353515625,33.62060546875-98.5439453125,61.31640625C34.15869140625,90.1220703125,12.43408203125,126.21435546875,0,165.838378906251819V0Z"/>
      </g>
    </g>
  </g>
</svg>