<svg width="16" height="11" viewBox="0 0 16 11" fill="none" xmlns="http://www.w3.org/2000/svg">
<path fill-rule="evenodd" clip-rule="evenodd" d="M0.678711 5.5C0.678711 5.08579 1.0145 4.75 1.42871 4.75L14.5716 4.75C14.9858 4.75 15.3216 5.08579 15.3216 5.5C15.3216 5.91421 14.9858 6.25 14.5716 6.25L1.42871 6.25C1.0145 6.25 0.678711 5.91421 0.678711 5.5Z" fill="white"/>
<path fill-rule="evenodd" clip-rule="evenodd" d="M10.0414 0.96967C10.3343 0.676777 10.8092 0.676777 11.1021 0.96967L15.1021 4.96967C15.395 5.26256 15.395 5.73744 15.1021 6.03033L11.1021 10.0303C10.8092 10.3232 10.3343 10.3232 10.0414 10.0303C9.74855 9.73744 9.74855 9.26256 10.0414 8.96967L13.5111 5.5L10.0414 2.03033C9.74855 1.73744 9.74855 1.26256 10.0414 0.96967Z" fill="white"/>
</svg>
