<svg width="16" height="11" viewBox="0 0 16 11" fill="none" xmlns="http://www.w3.org/2000/svg">
<path fill-rule="evenodd" clip-rule="evenodd" d="M15.3213 5.5C15.3213 5.08579 14.9855 4.75 14.5713 4.75L1.42843 4.75C1.01422 4.75 0.678432 5.08579 0.678432 5.5C0.678432 5.91421 1.01422 6.25 1.42843 6.25L14.5713 6.25C14.9855 6.25 15.3213 5.91421 15.3213 5.5Z" fill="#738D9A"/>
<path fill-rule="evenodd" clip-rule="evenodd" d="M5.95855 0.96967C5.66566 0.676777 5.19079 0.676777 4.89789 0.96967L0.897892 4.96967C0.604999 5.26256 0.604999 5.73744 0.897892 6.03033L4.89789 10.0303C5.19079 10.3232 5.66566 10.3232 5.95855 10.0303C6.25145 9.73744 6.25145 9.26256 5.95855 8.96967L2.48888 5.5L5.95855 2.03033C6.25145 1.73744 6.25145 1.26256 5.95855 0.96967Z" fill="#738D9A"/>
</svg>
