<svg width="30" height="30" viewBox="0 0 30 30" fill="none" xmlns="http://www.w3.org/2000/svg">
<circle cx="15" cy="15" r="15" transform="rotate(90 15 15)" fill="rgb(25, 135, 84)"/>
<path fill-rule="evenodd" clip-rule="evenodd" d="M19 11.5C18.72 11.5 18.47 11.61 18.29 11.79L14 16.09L11.71 13.79C11.53 13.61 11.28 13.5 11 13.5C10.45 13.5 10 13.95 10 14.5C10 14.78 10.11 15.03 10.29 15.21L13.29 18.21C13.47 18.39 13.72 18.5 14 18.5C14.28 18.5 14.53 18.39 14.71 18.21L19.71 13.21C19.89 13.03 20 12.78 20 12.5C20 11.95 19.55 11.5 19 11.5Z" fill="white"/>
</svg>
