<svg width="78" height="78" viewBox="0 0 78 78" fill="none" xmlns="http://www.w3.org/2000/svg">
<circle cx="39" cy="39" r="25" transform="rotate(90 39 39)" fill="#E04E39"/>
<circle cx="39" cy="39" r="38.5" transform="rotate(90 39 39)" stroke="#E04E39"/>
<path fill-rule="evenodd" clip-rule="evenodd" d="M45.4 34C44.952 34 44.552 34.1886 44.264 34.4971L37.4 41.8686L33.736 37.9257C33.448 37.6171 33.048 37.4286 32.6 37.4286C31.72 37.4286 31 38.2 31 39.1429C31 39.6229 31.176 40.0514 31.464 40.36L36.264 45.5029C36.552 45.8114 36.952 46 37.4 46C37.848 46 38.248 45.8114 38.536 45.5029L46.536 36.9314C46.824 36.6229 47 36.1943 47 35.7143C47 34.7714 46.28 34 45.4 34Z" fill="white"/>
</svg>
